<svg width="34" height="15" viewBox="0 0 34 15" fill="none" xmlns="http://www.w3.org/2000/svg">
<path d="M5.81207 10.13C5.81207 9.71494 5.68024 9.37314 5.41656 9.10458C5.15289 8.83115 4.71344 8.58701 4.09821 8.37216C3.48297 8.15244 3.00446 7.9498 2.66266 7.76425C1.52496 7.1539 0.956116 6.25058 0.956116 5.05429C0.956116 4.24374 1.2027 3.57724 1.69586 3.05478C2.18903 2.53232 2.85797 2.22226 3.7027 2.1246V0.527924H4.87457V2.13925C5.72418 2.26132 6.38092 2.62265 6.84479 3.22324C7.30865 3.81894 7.54059 4.59531 7.54059 5.55234H5.76813C5.76813 4.9371 5.62897 4.4537 5.35065 4.10214C5.07721 3.7457 4.70367 3.56747 4.23004 3.56747C3.76129 3.56747 3.39508 3.69443 3.13141 3.94833C2.86774 4.20224 2.7359 4.56601 2.7359 5.03964C2.7359 5.46445 2.8653 5.80624 3.12408 6.06503C3.38776 6.31894 3.83209 6.56064 4.45709 6.79013C5.08209 7.01962 5.57281 7.23203 5.92926 7.42734C6.28571 7.62265 6.586 7.84726 6.83014 8.10117C7.07428 8.35019 7.26227 8.63828 7.3941 8.96542C7.52594 9.29257 7.59186 9.67587 7.59186 10.1153C7.59186 10.9405 7.33795 11.6095 6.83014 12.1222C6.32721 12.6349 5.62408 12.9376 4.72076 13.0304V14.4586H3.55621V13.0377C2.58942 12.9303 1.84479 12.5836 1.32233 11.9977C0.804749 11.4117 0.545959 10.6353 0.545959 9.66855H2.32574C2.32574 10.2838 2.47955 10.7599 2.78717 11.0968C3.09967 11.4337 3.53912 11.6021 4.10553 11.6021C4.66217 11.6021 5.08453 11.4679 5.37262 11.1993C5.66559 10.9308 5.81207 10.5743 5.81207 10.13ZM16.3077 12.9132H9.13727V11.69L12.6895 7.81552C13.2022 7.24423 13.566 6.76816 13.7808 6.3873C14.0005 6.00156 14.1104 5.61581 14.1104 5.23007C14.1104 4.72226 13.9664 4.3121 13.6783 3.9996C13.3951 3.6871 13.0118 3.53085 12.5284 3.53085C11.9522 3.53085 11.5054 3.70663 11.188 4.0582C10.8707 4.40976 10.712 4.89072 10.712 5.50107H8.93219C8.93219 4.85165 9.07867 4.26816 9.37164 3.75058C9.66949 3.22812 10.0919 2.82285 10.6387 2.53476C11.1905 2.24667 11.8253 2.10263 12.543 2.10263C13.5782 2.10263 14.3936 2.36386 14.9893 2.88632C15.5899 3.4039 15.8902 4.12167 15.8902 5.03964C15.8902 5.57187 15.7388 6.13095 15.4361 6.71689C15.1382 7.29794 14.6475 7.95956 13.9639 8.70175L11.3565 11.4923H16.3077V12.9132ZM18.1387 7.62509L18.7173 2.24911H24.4449V3.7872H20.1968L19.9039 6.33603C20.397 6.05283 20.9537 5.91122 21.5738 5.91122C22.5894 5.91122 23.378 6.23593 23.9395 6.88535C24.5059 7.53476 24.7891 8.40878 24.7891 9.50742C24.7891 10.5914 24.4766 11.4557 23.8516 12.1002C23.2266 12.7398 22.3697 13.0597 21.2808 13.0597C20.3043 13.0597 19.4937 12.7838 18.8492 12.232C18.2095 11.6754 17.8629 10.943 17.8091 10.0348H19.5303C19.5987 10.5523 19.7842 10.9503 20.087 11.2286C20.3897 11.502 20.7852 11.6388 21.2735 11.6388C21.8204 11.6388 22.2452 11.4435 22.5479 11.0528C22.8555 10.6622 23.0093 10.13 23.0093 9.45615C23.0093 8.80673 22.8409 8.29404 22.504 7.91806C22.1671 7.5372 21.7032 7.34677 21.1124 7.34677C20.7901 7.34677 20.5167 7.39072 20.2921 7.47861C20.0674 7.56161 19.8233 7.72763 19.5596 7.97665L18.1387 7.62509ZM33.1387 8.42343C33.1387 9.95663 32.8506 11.1139 32.2745 11.8951C31.7032 12.6715 30.8316 13.0597 29.6597 13.0597C28.5074 13.0597 27.6382 12.6812 27.0523 11.9244C26.4713 11.1627 26.1734 10.0372 26.1588 8.54794V6.70224C26.1588 5.16904 26.4444 4.01913 27.0157 3.25253C27.5919 2.48593 28.4683 2.10263 29.6451 2.10263C30.8121 2.10263 31.6812 2.47617 32.2525 3.22324C32.8287 3.97031 33.1241 5.08847 33.1387 6.57773V8.42343ZM31.3589 6.43124C31.3589 5.43027 31.2222 4.69785 30.9488 4.23398C30.6754 3.76523 30.2408 3.53085 29.6451 3.53085C29.064 3.53085 28.6368 3.75302 28.3633 4.19736C28.0899 4.63681 27.9459 5.32529 27.9312 6.26279V8.67978C27.9312 9.67587 28.0704 10.4181 28.3487 10.9063C28.627 11.3946 29.064 11.6388 29.6597 11.6388C30.231 11.6388 30.6534 11.4142 30.9268 10.9649C31.2003 10.5108 31.3443 9.80283 31.3589 8.84091V6.43124Z" fill="#F0A83E"/>
</svg>
