<svg width="75" height="12" viewBox="0 0 75 12" fill="none" xmlns="http://www.w3.org/2000/svg">
<path d="M7.12646 8.2168H2.65869L1.65527 11H0.205078L4.27734 0.335938H5.50781L9.5874 11H8.14453L7.12646 8.2168ZM3.0835 7.05957H6.70898L4.89258 2.07178L3.0835 7.05957ZM13.9893 10.0405C14.4727 10.0405 14.895 9.89404 15.2563 9.60107C15.6177 9.30811 15.8179 8.94189 15.8569 8.50244H17.1387C17.1143 8.95654 16.958 9.38867 16.6699 9.79883C16.3818 10.209 15.9961 10.5361 15.5127 10.7803C15.0342 11.0244 14.5264 11.1465 13.9893 11.1465C12.9102 11.1465 12.0508 10.7876 11.4111 10.0698C10.7764 9.34717 10.459 8.36084 10.459 7.11084V6.88379C10.459 6.1123 10.6006 5.42627 10.8838 4.82568C11.167 4.2251 11.5723 3.75879 12.0996 3.42676C12.6318 3.09473 13.2593 2.92871 13.9819 2.92871C14.8706 2.92871 15.6079 3.19482 16.1938 3.72705C16.7847 4.25928 17.0996 4.9502 17.1387 5.7998H15.8569C15.8179 5.28711 15.6226 4.86719 15.271 4.54004C14.9243 4.20801 14.4946 4.04199 13.9819 4.04199C13.2935 4.04199 12.7588 4.29102 12.3779 4.78906C12.002 5.28223 11.814 5.99756 11.814 6.93506V7.19141C11.814 8.10449 12.002 8.80762 12.3779 9.30078C12.7539 9.79395 13.291 10.0405 13.9893 10.0405ZM21.8408 10.0405C22.3242 10.0405 22.7466 9.89404 23.1079 9.60107C23.4692 9.30811 23.6694 8.94189 23.7085 8.50244H24.9902C24.9658 8.95654 24.8096 9.38867 24.5215 9.79883C24.2334 10.209 23.8477 10.5361 23.3643 10.7803C22.8857 11.0244 22.3779 11.1465 21.8408 11.1465C20.7617 11.1465 19.9023 10.7876 19.2627 10.0698C18.6279 9.34717 18.3105 8.36084 18.3105 7.11084V6.88379C18.3105 6.1123 18.4521 5.42627 18.7354 4.82568C19.0186 4.2251 19.4238 3.75879 19.9512 3.42676C20.4834 3.09473 21.1108 2.92871 21.8335 2.92871C22.7222 2.92871 23.4595 3.19482 24.0454 3.72705C24.6362 4.25928 24.9512 4.9502 24.9902 5.7998H23.7085C23.6694 5.28711 23.4741 4.86719 23.1226 4.54004C22.7759 4.20801 22.3462 4.04199 21.8335 4.04199C21.145 4.04199 20.6104 4.29102 20.2295 4.78906C19.8535 5.28223 19.6655 5.99756 19.6655 6.93506V7.19141C19.6655 8.10449 19.8535 8.80762 20.2295 9.30078C20.6055 9.79395 21.1426 10.0405 21.8408 10.0405ZM29.8022 11.1465C28.728 11.1465 27.854 10.7949 27.1802 10.0918C26.5063 9.38379 26.1694 8.43896 26.1694 7.25732V7.0083C26.1694 6.22217 26.3184 5.52148 26.6162 4.90625C26.9189 4.28613 27.3389 3.80273 27.876 3.45605C28.418 3.10449 29.0039 2.92871 29.6338 2.92871C30.6641 2.92871 31.4648 3.26807 32.0361 3.94678C32.6074 4.62549 32.8931 5.59717 32.8931 6.86182V7.42578H27.5244C27.5439 8.20703 27.771 8.83936 28.2056 9.32275C28.645 9.80127 29.2017 10.0405 29.8755 10.0405C30.354 10.0405 30.7593 9.94287 31.0913 9.74756C31.4233 9.55225 31.7139 9.29346 31.9629 8.97119L32.7905 9.61572C32.1265 10.6362 31.1304 11.1465 29.8022 11.1465ZM29.6338 4.04199C29.0869 4.04199 28.6279 4.24219 28.2568 4.64258C27.8857 5.03809 27.6562 5.59473 27.5684 6.3125H31.5381V6.20996C31.499 5.52148 31.3135 4.98926 30.9814 4.61328C30.6494 4.23242 30.2002 4.04199 29.6338 4.04199ZM39.082 8.89795C39.082 8.53174 38.9429 8.24854 38.6646 8.04834C38.3911 7.84326 37.9102 7.66748 37.2217 7.521C36.5381 7.37451 35.9937 7.19873 35.5884 6.99365C35.188 6.78857 34.8901 6.54443 34.6948 6.26123C34.5044 5.97803 34.4092 5.64111 34.4092 5.25049C34.4092 4.60107 34.6826 4.05176 35.2295 3.60254C35.7812 3.15332 36.4844 2.92871 37.3389 2.92871C38.2373 2.92871 38.9648 3.16064 39.5215 3.62451C40.083 4.08838 40.3638 4.68164 40.3638 5.4043H39.0015C39.0015 5.0332 38.8428 4.71338 38.5254 4.44482C38.2129 4.17627 37.8174 4.04199 37.3389 4.04199C36.8457 4.04199 36.46 4.14941 36.1816 4.36426C35.9033 4.5791 35.7642 4.85986 35.7642 5.20654C35.7642 5.53369 35.8936 5.78027 36.1523 5.94629C36.4111 6.1123 36.8774 6.271 37.5513 6.42236C38.23 6.57373 38.7793 6.75439 39.1992 6.96436C39.6191 7.17432 39.9292 7.42822 40.1294 7.72607C40.3345 8.01904 40.437 8.37793 40.437 8.80273C40.437 9.51074 40.1538 10.0796 39.5874 10.5093C39.021 10.9341 38.2861 11.1465 37.3828 11.1465C36.748 11.1465 36.1865 11.0342 35.6982 10.8096C35.21 10.585 34.8267 10.2725 34.5483 9.87207C34.2749 9.4668 34.1382 9.02979 34.1382 8.56104H35.4932C35.5176 9.01514 35.6982 9.37646 36.0352 9.64502C36.377 9.90869 36.8262 10.0405 37.3828 10.0405C37.8955 10.0405 38.3057 9.93799 38.6133 9.73291C38.9258 9.52295 39.082 9.24463 39.082 8.89795ZM41.8433 6.96436C41.8433 6.18799 41.9946 5.48975 42.2974 4.86963C42.605 4.24951 43.0298 3.771 43.5718 3.43408C44.1187 3.09717 44.7412 2.92871 45.4395 2.92871C46.5186 2.92871 47.3901 3.30225 48.0542 4.04932C48.7231 4.79639 49.0576 5.79004 49.0576 7.03027V7.12549C49.0576 7.89697 48.9087 8.59033 48.6108 9.20557C48.3179 9.81592 47.8955 10.292 47.3438 10.6338C46.7969 10.9756 46.167 11.1465 45.4541 11.1465C44.3799 11.1465 43.5083 10.7729 42.8394 10.0259C42.1753 9.27881 41.8433 8.29004 41.8433 7.05957V6.96436ZM43.2056 7.12549C43.2056 8.00439 43.4082 8.70996 43.8135 9.24219C44.2236 9.77441 44.7705 10.0405 45.4541 10.0405C46.1426 10.0405 46.6895 9.77197 47.0947 9.23486C47.5 8.69287 47.7026 7.93604 47.7026 6.96436C47.7026 6.09521 47.4951 5.39209 47.0801 4.85498C46.6699 4.31299 46.123 4.04199 45.4395 4.04199C44.7705 4.04199 44.231 4.30811 43.8208 4.84033C43.4106 5.37256 43.2056 6.13428 43.2056 7.12549ZM54.5874 4.29102C54.3823 4.25684 54.1602 4.23975 53.9209 4.23975C53.0322 4.23975 52.4292 4.61816 52.1118 5.375V11H50.7568V3.0752H52.0752L52.0972 3.99072C52.5415 3.28271 53.1714 2.92871 53.9868 2.92871C54.2505 2.92871 54.4507 2.96289 54.5874 3.03125V4.29102ZM57.312 11H55.957V3.0752H57.312V11ZM55.8472 0.973145C55.8472 0.753418 55.9131 0.567871 56.0449 0.416504C56.1816 0.265137 56.3818 0.189453 56.6455 0.189453C56.9092 0.189453 57.1094 0.265137 57.2461 0.416504C57.3828 0.567871 57.4512 0.753418 57.4512 0.973145C57.4512 1.19287 57.3828 1.37598 57.2461 1.52246C57.1094 1.66895 56.9092 1.74219 56.6455 1.74219C56.3818 1.74219 56.1816 1.66895 56.0449 1.52246C55.9131 1.37598 55.8472 1.19287 55.8472 0.973145ZM59.1284 6.96436C59.1284 6.18799 59.2798 5.48975 59.5825 4.86963C59.8901 4.24951 60.3149 3.771 60.8569 3.43408C61.4038 3.09717 62.0264 2.92871 62.7246 2.92871C63.8037 2.92871 64.6753 3.30225 65.3394 4.04932C66.0083 4.79639 66.3428 5.79004 66.3428 7.03027V7.12549C66.3428 7.89697 66.1938 8.59033 65.896 9.20557C65.603 9.81592 65.1807 10.292 64.6289 10.6338C64.082 10.9756 63.4521 11.1465 62.7393 11.1465C61.665 11.1465 60.7935 10.7729 60.1245 10.0259C59.4604 9.27881 59.1284 8.29004 59.1284 7.05957V6.96436ZM60.4907 7.12549C60.4907 8.00439 60.6934 8.70996 61.0986 9.24219C61.5088 9.77441 62.0557 10.0405 62.7393 10.0405C63.4277 10.0405 63.9746 9.77197 64.3799 9.23486C64.7852 8.69287 64.9878 7.93604 64.9878 6.96436C64.9878 6.09521 64.7803 5.39209 64.3652 4.85498C63.9551 4.31299 63.4082 4.04199 62.7246 4.04199C62.0557 4.04199 61.5161 4.30811 61.106 4.84033C60.6958 5.37256 60.4907 6.13428 60.4907 7.12549ZM72.6562 8.89795C72.6562 8.53174 72.5171 8.24854 72.2388 8.04834C71.9653 7.84326 71.4844 7.66748 70.7959 7.521C70.1123 7.37451 69.5679 7.19873 69.1626 6.99365C68.7622 6.78857 68.4644 6.54443 68.269 6.26123C68.0786 5.97803 67.9834 5.64111 67.9834 5.25049C67.9834 4.60107 68.2568 4.05176 68.8037 3.60254C69.3555 3.15332 70.0586 2.92871 70.9131 2.92871C71.8115 2.92871 72.5391 3.16064 73.0957 3.62451C73.6572 4.08838 73.938 4.68164 73.938 5.4043H72.5757C72.5757 5.0332 72.417 4.71338 72.0996 4.44482C71.7871 4.17627 71.3916 4.04199 70.9131 4.04199C70.4199 4.04199 70.0342 4.14941 69.7559 4.36426C69.4775 4.5791 69.3384 4.85986 69.3384 5.20654C69.3384 5.53369 69.4678 5.78027 69.7266 5.94629C69.9854 6.1123 70.4517 6.271 71.1255 6.42236C71.8042 6.57373 72.3535 6.75439 72.7734 6.96436C73.1934 7.17432 73.5034 7.42822 73.7036 7.72607C73.9087 8.01904 74.0112 8.37793 74.0112 8.80273C74.0112 9.51074 73.728 10.0796 73.1616 10.5093C72.5952 10.9341 71.8604 11.1465 70.957 11.1465C70.3223 11.1465 69.7607 11.0342 69.2725 10.8096C68.7842 10.585 68.4009 10.2725 68.1226 9.87207C67.8491 9.4668 67.7124 9.02979 67.7124 8.56104H69.0674C69.0918 9.01514 69.2725 9.37646 69.6094 9.64502C69.9512 9.90869 70.4004 10.0405 70.957 10.0405C71.4697 10.0405 71.8799 9.93799 72.1875 9.73291C72.5 9.52295 72.6562 9.24463 72.6562 8.89795Z" fill="#666666"/>
</svg>
