<svg width="73" height="11" viewBox="0 0 73 11" fill="none" xmlns="http://www.w3.org/2000/svg">
<path d="M6.21582 5.63184C6.16048 6.39681 5.87728 6.99902 5.36621 7.43848C4.8584 7.87793 4.18783 8.09766 3.35449 8.09766C2.44303 8.09766 1.72526 7.79167 1.20117 7.17969C0.680339 6.56445 0.419922 5.72135 0.419922 4.65039V4.21582C0.419922 3.53223 0.540365 2.93001 0.78125 2.40918C1.02214 1.88835 1.36556 1.48958 1.81152 1.21289C2.26074 0.932943 2.78158 0.792969 3.37402 0.792969C4.19434 0.792969 4.85514 1.0127 5.35645 1.45215C5.85775 1.8916 6.14746 2.50846 6.22559 3.30273H4.76074C4.72493 2.84375 4.59635 2.51172 4.375 2.30664C4.1569 2.09831 3.82324 1.99414 3.37402 1.99414C2.88574 1.99414 2.51953 2.16992 2.27539 2.52148C2.03451 2.86979 1.91081 3.41178 1.9043 4.14746V4.68457C1.9043 5.4528 2.01986 6.01432 2.25098 6.36914C2.48535 6.72396 2.85319 6.90137 3.35449 6.90137C3.80697 6.90137 4.14388 6.79883 4.36523 6.59375C4.58984 6.38542 4.71842 6.06478 4.75098 5.63184H6.21582ZM10.1465 8C10.0814 7.87305 10.0342 7.71517 10.0049 7.52637C9.66309 7.90723 9.21875 8.09766 8.67188 8.09766C8.1543 8.09766 7.72461 7.94792 7.38281 7.64844C7.04427 7.34896 6.875 6.97135 6.875 6.51562C6.875 5.95573 7.08171 5.52604 7.49512 5.22656C7.91178 4.92708 8.51237 4.77572 9.29688 4.77246H9.94629V4.46973C9.94629 4.22559 9.88281 4.03027 9.75586 3.88379C9.63216 3.7373 9.43522 3.66406 9.16504 3.66406C8.92741 3.66406 8.74023 3.72103 8.60352 3.83496C8.47005 3.94889 8.40332 4.10514 8.40332 4.30371H6.99219C6.99219 3.99772 7.08659 3.71452 7.27539 3.4541C7.46419 3.19368 7.73112 2.99023 8.07617 2.84375C8.42122 2.69401 8.80859 2.61914 9.23828 2.61914C9.88932 2.61914 10.4053 2.78353 10.7861 3.1123C11.1702 3.43783 11.3623 3.89681 11.3623 4.48926V6.7793C11.3656 7.2806 11.4355 7.65983 11.5723 7.91699V8H10.1465ZM8.97949 7.01855C9.18783 7.01855 9.37988 6.97298 9.55566 6.88184C9.73145 6.78743 9.86165 6.66211 9.94629 6.50586V5.59766H9.41895C8.71257 5.59766 8.33659 5.8418 8.29102 6.33008L8.28613 6.41309C8.28613 6.58887 8.34798 6.73372 8.47168 6.84766C8.59538 6.96159 8.76465 7.01855 8.97949 7.01855ZM13.9355 8H12.5195V0.5H13.9355V8ZM16.5918 8H15.1758V0.5H16.5918V8ZM20.1904 8.09766C19.4157 8.09766 18.7842 7.86003 18.2959 7.38477C17.8109 6.90951 17.5684 6.27637 17.5684 5.48535V5.34863C17.5684 4.81803 17.6709 4.3444 17.876 3.92773C18.0811 3.50781 18.3708 3.18555 18.7451 2.96094C19.1227 2.73307 19.5524 2.61914 20.0342 2.61914C20.7568 2.61914 21.3249 2.84701 21.7383 3.30273C22.1549 3.75846 22.3633 4.40462 22.3633 5.24121V5.81738H18.999C19.0446 6.16243 19.1813 6.43913 19.4092 6.64746C19.6403 6.85579 19.9316 6.95996 20.2832 6.95996C20.8268 6.95996 21.2516 6.76302 21.5576 6.36914L22.251 7.14551C22.0394 7.44499 21.7529 7.67936 21.3916 7.84863C21.0303 8.01465 20.6299 8.09766 20.1904 8.09766ZM20.0293 3.76172C19.7493 3.76172 19.5215 3.85612 19.3457 4.04492C19.1732 4.23372 19.0625 4.50391 19.0137 4.85547H20.9766V4.74316C20.9701 4.43066 20.8854 4.18978 20.7227 4.02051C20.5599 3.84798 20.3288 3.76172 20.0293 3.76172ZM28.4033 5.52441H25.6543V4.38672H28.4033V5.52441ZM36.7822 5.40723C36.7822 6.22103 36.5967 6.8737 36.2256 7.36523C35.8577 7.85352 35.3597 8.09766 34.7314 8.09766C34.1976 8.09766 33.7663 7.91211 33.4375 7.54102V10.0312H32.0264V2.7168H33.335L33.3838 3.23438C33.7256 2.82422 34.1715 2.61914 34.7217 2.61914C35.3727 2.61914 35.8789 2.86003 36.2402 3.3418C36.6016 3.82357 36.7822 4.48763 36.7822 5.33398V5.40723ZM35.3711 5.30469C35.3711 4.81315 35.2832 4.43392 35.1074 4.16699C34.9349 3.90007 34.6826 3.7666 34.3506 3.7666C33.9079 3.7666 33.6035 3.93587 33.4375 4.27441V6.4375C33.61 6.78581 33.9176 6.95996 34.3604 6.95996C35.0342 6.95996 35.3711 6.4082 35.3711 5.30469ZM40.6299 4.04004C40.4378 4.014 40.2686 4.00098 40.1221 4.00098C39.5882 4.00098 39.2383 4.18164 39.0723 4.54297V8H37.6611V2.7168H38.9941L39.0332 3.34668C39.3164 2.86165 39.7087 2.61914 40.21 2.61914C40.3662 2.61914 40.5127 2.6403 40.6494 2.68262L40.6299 4.04004ZM40.918 5.30957C40.918 4.78548 41.0189 4.31836 41.2207 3.9082C41.4225 3.49805 41.7122 3.18066 42.0898 2.95605C42.4707 2.73145 42.9118 2.61914 43.4131 2.61914C44.126 2.61914 44.707 2.83724 45.1562 3.27344C45.6087 3.70964 45.861 4.30208 45.9131 5.05078L45.9229 5.41211C45.9229 6.22266 45.6966 6.8737 45.2441 7.36523C44.7917 7.85352 44.1846 8.09766 43.4229 8.09766C42.6611 8.09766 42.0524 7.85352 41.5967 7.36523C41.1442 6.87695 40.918 6.21289 40.918 5.37305V5.30957ZM42.3291 5.41211C42.3291 5.91341 42.4235 6.29753 42.6123 6.56445C42.8011 6.82812 43.0713 6.95996 43.4229 6.95996C43.7646 6.95996 44.0316 6.82975 44.2236 6.56934C44.4157 6.30566 44.5117 5.88574 44.5117 5.30957C44.5117 4.81803 44.4157 4.43717 44.2236 4.16699C44.0316 3.89681 43.7614 3.76172 43.4131 3.76172C43.068 3.76172 42.8011 3.89681 42.6123 4.16699C42.4235 4.43392 42.3291 4.84896 42.3291 5.41211ZM48.6914 6.27637L49.6729 2.7168H51.1475L49.3652 8H48.0176L46.2354 2.7168H47.71L48.6914 6.27637ZM53.2617 8H51.8457V2.7168H53.2617V8ZM51.7627 1.34961C51.7627 1.13802 51.8327 0.963867 51.9727 0.827148C52.1159 0.69043 52.3096 0.62207 52.5537 0.62207C52.7946 0.62207 52.9867 0.69043 53.1299 0.827148C53.2731 0.963867 53.3447 1.13802 53.3447 1.34961C53.3447 1.56445 53.2715 1.74023 53.125 1.87695C52.9818 2.01367 52.7913 2.08203 52.5537 2.08203C52.3161 2.08203 52.124 2.01367 51.9775 1.87695C51.8343 1.74023 51.7627 1.56445 51.7627 1.34961ZM55.7275 2.7168L55.7715 3.32715C56.1491 2.85514 56.6553 2.61914 57.29 2.61914C57.8499 2.61914 58.2666 2.78353 58.54 3.1123C58.8135 3.44108 58.9535 3.93262 58.96 4.58691V8H57.5488V4.62109C57.5488 4.32161 57.4837 4.10514 57.3535 3.97168C57.2233 3.83496 57.0068 3.7666 56.7041 3.7666C56.307 3.7666 56.0091 3.93587 55.8105 4.27441V8H54.3994V2.7168H55.7275ZM62.2314 6.95996C62.4919 6.95996 62.7035 6.88835 62.8662 6.74512C63.029 6.60189 63.1136 6.41146 63.1201 6.17383H64.4434C64.4401 6.5319 64.3424 6.86068 64.1504 7.16016C63.9583 7.45638 63.6947 7.6875 63.3594 7.85352C63.0273 8.01628 62.6595 8.09766 62.2559 8.09766C61.5007 8.09766 60.9049 7.8584 60.4688 7.37988C60.0326 6.89811 59.8145 6.23405 59.8145 5.3877V5.29492C59.8145 4.48112 60.0309 3.83171 60.4639 3.34668C60.8968 2.86165 61.4909 2.61914 62.2461 2.61914C62.9069 2.61914 63.4359 2.80794 63.833 3.18555C64.2334 3.5599 64.4368 4.05957 64.4434 4.68457H63.1201C63.1136 4.41113 63.029 4.18978 62.8662 4.02051C62.7035 3.84798 62.4886 3.76172 62.2217 3.76172C61.8929 3.76172 61.6439 3.88216 61.4746 4.12305C61.3086 4.36068 61.2256 4.74805 61.2256 5.28516V5.43164C61.2256 5.97526 61.3086 6.36589 61.4746 6.60352C61.6406 6.84115 61.8929 6.95996 62.2314 6.95996ZM66.7383 8H65.3223V2.7168H66.7383V8ZM65.2393 1.34961C65.2393 1.13802 65.3092 0.963867 65.4492 0.827148C65.5924 0.69043 65.7861 0.62207 66.0303 0.62207C66.2712 0.62207 66.4632 0.69043 66.6064 0.827148C66.7497 0.963867 66.8213 1.13802 66.8213 1.34961C66.8213 1.56445 66.748 1.74023 66.6016 1.87695C66.4583 2.01367 66.2679 2.08203 66.0303 2.08203C65.7926 2.08203 65.6006 2.01367 65.4541 1.87695C65.3109 1.74023 65.2393 1.56445 65.2393 1.34961ZM70.9668 8C70.9017 7.87305 70.8545 7.71517 70.8252 7.52637C70.4834 7.90723 70.0391 8.09766 69.4922 8.09766C68.9746 8.09766 68.5449 7.94792 68.2031 7.64844C67.8646 7.34896 67.6953 6.97135 67.6953 6.51562C67.6953 5.95573 67.902 5.52604 68.3154 5.22656C68.7321 4.92708 69.3327 4.77572 70.1172 4.77246H70.7666V4.46973C70.7666 4.22559 70.7031 4.03027 70.5762 3.88379C70.4525 3.7373 70.2555 3.66406 69.9854 3.66406C69.7477 3.66406 69.5605 3.72103 69.4238 3.83496C69.2904 3.94889 69.2236 4.10514 69.2236 4.30371H67.8125C67.8125 3.99772 67.9069 3.71452 68.0957 3.4541C68.2845 3.19368 68.5514 2.99023 68.8965 2.84375C69.2415 2.69401 69.6289 2.61914 70.0586 2.61914C70.7096 2.61914 71.2256 2.78353 71.6064 3.1123C71.9906 3.43783 72.1826 3.89681 72.1826 4.48926V6.7793C72.1859 7.2806 72.2559 7.65983 72.3926 7.91699V8H70.9668ZM69.7998 7.01855C70.0081 7.01855 70.2002 6.97298 70.376 6.88184C70.5518 6.78743 70.682 6.66211 70.7666 6.50586V5.59766H70.2393C69.5329 5.59766 69.1569 5.8418 69.1113 6.33008L69.1064 6.41309C69.1064 6.58887 69.1683 6.73372 69.292 6.84766C69.4157 6.96159 69.585 7.01855 69.7998 7.01855Z" fill="#8A8787"/>
</svg>
