<svg width="141" height="15" viewBox="0 0 141 15" fill="none" xmlns="http://www.w3.org/2000/svg">
<path d="M8.62796 8.38364C8.52054 9.52133 8.10062 10.41 7.36819 11.0497C6.63577 11.6844 5.66165 12.0018 4.44583 12.0018C3.59622 12.0018 2.84671 11.8016 2.1973 11.4012C1.55276 10.9959 1.05472 10.4222 0.703156 9.68002C0.351593 8.93784 0.168488 8.07602 0.153839 7.09457V6.09848C0.153839 5.09262 0.332062 4.20639 0.688507 3.43979C1.04495 2.67319 1.55521 2.08237 2.21927 1.66733C2.88821 1.25229 3.6597 1.04477 4.53372 1.04477C5.71048 1.04477 6.65775 1.36459 7.37552 2.00424C8.09329 2.64389 8.51077 3.54721 8.62796 4.7142H6.78226C6.69437 3.9476 6.46976 3.39584 6.10843 3.05893C5.75198 2.71713 5.22708 2.54623 4.53372 2.54623C3.72806 2.54623 3.10794 2.84164 2.67337 3.43246C2.24368 4.0184 2.02396 4.88022 2.01419 6.01791V6.96274C2.01419 8.11508 2.21927 8.99399 2.62943 9.59946C3.04446 10.2049 3.64993 10.5077 4.44583 10.5077C5.17337 10.5077 5.72025 10.3441 6.08646 10.0169C6.45267 9.68979 6.6846 9.14536 6.78226 8.38364H8.62796ZM9.78519 7.81967C9.78519 7.0433 9.939 6.34506 10.2466 5.72495C10.5542 5.09995 10.9864 4.62143 11.543 4.2894C12.0996 3.95248 12.7393 3.78403 13.4619 3.78403C14.5313 3.78403 15.398 4.12827 16.062 4.81674C16.731 5.50522 17.0923 6.4183 17.146 7.556L17.1534 7.97348C17.1534 8.75473 17.002 9.45297 16.6992 10.0682C16.4014 10.6834 15.9717 11.1595 15.4102 11.4964C14.8535 11.8333 14.209 12.0018 13.4766 12.0018C12.3584 12.0018 11.4624 11.6307 10.7886 10.8885C10.1197 10.1414 9.78519 9.1478 9.78519 7.90756V7.81967ZM11.565 7.97348C11.565 8.78891 11.7334 9.42856 12.0703 9.89243C12.4073 10.3514 12.876 10.5809 13.4766 10.5809C14.0772 10.5809 14.5435 10.3465 14.8755 9.87778C15.2124 9.40903 15.3809 8.72299 15.3809 7.81967C15.3809 7.01889 15.2076 6.38412 14.8609 5.91537C14.5191 5.44662 14.0528 5.21225 13.4619 5.21225C12.8809 5.21225 12.4195 5.44418 12.0777 5.90805C11.7359 6.36703 11.565 7.05551 11.565 7.97348ZM20.3321 3.93051L20.3833 4.75815C20.94 4.10873 21.7017 3.78403 22.6685 3.78403C23.7281 3.78403 24.4532 4.1893 24.8438 4.99985C25.42 4.1893 26.2305 3.78403 27.2754 3.78403C28.1494 3.78403 28.7989 4.02573 29.2237 4.50912C29.6534 4.99252 29.8731 5.70541 29.8828 6.6478V11.8553H28.1031V6.69907C28.1031 6.19614 27.9932 5.82748 27.7735 5.59311C27.5537 5.35873 27.19 5.24155 26.6822 5.24155C26.2769 5.24155 25.9449 5.35141 25.6861 5.57114C25.4322 5.78598 25.2539 6.06918 25.1514 6.42075L25.1587 11.8553H23.3789V6.64047C23.3545 5.70786 22.8784 5.24155 21.9507 5.24155C21.2378 5.24155 20.7325 5.53207 20.4346 6.11313V11.8553H18.6548V3.93051H20.3321ZM35.2002 12.0018C34.0723 12.0018 33.1568 11.6478 32.4536 10.9398C31.7554 10.2269 31.4063 9.27963 31.4063 8.09799V7.87827C31.4063 7.08725 31.5576 6.38168 31.8604 5.76157C32.168 5.13657 32.5977 4.65073 33.1494 4.30405C33.7012 3.95737 34.3164 3.78403 34.9951 3.78403C36.0742 3.78403 36.9068 4.12827 37.4927 4.81674C38.0835 5.50522 38.3789 6.47934 38.3789 7.73911V8.45688H33.2007C33.2544 9.11118 33.4717 9.62875 33.8526 10.0096C34.2383 10.3905 34.7217 10.5809 35.3028 10.5809C36.1182 10.5809 36.7823 10.2513 37.295 9.59213L38.2544 10.5077C37.937 10.9813 37.5122 11.3499 36.98 11.6136C36.4527 11.8724 35.8594 12.0018 35.2002 12.0018ZM34.9878 5.21225C34.4995 5.21225 34.104 5.38315 33.8013 5.72495C33.5034 6.06674 33.313 6.54282 33.23 7.15317H36.6211V7.02133C36.5821 6.42563 36.4234 5.97641 36.1451 5.67368C35.8667 5.36606 35.481 5.21225 34.9878 5.21225ZM39.4336 7.83432C39.4336 6.61362 39.7168 5.63461 40.2832 4.89731C40.8496 4.15512 41.6089 3.78403 42.5611 3.78403C43.4009 3.78403 44.0796 4.077 44.5972 4.66293V0.605316H46.377V11.8553H44.7657L44.6778 11.035C44.1455 11.6795 43.4351 12.0018 42.5464 12.0018C41.6187 12.0018 40.8667 11.6283 40.2906 10.8812C39.7193 10.1341 39.4336 9.1185 39.4336 7.83432ZM41.2134 7.98813C41.2134 8.79379 41.3672 9.42368 41.6748 9.87778C41.9873 10.327 42.4292 10.5516 43.0005 10.5516C43.7281 10.5516 44.2603 10.2269 44.5972 9.57748V6.1937C44.2701 5.55893 43.7427 5.24155 43.0152 5.24155C42.439 5.24155 41.9947 5.47104 41.6822 5.93002C41.3697 6.38412 41.2134 7.07016 41.2134 7.98813ZM51.7237 12.0018C50.5957 12.0018 49.6802 11.6478 48.9771 10.9398C48.2788 10.2269 47.9297 9.27963 47.9297 8.09799V7.87827C47.9297 7.08725 48.0811 6.38168 48.3838 5.76157C48.6914 5.13657 49.1211 4.65073 49.6729 4.30405C50.2246 3.95737 50.8399 3.78403 51.5186 3.78403C52.5977 3.78403 53.4302 4.12827 54.0161 4.81674C54.607 5.50522 54.9024 6.47934 54.9024 7.73911V8.45688H49.7242C49.7779 9.11118 49.9951 9.62875 50.376 10.0096C50.7617 10.3905 51.2451 10.5809 51.8262 10.5809C52.6416 10.5809 53.3057 10.2513 53.8184 9.59213L54.7779 10.5077C54.4605 10.9813 54.0357 11.3499 53.5034 11.6136C52.9761 11.8724 52.3828 12.0018 51.7237 12.0018ZM51.5113 5.21225C51.023 5.21225 50.6275 5.38315 50.3247 5.72495C50.0269 6.06674 49.8365 6.54282 49.7534 7.15317H53.1446V7.02133C53.1055 6.42563 52.9468 5.97641 52.6685 5.67368C52.3902 5.36606 52.0044 5.21225 51.5113 5.21225ZM60.4395 5.55649C60.2051 5.51743 59.9634 5.49789 59.7144 5.49789C58.899 5.49789 58.3496 5.81039 58.0664 6.43539V11.8553H56.2867V3.93051H57.9859L58.0298 4.81674C58.4595 4.12827 59.0552 3.78403 59.8169 3.78403C60.0708 3.78403 60.2808 3.81821 60.4468 3.88657L60.4395 5.55649ZM60.9668 7.81967C60.9668 7.0433 61.1206 6.34506 61.4283 5.72495C61.7359 5.09995 62.168 4.62143 62.7246 4.2894C63.2813 3.95248 63.9209 3.78403 64.6436 3.78403C65.7129 3.78403 66.5796 4.12827 67.2437 4.81674C67.9126 5.50522 68.274 6.4183 68.3277 7.556L68.335 7.97348C68.335 8.75473 68.1836 9.45297 67.8809 10.0682C67.583 10.6834 67.1534 11.1595 66.5918 11.4964C66.0352 11.8333 65.3907 12.0018 64.6582 12.0018C63.5401 12.0018 62.6441 11.6307 61.9702 10.8885C61.3013 10.1414 60.9668 9.1478 60.9668 7.90756V7.81967ZM62.7466 7.97348C62.7466 8.78891 62.9151 9.42856 63.252 9.89243C63.5889 10.3514 64.0576 10.5809 64.6582 10.5809C65.2588 10.5809 65.7251 10.3465 66.0572 9.87778C66.3941 9.40903 66.5625 8.72299 66.5625 7.81967C66.5625 7.01889 66.3892 6.38412 66.0425 5.91537C65.7007 5.44662 65.2344 5.21225 64.6436 5.21225C64.0625 5.21225 63.6011 5.44418 63.2593 5.90805C62.9175 6.36703 62.7466 7.05551 62.7466 7.97348ZM80.5152 7.97348C80.5152 9.19907 80.2368 10.1781 79.6802 10.9105C79.1236 11.638 78.3765 12.0018 77.439 12.0018C76.5699 12.0018 75.8741 11.7162 75.3516 11.1449V14.9022H73.5718V3.93051H75.2124L75.2857 4.73618C75.8081 4.10141 76.5186 3.78403 77.417 3.78403C78.3838 3.78403 79.1407 4.14536 79.6875 4.86801C80.2393 5.58578 80.5152 6.58432 80.5152 7.86362V7.97348ZM78.7427 7.81967C78.7427 7.02866 78.584 6.40121 78.2666 5.93735C77.9541 5.47348 77.5049 5.24155 76.919 5.24155C76.1914 5.24155 75.669 5.54184 75.3516 6.14243V9.65805C75.6739 10.2733 76.2012 10.5809 76.9336 10.5809C77.5 10.5809 77.9419 10.3539 78.2593 9.89975C78.5816 9.44077 78.7427 8.74741 78.7427 7.81967ZM86.7627 11.8553C86.6846 11.7039 86.6162 11.4574 86.5576 11.1156C85.9912 11.7064 85.2979 12.0018 84.4776 12.0018C83.6817 12.0018 83.0323 11.7747 82.5293 11.3206C82.0264 10.8665 81.7749 10.305 81.7749 9.63608C81.7749 8.79135 82.0874 8.14438 82.7124 7.69516C83.3423 7.24106 84.2408 7.01401 85.4077 7.01401H86.4991V6.49399C86.4991 6.08383 86.3843 5.75668 86.1548 5.51254C85.9253 5.26352 85.5762 5.13901 85.1075 5.13901C84.7022 5.13901 84.3701 5.24155 84.1114 5.44662C83.8526 5.64682 83.7232 5.90317 83.7232 6.21567H81.9434C81.9434 5.7811 82.0874 5.37582 82.3755 4.99985C82.6636 4.61899 83.0542 4.32114 83.5474 4.10629C84.0454 3.89145 84.5996 3.78403 85.21 3.78403C86.1377 3.78403 86.8775 4.0184 87.4292 4.48715C87.981 4.95102 88.2642 5.60532 88.2788 6.45004V10.0243C88.2788 10.7372 88.3789 11.306 88.5791 11.7308V11.8553H86.7627ZM84.8072 10.5736C85.1587 10.5736 85.4883 10.4881 85.7959 10.3172C86.1084 10.1463 86.3428 9.91684 86.4991 9.62875V8.13461H85.5396C84.8804 8.13461 84.3848 8.24936 84.0528 8.47885C83.7207 8.70834 83.5547 9.03305 83.5547 9.45297C83.5547 9.79477 83.667 10.0682 83.8916 10.2733C84.1211 10.4735 84.4263 10.5736 84.8072 10.5736ZM94.292 5.55649C94.0576 5.51743 93.8159 5.49789 93.5669 5.49789C92.7515 5.49789 92.2022 5.81039 91.919 6.43539V11.8553H90.1392V3.93051H91.8384L91.8824 4.81674C92.312 4.12827 92.9077 3.78403 93.6695 3.78403C93.9234 3.78403 94.1333 3.81821 94.2993 3.88657L94.292 5.55649ZM99.9317 11.8553C99.8535 11.7039 99.7852 11.4574 99.7266 11.1156C99.1602 11.7064 98.4668 12.0018 97.6465 12.0018C96.8506 12.0018 96.2012 11.7747 95.6983 11.3206C95.1953 10.8665 94.9439 10.305 94.9439 9.63608C94.9439 8.79135 95.2564 8.14438 95.8814 7.69516C96.5113 7.24106 97.4097 7.01401 98.5767 7.01401H99.668V6.49399C99.668 6.08383 99.5533 5.75668 99.3238 5.51254C99.0943 5.26352 98.7451 5.13901 98.2764 5.13901C97.8711 5.13901 97.5391 5.24155 97.2803 5.44662C97.0215 5.64682 96.8921 5.90317 96.8921 6.21567H95.1123C95.1123 5.7811 95.2564 5.37582 95.5445 4.99985C95.8326 4.61899 96.2232 4.32114 96.7163 4.10629C97.2144 3.89145 97.7686 3.78403 98.3789 3.78403C99.3067 3.78403 100.046 4.0184 100.598 4.48715C101.15 4.95102 101.433 5.60532 101.448 6.45004V10.0243C101.448 10.7372 101.548 11.306 101.748 11.7308V11.8553H99.9317ZM97.9761 10.5736C98.3277 10.5736 98.6573 10.4881 98.9649 10.3172C99.2774 10.1463 99.5117 9.91684 99.668 9.62875V8.13461H98.7085C98.0493 8.13461 97.5537 8.24936 97.2217 8.47885C96.8897 8.70834 96.7237 9.03305 96.7237 9.45297C96.7237 9.79477 96.836 10.0682 97.0606 10.2733C97.2901 10.4735 97.5952 10.5736 97.9761 10.5736ZM113.987 7.97348C113.987 9.19907 113.709 10.1781 113.152 10.9105C112.595 11.638 111.848 12.0018 110.911 12.0018C110.042 12.0018 109.346 11.7162 108.823 11.1449V14.9022H107.043V3.93051H108.684L108.757 4.73618C109.28 4.10141 109.99 3.78403 110.889 3.78403C111.855 3.78403 112.612 4.14536 113.159 4.86801C113.711 5.58578 113.987 6.58432 113.987 7.86362V7.97348ZM112.214 7.81967C112.214 7.02866 112.056 6.40121 111.738 5.93735C111.426 5.47348 110.977 5.24155 110.391 5.24155C109.663 5.24155 109.141 5.54184 108.823 6.14243V9.65805C109.146 10.2733 109.673 10.5809 110.405 10.5809C110.972 10.5809 111.414 10.3539 111.731 9.89975C112.053 9.44077 112.214 8.74741 112.214 7.81967ZM118.989 12.0018C117.861 12.0018 116.946 11.6478 116.243 10.9398C115.544 10.2269 115.195 9.27963 115.195 8.09799V7.87827C115.195 7.08725 115.347 6.38168 115.649 5.76157C115.957 5.13657 116.387 4.65073 116.939 4.30405C117.49 3.95737 118.105 3.78403 118.784 3.78403C119.863 3.78403 120.696 4.12827 121.282 4.81674C121.873 5.50522 122.168 6.47934 122.168 7.73911V8.45688H116.99C117.043 9.11118 117.261 9.62875 117.642 10.0096C118.027 10.3905 118.511 10.5809 119.092 10.5809C119.907 10.5809 120.571 10.2513 121.084 9.59213L122.043 10.5077C121.726 10.9813 121.301 11.3499 120.769 11.6136C120.242 11.8724 119.648 12.0018 118.989 12.0018ZM118.777 5.21225C118.289 5.21225 117.893 5.38315 117.59 5.72495C117.293 6.06674 117.102 6.54282 117.019 7.15317H120.41V7.02133C120.371 6.42563 120.212 5.97641 119.934 5.67368C119.656 5.36606 119.27 5.21225 118.777 5.21225ZM127.705 5.55649C127.471 5.51743 127.229 5.49789 126.98 5.49789C126.165 5.49789 125.615 5.81039 125.332 6.43539V11.8553H123.552V3.93051H125.251L125.295 4.81674C125.725 4.12827 126.321 3.78403 127.083 3.78403C127.336 3.78403 127.546 3.81821 127.712 3.88657L127.705 5.55649ZM132.979 5.55649C132.744 5.51743 132.502 5.49789 132.253 5.49789C131.438 5.49789 130.889 5.81039 130.605 6.43539V11.8553H128.826V3.93051H130.525L130.569 4.81674C130.999 4.12827 131.594 3.78403 132.356 3.78403C132.61 3.78403 132.82 3.81821 132.986 3.88657L132.979 5.55649ZM133.506 7.81967C133.506 7.0433 133.66 6.34506 133.967 5.72495C134.275 5.09995 134.707 4.62143 135.264 4.2894C135.82 3.95248 136.46 3.78403 137.183 3.78403C138.252 3.78403 139.119 4.12827 139.783 4.81674C140.452 5.50522 140.813 6.4183 140.867 7.556L140.874 7.97348C140.874 8.75473 140.723 9.45297 140.42 10.0682C140.122 10.6834 139.692 11.1595 139.131 11.4964C138.574 11.8333 137.93 12.0018 137.197 12.0018C136.079 12.0018 135.183 11.6307 134.509 10.8885C133.84 10.1414 133.506 9.1478 133.506 7.90756V7.81967ZM135.286 7.97348C135.286 8.78891 135.454 9.42856 135.791 9.89243C136.128 10.3514 136.597 10.5809 137.197 10.5809C137.798 10.5809 138.264 10.3465 138.596 9.87778C138.933 9.40903 139.102 8.72299 139.102 7.81967C139.102 7.01889 138.928 6.38412 138.582 5.91537C138.24 5.44662 137.773 5.21225 137.183 5.21225C136.602 5.21225 136.14 5.44418 135.798 5.90805C135.457 6.36703 135.286 7.05551 135.286 7.97348Z" fill="#3C2313"/>
</svg>
