<svg width="77" height="13" viewBox="0 0 77 13" fill="none" xmlns="http://www.w3.org/2000/svg">
<path d="M9.08203 8.61621C8.9502 9.74414 8.53271 10.6157 7.82959 11.231C7.13135 11.8413 6.20117 12.1465 5.03906 12.1465C3.7793 12.1465 2.76855 11.6948 2.00684 10.7915C1.25 9.88818 0.871582 8.67969 0.871582 7.16602V6.14062C0.871582 5.14941 1.04736 4.27783 1.39893 3.52588C1.75537 2.77393 2.2583 2.19775 2.90771 1.79736C3.55713 1.39209 4.30908 1.18945 5.16357 1.18945C6.29639 1.18945 7.20459 1.50684 7.88818 2.1416C8.57178 2.77148 8.96973 3.64551 9.08203 4.76367H7.66846C7.54639 3.91406 7.28027 3.29883 6.87012 2.91797C6.46484 2.53711 5.896 2.34668 5.16357 2.34668C4.26514 2.34668 3.55957 2.67871 3.04688 3.34277C2.53906 4.00684 2.28516 4.95166 2.28516 6.17725V7.20996C2.28516 8.36719 2.52686 9.2876 3.01025 9.97119C3.49365 10.6548 4.16992 10.9966 5.03906 10.9966C5.82031 10.9966 6.41846 10.8208 6.8335 10.4692C7.25342 10.1128 7.53174 9.49512 7.66846 8.61621H9.08203ZM10.437 7.96436C10.437 7.18799 10.5884 6.48975 10.8911 5.86963C11.1987 5.24951 11.6235 4.771 12.1655 4.43408C12.7124 4.09717 13.335 3.92871 14.0332 3.92871C15.1123 3.92871 15.9839 4.30225 16.6479 5.04932C17.3169 5.79639 17.6514 6.79004 17.6514 8.03027V8.12549C17.6514 8.89697 17.5024 9.59033 17.2046 10.2056C16.9116 10.8159 16.4893 11.292 15.9375 11.6338C15.3906 11.9756 14.7607 12.1465 14.0479 12.1465C12.9736 12.1465 12.1021 11.7729 11.4331 11.0259C10.769 10.2788 10.437 9.29004 10.437 8.05957V7.96436ZM11.7993 8.12549C11.7993 9.00439 12.002 9.70996 12.4072 10.2422C12.8174 10.7744 13.3643 11.0405 14.0479 11.0405C14.7363 11.0405 15.2832 10.772 15.6885 10.2349C16.0938 9.69287 16.2964 8.93604 16.2964 7.96436C16.2964 7.09521 16.0889 6.39209 15.6738 5.85498C15.2637 5.31299 14.7168 5.04199 14.0332 5.04199C13.3643 5.04199 12.8247 5.30811 12.4146 5.84033C12.0044 6.37256 11.7993 7.13428 11.7993 8.12549ZM20.625 4.0752L20.6616 4.9541C21.2427 4.27051 22.0264 3.92871 23.0127 3.92871C24.1211 3.92871 24.8755 4.35352 25.2759 5.20312C25.5396 4.82227 25.8813 4.51465 26.3013 4.28027C26.7261 4.0459 27.2266 3.92871 27.8027 3.92871C29.541 3.92871 30.4248 4.84912 30.4541 6.68994V12H29.0991V6.77051C29.0991 6.2041 28.9697 5.78174 28.7109 5.50342C28.4521 5.22021 28.0176 5.07861 27.4072 5.07861C26.9043 5.07861 26.4868 5.22998 26.1548 5.53271C25.8228 5.83057 25.6299 6.2334 25.5762 6.74121V12H24.2139V6.80713C24.2139 5.65479 23.6499 5.07861 22.522 5.07861C21.6333 5.07861 21.0254 5.45703 20.6982 6.21387V12H19.3433V4.0752H20.625ZM35.7935 12.1465C34.7192 12.1465 33.8452 11.7949 33.1714 11.0918C32.4976 10.3838 32.1606 9.43896 32.1606 8.25732V8.0083C32.1606 7.22217 32.3096 6.52148 32.6074 5.90625C32.9102 5.28613 33.3301 4.80273 33.8672 4.45605C34.4092 4.10449 34.9951 3.92871 35.625 3.92871C36.6553 3.92871 37.4561 4.26807 38.0273 4.94678C38.5986 5.62549 38.8843 6.59717 38.8843 7.86182V8.42578H33.5156C33.5352 9.20703 33.7622 9.83936 34.1968 10.3228C34.6362 10.8013 35.1929 11.0405 35.8667 11.0405C36.3452 11.0405 36.7505 10.9429 37.0825 10.7476C37.4146 10.5522 37.7051 10.2935 37.9541 9.97119L38.7817 10.6157C38.1177 11.6362 37.1216 12.1465 35.7935 12.1465ZM35.625 5.04199C35.0781 5.04199 34.6191 5.24219 34.248 5.64258C33.877 6.03809 33.6475 6.59473 33.5596 7.3125H37.5293V7.20996C37.4902 6.52148 37.3047 5.98926 36.9727 5.61328C36.6406 5.23242 36.1914 5.04199 35.625 5.04199ZM40.1294 7.97168C40.1294 6.75586 40.4175 5.7793 40.9937 5.04199C41.5698 4.2998 42.3242 3.92871 43.2568 3.92871C44.1846 3.92871 44.9194 4.24609 45.4614 4.88086V0.75H46.8164V12H45.5713L45.5054 11.1504C44.9634 11.8145 44.209 12.1465 43.2422 12.1465C42.3242 12.1465 41.5747 11.7705 40.9937 11.0186C40.4175 10.2666 40.1294 9.28516 40.1294 8.07422V7.97168ZM41.4844 8.12549C41.4844 9.02393 41.6699 9.72705 42.041 10.2349C42.4121 10.7427 42.9248 10.9966 43.5791 10.9966C44.4385 10.9966 45.0659 10.6108 45.4614 9.83936V6.19922C45.0562 5.45215 44.4336 5.07861 43.5938 5.07861C42.9297 5.07861 42.4121 5.33496 42.041 5.84766C41.6699 6.36035 41.4844 7.11963 41.4844 8.12549ZM52.2144 12.1465C51.1401 12.1465 50.2661 11.7949 49.5923 11.0918C48.9185 10.3838 48.5815 9.43896 48.5815 8.25732V8.0083C48.5815 7.22217 48.7305 6.52148 49.0283 5.90625C49.3311 5.28613 49.751 4.80273 50.2881 4.45605C50.8301 4.10449 51.416 3.92871 52.0459 3.92871C53.0762 3.92871 53.877 4.26807 54.4482 4.94678C55.0195 5.62549 55.3052 6.59717 55.3052 7.86182V8.42578H49.9365C49.9561 9.20703 50.1831 9.83936 50.6177 10.3228C51.0571 10.8013 51.6138 11.0405 52.2876 11.0405C52.7661 11.0405 53.1714 10.9429 53.5034 10.7476C53.8354 10.5522 54.126 10.2935 54.375 9.97119L55.2026 10.6157C54.5386 11.6362 53.5425 12.1465 52.2144 12.1465ZM52.0459 5.04199C51.499 5.04199 51.04 5.24219 50.6689 5.64258C50.2979 6.03809 50.0684 6.59473 49.9805 7.3125H53.9502V7.20996C53.9111 6.52148 53.7256 5.98926 53.3936 5.61328C53.0615 5.23242 52.6123 5.04199 52.0459 5.04199ZM60.7104 5.29102C60.5054 5.25684 60.2832 5.23975 60.0439 5.23975C59.1553 5.23975 58.5522 5.61816 58.2349 6.375V12H56.8799V4.0752H58.1982L58.2202 4.99072C58.6646 4.28271 59.2944 3.92871 60.1099 3.92871C60.3735 3.92871 60.5737 3.96289 60.7104 4.03125V5.29102ZM61.4575 7.96436C61.4575 7.18799 61.6089 6.48975 61.9116 5.86963C62.2192 5.24951 62.644 4.771 63.186 4.43408C63.7329 4.09717 64.3555 3.92871 65.0537 3.92871C66.1328 3.92871 67.0044 4.30225 67.6685 5.04932C68.3374 5.79639 68.6719 6.79004 68.6719 8.03027V8.12549C68.6719 8.89697 68.5229 9.59033 68.2251 10.2056C67.9321 10.8159 67.5098 11.292 66.958 11.6338C66.4111 11.9756 65.7812 12.1465 65.0684 12.1465C63.9941 12.1465 63.1226 11.7729 62.4536 11.0259C61.7896 10.2788 61.4575 9.29004 61.4575 8.05957V7.96436ZM62.8198 8.12549C62.8198 9.00439 63.0225 9.70996 63.4277 10.2422C63.8379 10.7744 64.3848 11.0405 65.0684 11.0405C65.7568 11.0405 66.3037 10.772 66.709 10.2349C67.1143 9.69287 67.3169 8.93604 67.3169 7.96436C67.3169 7.09521 67.1094 6.39209 66.6943 5.85498C66.2842 5.31299 65.7373 5.04199 65.0537 5.04199C64.3848 5.04199 63.8452 5.30811 63.4351 5.84033C63.0249 6.37256 62.8198 7.13428 62.8198 8.12549ZM74.9854 9.89795C74.9854 9.53174 74.8462 9.24854 74.5679 9.04834C74.2944 8.84326 73.8135 8.66748 73.125 8.521C72.4414 8.37451 71.897 8.19873 71.4917 7.99365C71.0913 7.78857 70.7935 7.54443 70.5981 7.26123C70.4077 6.97803 70.3125 6.64111 70.3125 6.25049C70.3125 5.60107 70.5859 5.05176 71.1328 4.60254C71.6846 4.15332 72.3877 3.92871 73.2422 3.92871C74.1406 3.92871 74.8682 4.16064 75.4248 4.62451C75.9863 5.08838 76.2671 5.68164 76.2671 6.4043H74.9048C74.9048 6.0332 74.7461 5.71338 74.4287 5.44482C74.1162 5.17627 73.7207 5.04199 73.2422 5.04199C72.749 5.04199 72.3633 5.14941 72.085 5.36426C71.8066 5.5791 71.6675 5.85986 71.6675 6.20654C71.6675 6.53369 71.7969 6.78027 72.0557 6.94629C72.3145 7.1123 72.7808 7.271 73.4546 7.42236C74.1333 7.57373 74.6826 7.75439 75.1025 7.96436C75.5225 8.17432 75.8325 8.42822 76.0327 8.72607C76.2378 9.01904 76.3403 9.37793 76.3403 9.80273C76.3403 10.5107 76.0571 11.0796 75.4907 11.5093C74.9243 11.9341 74.1895 12.1465 73.2861 12.1465C72.6514 12.1465 72.0898 12.0342 71.6016 11.8096C71.1133 11.585 70.73 11.2725 70.4517 10.8721C70.1782 10.4668 70.0415 10.0298 70.0415 9.56104H71.3965C71.4209 10.0151 71.6016 10.3765 71.9385 10.645C72.2803 10.9087 72.7295 11.0405 73.2861 11.0405C73.7988 11.0405 74.209 10.938 74.5166 10.7329C74.8291 10.5229 74.9854 10.2446 74.9854 9.89795Z" fill="#666666"/>
</svg>
