<svg width="94" height="13" viewBox="0 0 94 13" fill="none" xmlns="http://www.w3.org/2000/svg">
<path d="M8.96875 8.39062C8.82812 9.59375 8.38281 10.5234 7.63281 11.1797C6.88802 11.8307 5.89583 12.1562 4.65625 12.1562C3.3125 12.1562 2.23438 11.6745 1.42188 10.7109C0.614583 9.7474 0.210938 8.45833 0.210938 6.84375V5.75C0.210938 4.69271 0.398438 3.76302 0.773438 2.96094C1.15365 2.15885 1.6901 1.54427 2.38281 1.11719C3.07552 0.684896 3.8776 0.46875 4.78906 0.46875C5.9974 0.46875 6.96615 0.807292 7.69531 1.48438C8.42448 2.15625 8.84896 3.08854 8.96875 4.28125H7.46094C7.33073 3.375 7.04688 2.71875 6.60938 2.3125C6.17708 1.90625 5.57031 1.70312 4.78906 1.70312C3.83073 1.70312 3.07812 2.05729 2.53125 2.76562C1.98958 3.47396 1.71875 4.48177 1.71875 5.78906V6.89062C1.71875 8.125 1.97656 9.10677 2.49219 9.83594C3.00781 10.5651 3.72917 10.9297 4.65625 10.9297C5.48958 10.9297 6.1276 10.7422 6.57031 10.3672C7.01823 9.98698 7.3151 9.32812 7.46094 8.39062H8.96875ZM19.7734 6.67969C19.7734 7.79427 19.5859 8.76823 19.2109 9.60156C18.8359 10.4297 18.3047 11.0625 17.6172 11.5C16.9297 11.9375 16.1276 12.1562 15.2109 12.1562C14.3151 12.1562 13.5208 11.9375 12.8281 11.5C12.1354 11.0573 11.5964 10.4297 11.2109 9.61719C10.8307 8.79948 10.6354 7.85417 10.625 6.78125V5.96094C10.625 4.86719 10.8151 3.90104 11.1953 3.0625C11.5755 2.22396 12.112 1.58333 12.8047 1.14062C13.5026 0.692708 14.2995 0.46875 15.1953 0.46875C16.1068 0.46875 16.9089 0.690104 17.6016 1.13281C18.2995 1.57031 18.8359 2.20833 19.2109 3.04688C19.5859 3.88021 19.7734 4.85156 19.7734 5.96094V6.67969ZM18.2812 5.94531C18.2812 4.59635 18.0104 3.5625 17.4688 2.84375C16.9271 2.11979 16.1693 1.75781 15.1953 1.75781C14.2474 1.75781 13.5 2.11979 12.9531 2.84375C12.4115 3.5625 12.1328 4.5625 12.1172 5.84375V6.67969C12.1172 7.98698 12.3906 9.01562 12.9375 9.76562C13.4896 10.5104 14.2474 10.8828 15.2109 10.8828C16.1797 10.8828 16.9297 10.5312 17.4609 9.82812C17.9922 9.11979 18.2656 8.10677 18.2812 6.78906V5.94531ZM23.9609 0.625L27.6797 9.90625L31.3984 0.625H33.3438V12H31.8438V7.57031L31.9844 2.78906L28.25 12H27.1016L23.375 2.8125L23.5234 7.57031V12H22.0234V0.625H23.9609ZM42.4219 6.74219H37.4922V10.7734H43.2188V12H35.9922V0.625H43.1406V1.85938H37.4922V5.51562H42.4219V6.74219ZM45.0859 12V0.625H48.2969C49.2865 0.625 50.1615 0.84375 50.9219 1.28125C51.6823 1.71875 52.2682 2.34115 52.6797 3.14844C53.0964 3.95573 53.3073 4.88281 53.3125 5.92969V6.65625C53.3125 7.72917 53.1042 8.66927 52.6875 9.47656C52.276 10.2839 51.6849 10.9036 50.9141 11.3359C50.1484 11.7682 49.2552 11.9896 48.2344 12H45.0859ZM46.5859 1.85938V10.7734H48.1641C49.3203 10.7734 50.2188 10.4141 50.8594 9.69531C51.5052 8.97656 51.8281 7.95312 51.8281 6.625V5.96094C51.8281 4.66927 51.5234 3.66667 50.9141 2.95312C50.3099 2.23438 49.4505 1.86979 48.3359 1.85938H46.5859ZM62.0156 6.74219H57.0859V10.7734H62.8125V12H55.5859V0.625H62.7344V1.85938H57.0859V5.51562H62.0156V6.74219ZM68.8516 7.39844H66.1797V12H64.6719V0.625H68.4375C69.7188 0.625 70.7031 0.916667 71.3906 1.5C72.0833 2.08333 72.4297 2.93229 72.4297 4.04688C72.4297 4.75521 72.237 5.3724 71.8516 5.89844C71.4714 6.42448 70.9401 6.81771 70.2578 7.07812L72.9297 11.9062V12H71.3203L68.8516 7.39844ZM66.1797 6.17188H68.4844C69.2292 6.17188 69.8203 5.97917 70.2578 5.59375C70.7005 5.20833 70.9219 4.69271 70.9219 4.04688C70.9219 3.34375 70.7109 2.80469 70.2891 2.42969C69.8724 2.05469 69.2682 1.86458 68.4766 1.85938H66.1797V6.17188ZM83.2891 6.67969C83.2891 7.79427 83.1016 8.76823 82.7266 9.60156C82.3516 10.4297 81.8203 11.0625 81.1328 11.5C80.4453 11.9375 79.6432 12.1562 78.7266 12.1562C77.8307 12.1562 77.0365 11.9375 76.3438 11.5C75.651 11.0573 75.112 10.4297 74.7266 9.61719C74.3464 8.79948 74.151 7.85417 74.1406 6.78125V5.96094C74.1406 4.86719 74.3307 3.90104 74.7109 3.0625C75.0911 2.22396 75.6276 1.58333 76.3203 1.14062C77.0182 0.692708 77.8151 0.46875 78.7109 0.46875C79.6224 0.46875 80.4245 0.690104 81.1172 1.13281C81.8151 1.57031 82.3516 2.20833 82.7266 3.04688C83.1016 3.88021 83.2891 4.85156 83.2891 5.96094V6.67969ZM81.7969 5.94531C81.7969 4.59635 81.526 3.5625 80.9844 2.84375C80.4427 2.11979 79.6849 1.75781 78.7109 1.75781C77.763 1.75781 77.0156 2.11979 76.4688 2.84375C75.9271 3.5625 75.6484 4.5625 75.6328 5.84375V6.67969C75.6328 7.98698 75.9062 9.01562 76.4531 9.76562C77.0052 10.5104 77.763 10.8828 78.7266 10.8828C79.6953 10.8828 80.4453 10.5312 80.9766 9.82812C81.5078 9.11979 81.7812 8.10677 81.7969 6.78906V5.94531ZM88.8906 6.92969C87.6042 6.5599 86.6667 6.10677 86.0781 5.57031C85.4948 5.02865 85.2031 4.36198 85.2031 3.57031C85.2031 2.67448 85.5599 1.9349 86.2734 1.35156C86.9922 0.763021 87.9245 0.46875 89.0703 0.46875C89.8516 0.46875 90.5469 0.619792 91.1562 0.921875C91.7708 1.22396 92.2448 1.64062 92.5781 2.17188C92.9167 2.70312 93.0859 3.28385 93.0859 3.91406H91.5781C91.5781 3.22656 91.3594 2.6875 90.9219 2.29688C90.4844 1.90104 89.8672 1.70312 89.0703 1.70312C88.3307 1.70312 87.7526 1.86719 87.3359 2.19531C86.9245 2.51823 86.7188 2.96875 86.7188 3.54688C86.7188 4.01042 86.9141 4.40365 87.3047 4.72656C87.7005 5.04427 88.3698 5.33594 89.3125 5.60156C90.2604 5.86719 91 6.16146 91.5312 6.48438C92.0677 6.80208 92.4635 7.17448 92.7188 7.60156C92.9792 8.02865 93.1094 8.53125 93.1094 9.10938C93.1094 10.0312 92.75 10.7708 92.0312 11.3281C91.3125 11.8802 90.3516 12.1562 89.1484 12.1562C88.3672 12.1562 87.638 12.0078 86.9609 11.7109C86.2839 11.4089 85.7604 10.9974 85.3906 10.4766C85.026 9.95573 84.8438 9.36458 84.8438 8.70312H86.3516C86.3516 9.39062 86.6042 9.9349 87.1094 10.3359C87.6198 10.7318 88.2995 10.9297 89.1484 10.9297C89.9401 10.9297 90.5469 10.7682 90.9688 10.4453C91.3906 10.1224 91.6016 9.68229 91.6016 9.125C91.6016 8.56771 91.4062 8.13802 91.0156 7.83594C90.625 7.52865 89.9167 7.22656 88.8906 6.92969Z" fill="white"/>
</svg>
