<svg width="51" height="13" viewBox="0 0 51 13" fill="none" xmlns="http://www.w3.org/2000/svg">
<path d="M9.08203 8.61621C8.9502 9.74414 8.53271 10.6157 7.82959 11.231C7.13135 11.8413 6.20117 12.1465 5.03906 12.1465C3.7793 12.1465 2.76855 11.6948 2.00684 10.7915C1.25 9.88818 0.871582 8.67969 0.871582 7.16602V6.14062C0.871582 5.14941 1.04736 4.27783 1.39893 3.52588C1.75537 2.77393 2.2583 2.19775 2.90771 1.79736C3.55713 1.39209 4.30908 1.18945 5.16357 1.18945C6.29639 1.18945 7.20459 1.50684 7.88818 2.1416C8.57178 2.77148 8.96973 3.64551 9.08203 4.76367H7.66846C7.54639 3.91406 7.28027 3.29883 6.87012 2.91797C6.46484 2.53711 5.896 2.34668 5.16357 2.34668C4.26514 2.34668 3.55957 2.67871 3.04688 3.34277C2.53906 4.00684 2.28516 4.95166 2.28516 6.17725V7.20996C2.28516 8.36719 2.52686 9.2876 3.01025 9.97119C3.49365 10.6548 4.16992 10.9966 5.03906 10.9966C5.82031 10.9966 6.41846 10.8208 6.8335 10.4692C7.25342 10.1128 7.53174 9.49512 7.66846 8.61621H9.08203ZM10.437 7.96436C10.437 7.18799 10.5884 6.48975 10.8911 5.86963C11.1987 5.24951 11.6235 4.771 12.1655 4.43408C12.7124 4.09717 13.335 3.92871 14.0332 3.92871C15.1123 3.92871 15.9839 4.30225 16.6479 5.04932C17.3169 5.79639 17.6514 6.79004 17.6514 8.03027V8.12549C17.6514 8.89697 17.5024 9.59033 17.2046 10.2056C16.9116 10.8159 16.4893 11.292 15.9375 11.6338C15.3906 11.9756 14.7607 12.1465 14.0479 12.1465C12.9736 12.1465 12.1021 11.7729 11.4331 11.0259C10.769 10.2788 10.437 9.29004 10.437 8.05957V7.96436ZM11.7993 8.12549C11.7993 9.00439 12.002 9.70996 12.4072 10.2422C12.8174 10.7744 13.3643 11.0405 14.0479 11.0405C14.7363 11.0405 15.2832 10.772 15.6885 10.2349C16.0938 9.69287 16.2964 8.93604 16.2964 7.96436C16.2964 7.09521 16.0889 6.39209 15.6738 5.85498C15.2637 5.31299 14.7168 5.04199 14.0332 5.04199C13.3643 5.04199 12.8247 5.30811 12.4146 5.84033C12.0044 6.37256 11.7993 7.13428 11.7993 8.12549ZM20.625 4.0752L20.6616 4.9541C21.2427 4.27051 22.0264 3.92871 23.0127 3.92871C24.1211 3.92871 24.8755 4.35352 25.2759 5.20312C25.5396 4.82227 25.8813 4.51465 26.3013 4.28027C26.7261 4.0459 27.2266 3.92871 27.8027 3.92871C29.541 3.92871 30.4248 4.84912 30.4541 6.68994V12H29.0991V6.77051C29.0991 6.2041 28.9697 5.78174 28.7109 5.50342C28.4521 5.22021 28.0176 5.07861 27.4072 5.07861C26.9043 5.07861 26.4868 5.22998 26.1548 5.53271C25.8228 5.83057 25.6299 6.2334 25.5762 6.74121V12H24.2139V6.80713C24.2139 5.65479 23.6499 5.07861 22.522 5.07861C21.6333 5.07861 21.0254 5.45703 20.6982 6.21387V12H19.3433V4.0752H20.625ZM33.9771 12H32.6221V4.0752H33.9771V12ZM32.5122 1.97314C32.5122 1.75342 32.5781 1.56787 32.71 1.4165C32.8467 1.26514 33.0469 1.18945 33.3105 1.18945C33.5742 1.18945 33.7744 1.26514 33.9111 1.4165C34.0479 1.56787 34.1162 1.75342 34.1162 1.97314C34.1162 2.19287 34.0479 2.37598 33.9111 2.52246C33.7744 2.66895 33.5742 2.74219 33.3105 2.74219C33.0469 2.74219 32.8467 2.66895 32.71 2.52246C32.5781 2.37598 32.5122 2.19287 32.5122 1.97314ZM35.8228 7.97168C35.8228 6.75586 36.1108 5.7793 36.687 5.04199C37.2632 4.2998 38.0176 3.92871 38.9502 3.92871C39.8779 3.92871 40.6128 4.24609 41.1548 4.88086V0.75H42.5098V12H41.2646L41.1987 11.1504C40.6567 11.8145 39.9023 12.1465 38.9355 12.1465C38.0176 12.1465 37.2681 11.7705 36.687 11.0186C36.1108 10.2666 35.8228 9.28516 35.8228 8.07422V7.97168ZM37.1777 8.12549C37.1777 9.02393 37.3633 9.72705 37.7344 10.2349C38.1055 10.7427 38.6182 10.9966 39.2725 10.9966C40.1318 10.9966 40.7593 10.6108 41.1548 9.83936V6.19922C40.7495 5.45215 40.127 5.07861 39.2871 5.07861C38.623 5.07861 38.1055 5.33496 37.7344 5.84766C37.3633 6.36035 37.1777 7.11963 37.1777 8.12549ZM49.5117 12C49.4336 11.8438 49.3701 11.5654 49.3213 11.165C48.6914 11.8193 47.9395 12.1465 47.0654 12.1465C46.2842 12.1465 45.6421 11.9268 45.1392 11.4873C44.6411 11.043 44.3921 10.4814 44.3921 9.80273C44.3921 8.97754 44.7046 8.33789 45.3296 7.88379C45.9595 7.4248 46.8433 7.19531 47.981 7.19531H49.2993V6.57275C49.2993 6.09912 49.1577 5.72314 48.8745 5.44482C48.5913 5.16162 48.1738 5.02002 47.6221 5.02002C47.1387 5.02002 46.7334 5.14209 46.4062 5.38623C46.0791 5.63037 45.9155 5.92578 45.9155 6.27246H44.5532C44.5532 5.87695 44.6924 5.49609 44.9707 5.12988C45.2539 4.75879 45.6348 4.46582 46.1133 4.25098C46.5967 4.03613 47.1265 3.92871 47.7026 3.92871C48.6157 3.92871 49.3311 4.1582 49.8486 4.61719C50.3662 5.07129 50.6348 5.69873 50.6543 6.49951V10.147C50.6543 10.8745 50.7471 11.4531 50.9326 11.8828V12H49.5117ZM47.2632 10.9673C47.688 10.9673 48.0908 10.8574 48.4717 10.6377C48.8525 10.418 49.1284 10.1323 49.2993 9.78076V8.15479H48.2373C46.5771 8.15479 45.7471 8.64062 45.7471 9.6123C45.7471 10.0371 45.8887 10.3691 46.1719 10.6084C46.4551 10.8477 46.8188 10.9673 47.2632 10.9673Z" fill="#666666"/>
</svg>
