<svg width="141" height="20" viewBox="0 0 141 20" fill="none" xmlns="http://www.w3.org/2000/svg">
<path d="M14.5396 13.0796C14.4012 14.992 13.6932 16.4976 12.4155 17.5962C11.146 18.6948 9.46956 19.2441 7.38623 19.2441C5.10758 19.2441 3.31315 18.4792 2.00293 16.9492C0.700846 15.4111 0.0498047 13.3034 0.0498047 10.626V9.53955C0.0498047 7.83057 0.350911 6.32503 0.953125 5.02295C1.55534 3.72087 2.4139 2.72396 3.52881 2.03223C4.65186 1.33236 5.95394 0.982422 7.43506 0.982422C9.48584 0.982422 11.1379 1.53174 12.3911 2.63037C13.6444 3.729 14.3687 5.27116 14.564 7.25684H10.9019C10.8123 6.10938 10.4909 5.2793 9.9375 4.7666C9.39225 4.24577 8.55811 3.98535 7.43506 3.98535C6.21436 3.98535 5.29883 4.4248 4.68848 5.30371C4.08626 6.17448 3.77702 7.52946 3.76074 9.36865V10.7114C3.76074 12.632 4.04964 14.0358 4.62744 14.9229C5.21338 15.8099 6.13298 16.2534 7.38623 16.2534C8.51742 16.2534 9.3597 15.9971 9.91309 15.4844C10.4746 14.9635 10.7961 14.1619 10.8774 13.0796H14.5396ZM16.1631 12.2739C16.1631 10.9637 16.4154 9.7959 16.9199 8.77051C17.4245 7.74512 18.1488 6.95166 19.0928 6.39014C20.0449 5.82861 21.1476 5.54785 22.4009 5.54785C24.1831 5.54785 25.6357 6.0931 26.7588 7.18359C27.89 8.27409 28.5207 9.75521 28.6509 11.627L28.6753 12.5303C28.6753 14.5566 28.1097 16.1842 26.9785 17.4131C25.8473 18.6338 24.3296 19.2441 22.4253 19.2441C20.521 19.2441 18.9992 18.6338 17.8599 17.4131C16.7287 16.1924 16.1631 14.5322 16.1631 12.4326V12.2739ZM19.6909 12.5303C19.6909 13.7835 19.9269 14.7438 20.3989 15.4111C20.8709 16.0703 21.5464 16.3999 22.4253 16.3999C23.2798 16.3999 23.9471 16.0744 24.4272 15.4233C24.9074 14.7642 25.1475 13.7144 25.1475 12.2739C25.1475 11.0451 24.9074 10.0929 24.4272 9.41748C23.9471 8.74202 23.2716 8.4043 22.4009 8.4043C21.5382 8.4043 20.8709 8.74202 20.3989 9.41748C19.9269 10.0848 19.6909 11.1224 19.6909 12.5303ZM34.0952 5.79199L34.2051 7.31787C35.1491 6.13786 36.4146 5.54785 38.0015 5.54785C39.4012 5.54785 40.4429 5.95882 41.1265 6.78076C41.8101 7.6027 42.16 8.83154 42.1763 10.4673V19H38.6484V10.5527C38.6484 9.80404 38.4857 9.26286 38.1602 8.9292C37.8346 8.5874 37.2935 8.4165 36.5366 8.4165C35.5438 8.4165 34.7992 8.83968 34.3027 9.68604V19H30.7749V5.79199H34.0952ZM49.0854 2.54492V5.79199H51.3438V8.37988H49.0854V14.9717C49.0854 15.46 49.179 15.8099 49.3662 16.0215C49.5534 16.2331 49.9115 16.3389 50.4404 16.3389C50.8311 16.3389 51.1769 16.3104 51.478 16.2534V18.9268C50.7863 19.1383 50.0742 19.2441 49.3418 19.2441C46.8678 19.2441 45.6064 17.995 45.5576 15.4966V8.37988H43.6289V5.79199H45.5576V2.54492H49.0854ZM60.9629 19C60.8001 18.6826 60.6821 18.2879 60.6089 17.8159C59.7544 18.7681 58.6436 19.2441 57.2764 19.2441C55.9824 19.2441 54.9082 18.8698 54.0537 18.1211C53.2074 17.3724 52.7842 16.4284 52.7842 15.2891C52.7842 13.8893 53.3009 12.8151 54.3345 12.0664C55.3761 11.3177 56.8776 10.9393 58.8389 10.9312H60.4624V10.1743C60.4624 9.56396 60.3037 9.07568 59.9863 8.70947C59.6771 8.34326 59.1847 8.16016 58.5093 8.16016C57.9152 8.16016 57.4473 8.30257 57.1055 8.5874C56.7718 8.87223 56.605 9.26286 56.605 9.75928H53.0771C53.0771 8.9943 53.3132 8.2863 53.7852 7.63525C54.2572 6.98421 54.9245 6.47559 55.7871 6.10938C56.6497 5.73503 57.6182 5.54785 58.6924 5.54785C60.32 5.54785 61.6099 5.95882 62.562 6.78076C63.5223 7.59456 64.0024 8.74202 64.0024 10.2231V15.9482C64.0106 17.2015 64.1855 18.1496 64.5273 18.7925V19H60.9629ZM58.0454 16.5464C58.5662 16.5464 59.0464 16.4325 59.4858 16.2046C59.9253 15.9686 60.2508 15.6553 60.4624 15.2646V12.9941H59.144C57.3781 12.9941 56.4382 13.6045 56.3242 14.8252L56.312 15.0327C56.312 15.4722 56.4666 15.8343 56.7759 16.1191C57.0851 16.404 57.5083 16.5464 58.0454 16.5464ZM59.3882 0.25H63.2334L59.8521 4.03418H56.9834L59.3882 0.25ZM72.2056 16.3999C72.8566 16.3999 73.3856 16.2209 73.7925 15.8628C74.1994 15.5047 74.411 15.0286 74.4272 14.4346H77.7354C77.7272 15.3298 77.4831 16.1517 77.0029 16.9004C76.5228 17.641 75.8636 18.2188 75.0254 18.6338C74.1953 19.0407 73.2757 19.2441 72.2666 19.2441C70.3786 19.2441 68.8893 18.646 67.7988 17.4497C66.7083 16.2453 66.1631 14.5851 66.1631 12.4692V12.2373C66.1631 10.2028 66.7043 8.57926 67.7866 7.3667C68.869 6.15413 70.3542 5.54785 72.2422 5.54785C73.8942 5.54785 75.2166 6.01986 76.2095 6.96387C77.2104 7.89974 77.7191 9.14893 77.7354 10.7114H74.4272C74.411 10.0278 74.1994 9.47445 73.7925 9.05127C73.3856 8.61995 72.8485 8.4043 72.1812 8.4043C71.3592 8.4043 70.7367 8.7054 70.3135 9.30762C69.8984 9.90169 69.6909 10.8701 69.6909 12.2129V12.5791C69.6909 13.9382 69.8984 14.9147 70.3135 15.5088C70.7285 16.1029 71.3592 16.3999 72.2056 16.3999ZM83.9731 2.54492V5.79199H86.2314V8.37988H83.9731V14.9717C83.9731 15.46 84.0667 15.8099 84.2539 16.0215C84.4411 16.2331 84.7992 16.3389 85.3281 16.3389C85.7188 16.3389 86.0646 16.3104 86.3657 16.2534V18.9268C85.674 19.1383 84.9619 19.2441 84.2295 19.2441C81.7555 19.2441 80.4941 17.995 80.4453 15.4966V8.37988H78.5166V5.79199H80.4453V2.54492H83.9731ZM95.8506 19C95.6878 18.6826 95.5698 18.2879 95.4966 17.8159C94.6421 18.7681 93.5312 19.2441 92.1641 19.2441C90.8701 19.2441 89.7959 18.8698 88.9414 18.1211C88.0951 17.3724 87.6719 16.4284 87.6719 15.2891C87.6719 13.8893 88.1886 12.8151 89.2222 12.0664C90.2638 11.3177 91.7653 10.9393 93.7266 10.9312H95.3501V10.1743C95.3501 9.56396 95.1914 9.07568 94.874 8.70947C94.5648 8.34326 94.0724 8.16016 93.397 8.16016C92.8029 8.16016 92.335 8.30257 91.9932 8.5874C91.6595 8.87223 91.4927 9.26286 91.4927 9.75928H87.9648C87.9648 8.9943 88.2008 8.2863 88.6729 7.63525C89.1449 6.98421 89.8122 6.47559 90.6748 6.10938C91.5374 5.73503 92.5059 5.54785 93.5801 5.54785C95.2077 5.54785 96.4976 5.95882 97.4497 6.78076C98.41 7.59456 98.8901 8.74202 98.8901 10.2231V15.9482C98.8983 17.2015 99.0732 18.1496 99.415 18.7925V19H95.8506ZM92.9331 16.5464C93.4539 16.5464 93.9341 16.4325 94.3735 16.2046C94.813 15.9686 95.1385 15.6553 95.3501 15.2646V12.9941H94.0317C92.2658 12.9941 91.3258 13.6045 91.2119 14.8252L91.1997 15.0327C91.1997 15.4722 91.3543 15.8343 91.6636 16.1191C91.9728 16.404 92.396 16.5464 92.9331 16.5464ZM104.847 5.79199L104.957 7.31787C105.901 6.13786 107.167 5.54785 108.753 5.54785C110.153 5.54785 111.195 5.95882 111.878 6.78076C112.562 7.6027 112.912 8.83154 112.928 10.4673V19H109.4V10.5527C109.4 9.80404 109.238 9.26286 108.912 8.9292C108.587 8.5874 108.045 8.4165 107.289 8.4165C106.296 8.4165 105.551 8.83968 105.055 9.68604V19H101.527V5.79199H104.847ZM115.064 12.2739C115.064 10.9637 115.317 9.7959 115.821 8.77051C116.326 7.74512 117.05 6.95166 117.994 6.39014C118.946 5.82861 120.049 5.54785 121.302 5.54785C123.084 5.54785 124.537 6.0931 125.66 7.18359C126.791 8.27409 127.422 9.75521 127.552 11.627L127.577 12.5303C127.577 14.5566 127.011 16.1842 125.88 17.4131C124.749 18.6338 123.231 19.2441 121.327 19.2441C119.422 19.2441 117.901 18.6338 116.761 17.4131C115.63 16.1924 115.064 14.5322 115.064 12.4326V12.2739ZM118.592 12.5303C118.592 13.7835 118.828 14.7438 119.3 15.4111C119.772 16.0703 120.448 16.3999 121.327 16.3999C122.181 16.3999 122.848 16.0744 123.329 15.4233C123.809 14.7642 124.049 13.7144 124.049 12.2739C124.049 11.0451 123.809 10.0929 123.329 9.41748C122.848 8.74202 122.173 8.4043 121.302 8.4043C120.44 8.4043 119.772 8.74202 119.3 9.41748C118.828 10.0848 118.592 11.1224 118.592 12.5303ZM136.903 15.3501C136.903 14.9188 136.687 14.5811 136.256 14.3369C135.833 14.0846 135.149 13.8608 134.205 13.6655C131.064 13.0063 129.493 11.6717 129.493 9.66162C129.493 8.48975 129.977 7.51318 130.946 6.73193C131.922 5.94255 133.196 5.54785 134.767 5.54785C136.443 5.54785 137.782 5.94255 138.783 6.73193C139.792 7.52132 140.296 8.54671 140.296 9.80811H136.769C136.769 9.30355 136.606 8.88851 136.28 8.56299C135.955 8.22933 135.446 8.0625 134.754 8.0625C134.16 8.0625 133.701 8.19678 133.375 8.46533C133.049 8.73389 132.887 9.07568 132.887 9.49072C132.887 9.88135 133.07 10.1987 133.436 10.4429C133.81 10.6789 134.437 10.8864 135.316 11.0654C136.195 11.2363 136.935 11.4316 137.538 11.6514C139.401 12.335 140.333 13.519 140.333 15.2036C140.333 16.408 139.816 17.3846 138.783 18.1333C137.749 18.8739 136.415 19.2441 134.779 19.2441C133.672 19.2441 132.687 19.0488 131.825 18.6582C130.97 18.2594 130.299 17.7183 129.811 17.0347C129.322 16.3429 129.078 15.5983 129.078 14.8008H132.423C132.455 15.4274 132.687 15.9076 133.119 16.2412C133.55 16.5749 134.128 16.7417 134.852 16.7417C135.528 16.7417 136.036 16.6156 136.378 16.3633C136.728 16.1029 136.903 15.7651 136.903 15.3501Z" fill="#3C2313"/>
</svg>
