<svg width="43" height="13" viewBox="0 0 43 13" fill="none" xmlns="http://www.w3.org/2000/svg">
<path d="M6.75 6.74219H1.82031V10.7734H7.54688V12H0.320312V0.625H7.46875V1.85938H1.82031V5.51562H6.75V6.74219ZM10.5547 3.54688L10.6016 4.60938C11.2474 3.79688 12.0911 3.39062 13.1328 3.39062C14.9193 3.39062 15.8203 4.39844 15.8359 6.41406V12H14.3906V6.40625C14.3854 5.79688 14.2448 5.34635 13.9688 5.05469C13.6979 4.76302 13.2734 4.61719 12.6953 4.61719C12.2266 4.61719 11.8151 4.74219 11.4609 4.99219C11.1068 5.24219 10.8307 5.57031 10.6328 5.97656V12H9.1875V3.54688H10.5547ZM20.8047 10.0391L22.8984 3.54688H24.375L21.3438 12H20.2422L17.1797 3.54688H18.6562L20.8047 10.0391ZM27.3359 12H25.8906V3.54688H27.3359V12ZM25.7734 1.30469C25.7734 1.07031 25.8438 0.872396 25.9844 0.710938C26.1302 0.549479 26.3438 0.46875 26.625 0.46875C26.9062 0.46875 27.1198 0.549479 27.2656 0.710938C27.4115 0.872396 27.4844 1.07031 27.4844 1.30469C27.4844 1.53906 27.4115 1.73438 27.2656 1.89062C27.1198 2.04688 26.9062 2.125 26.625 2.125C26.3438 2.125 26.1302 2.04688 25.9844 1.89062C25.8438 1.73438 25.7734 1.53906 25.7734 1.30469ZM34.875 12C34.7917 11.8333 34.724 11.5365 34.6719 11.1094C34 11.8073 33.1979 12.1562 32.2656 12.1562C31.4323 12.1562 30.7474 11.9219 30.2109 11.4531C29.6797 10.9792 29.4141 10.3802 29.4141 9.65625C29.4141 8.77604 29.7474 8.09375 30.4141 7.60938C31.0859 7.11979 32.0286 6.875 33.2422 6.875H34.6484V6.21094C34.6484 5.70573 34.4974 5.30469 34.1953 5.00781C33.8932 4.70573 33.4479 4.55469 32.8594 4.55469C32.3438 4.55469 31.9115 4.6849 31.5625 4.94531C31.2135 5.20573 31.0391 5.52083 31.0391 5.89062H29.5859C29.5859 5.46875 29.7344 5.0625 30.0312 4.67188C30.3333 4.27604 30.7396 3.96354 31.25 3.73438C31.7656 3.50521 32.3307 3.39062 32.9453 3.39062C33.9193 3.39062 34.6823 3.63542 35.2344 4.125C35.7865 4.60938 36.0729 5.27865 36.0938 6.13281V10.0234C36.0938 10.7995 36.1927 11.4167 36.3906 11.875V12H34.875ZM32.4766 10.8984C32.9297 10.8984 33.3594 10.7812 33.7656 10.5469C34.1719 10.3125 34.4661 10.0078 34.6484 9.63281V7.89844H33.5156C31.7448 7.89844 30.8594 8.41667 30.8594 9.45312C30.8594 9.90625 31.0104 10.2604 31.3125 10.5156C31.6146 10.7708 32.0026 10.8984 32.4766 10.8984ZM42.4453 4.84375C42.2266 4.80729 41.9896 4.78906 41.7344 4.78906C40.7865 4.78906 40.1432 5.19271 39.8047 6V12H38.3594V3.54688H39.7656L39.7891 4.52344C40.263 3.76823 40.9349 3.39062 41.8047 3.39062C42.0859 3.39062 42.2995 3.42708 42.4453 3.5V4.84375Z" fill="white"/>
</svg>
