<svg width="115" height="9" viewBox="0 0 115 9" fill="none" xmlns="http://www.w3.org/2000/svg">
<path d="M1.76117 7H0.917419V0.601562H1.76117V7ZM3.94965 2.24512L3.97601 2.84277C4.33929 2.38574 4.8139 2.15723 5.39984 2.15723C6.40472 2.15723 6.91156 2.72412 6.92035 3.85791V7H6.10736V3.85352C6.10443 3.51074 6.02533 3.25732 5.87006 3.09326C5.71771 2.9292 5.47894 2.84717 5.15375 2.84717C4.89008 2.84717 4.65863 2.91748 4.45941 3.05811C4.26019 3.19873 4.10492 3.3833 3.99359 3.61182V7H3.1806V2.24512H3.94965ZM7.95306 4.58301C7.95306 3.8418 8.12445 3.25293 8.46722 2.81641C8.81 2.37695 9.2641 2.15723 9.82953 2.15723C10.4096 2.15723 10.8622 2.3623 11.1874 2.77246L11.227 2.24512H11.9697V6.88574C11.9697 7.50098 11.7866 7.98584 11.4203 8.34033C11.0571 8.69482 10.5678 8.87207 9.95258 8.87207C9.6098 8.87207 9.27435 8.79883 8.94623 8.65234C8.6181 8.50586 8.36761 8.30518 8.19476 8.05029L8.61664 7.5625C8.96527 7.99316 9.39154 8.2085 9.89545 8.2085C10.291 8.2085 10.5986 8.09717 10.8183 7.87451C11.041 7.65186 11.1523 7.33838 11.1523 6.93408V6.52539C10.8271 6.90039 10.3832 7.08789 9.82074 7.08789C9.2641 7.08789 8.81293 6.86377 8.46722 6.41553C8.12445 5.96729 7.95306 5.35645 7.95306 4.58301ZM8.77045 4.67529C8.77045 5.21143 8.88031 5.6333 9.10004 5.94092C9.31976 6.24561 9.62738 6.39795 10.0229 6.39795C10.5356 6.39795 10.912 6.16504 11.1523 5.69922V3.52832C10.9033 3.07422 10.5297 2.84717 10.0317 2.84717C9.63617 2.84717 9.32709 3.00098 9.10443 3.30859C8.88177 3.61621 8.77045 4.07178 8.77045 4.67529ZM15.4985 2.97461C15.3754 2.9541 15.2421 2.94385 15.0986 2.94385C14.5654 2.94385 14.2036 3.1709 14.0131 3.625V7H13.2001V2.24512H13.9911L14.0043 2.79443C14.2709 2.36963 14.6489 2.15723 15.1381 2.15723C15.2963 2.15723 15.4164 2.17773 15.4985 2.21875V2.97461ZM18.1352 7.08789C17.4907 7.08789 16.9662 6.87695 16.562 6.45508C16.1577 6.03027 15.9555 5.46338 15.9555 4.75439V4.60498C15.9555 4.1333 16.0449 3.71289 16.2236 3.34375C16.4052 2.97168 16.6572 2.68164 16.9794 2.47363C17.3046 2.2627 17.6562 2.15723 18.0341 2.15723C18.6523 2.15723 19.1328 2.36084 19.4755 2.76807C19.8183 3.17529 19.9897 3.7583 19.9897 4.51709V4.85547H16.7685C16.7802 5.32422 16.9164 5.70361 17.1772 5.99365C17.4409 6.28076 17.7748 6.42432 18.1791 6.42432C18.4662 6.42432 18.7094 6.36572 18.9086 6.24854C19.1078 6.13135 19.2822 5.97607 19.4316 5.78271L19.9282 6.16943C19.5297 6.78174 18.9321 7.08789 18.1352 7.08789ZM18.0341 2.8252C17.706 2.8252 17.4306 2.94531 17.2079 3.18555C16.9853 3.42285 16.8476 3.75684 16.7949 4.1875H19.1767V4.12598C19.1533 3.71289 19.0419 3.39355 18.8427 3.16797C18.6435 2.93945 18.374 2.8252 18.0341 2.8252ZM23.7031 5.73877C23.7031 5.51904 23.6196 5.34912 23.4526 5.229C23.2885 5.10596 22.9999 5.00049 22.5869 4.9126C22.1767 4.82471 21.85 4.71924 21.6069 4.59619C21.3666 4.47314 21.1879 4.32666 21.0707 4.15674C20.9565 3.98682 20.8994 3.78467 20.8994 3.55029C20.8994 3.16064 21.0634 2.83105 21.3915 2.56152C21.7226 2.29199 22.1445 2.15723 22.6572 2.15723C23.1962 2.15723 23.6328 2.29639 23.9667 2.57471C24.3036 2.85303 24.4721 3.20898 24.4721 3.64258H23.6547C23.6547 3.41992 23.5595 3.22803 23.3691 3.06689C23.1816 2.90576 22.9443 2.8252 22.6572 2.8252C22.3613 2.8252 22.1298 2.88965 21.9628 3.01855C21.7958 3.14746 21.7123 3.31592 21.7123 3.52393C21.7123 3.72021 21.79 3.86816 21.9453 3.96777C22.1005 4.06738 22.3803 4.1626 22.7846 4.25342C23.1918 4.34424 23.5214 4.45264 23.7734 4.57861C24.0253 4.70459 24.2114 4.85693 24.3315 5.03564C24.4545 5.21143 24.5161 5.42676 24.5161 5.68164C24.5161 6.10645 24.3461 6.44775 24.0063 6.70557C23.6664 6.96045 23.2255 7.08789 22.6835 7.08789C22.3027 7.08789 21.9658 7.02051 21.6728 6.88574C21.3798 6.75098 21.1498 6.56348 20.9828 6.32324C20.8188 6.08008 20.7368 5.81787 20.7368 5.53662H21.5497C21.5644 5.80908 21.6728 6.02588 21.8749 6.18701C22.08 6.34521 22.3495 6.42432 22.6835 6.42432C22.9911 6.42432 23.2372 6.36279 23.4218 6.23975C23.6093 6.11377 23.7031 5.94678 23.7031 5.73877ZM28.5107 7C28.4638 6.90625 28.4257 6.73926 28.3964 6.49902C28.0185 6.8916 27.5673 7.08789 27.0429 7.08789C26.5742 7.08789 26.1889 6.95605 25.8871 6.69238C25.5883 6.42578 25.4389 6.08887 25.4389 5.68164C25.4389 5.18652 25.6264 4.80273 26.0014 4.53027C26.3793 4.25488 26.9096 4.11719 27.5922 4.11719H28.3832V3.74365C28.3832 3.45947 28.2983 3.23389 28.1284 3.06689C27.9584 2.89697 27.7079 2.81201 27.3769 2.81201C27.0869 2.81201 26.8437 2.88525 26.6474 3.03174C26.4511 3.17822 26.353 3.35547 26.353 3.56348H25.5356C25.5356 3.32617 25.6191 3.09766 25.7861 2.87793C25.956 2.65527 26.1845 2.47949 26.4716 2.35059C26.7617 2.22168 27.0795 2.15723 27.4252 2.15723C27.9731 2.15723 28.4023 2.29492 28.7128 2.57031C29.0234 2.84277 29.1845 3.21924 29.1962 3.69971V5.88818C29.1962 6.32471 29.2519 6.67188 29.3632 6.92969V7H28.5107ZM27.1616 6.38037C27.4164 6.38037 27.6581 6.31445 27.8867 6.18262C28.1152 6.05078 28.2807 5.87939 28.3832 5.66846V4.69287H27.746C26.7499 4.69287 26.2519 4.98438 26.2519 5.56738C26.2519 5.82227 26.3369 6.02148 26.5068 6.16504C26.6767 6.30859 26.895 6.38037 27.1616 6.38037ZM27.913 0.25H28.8974L27.7197 1.54199H27.0649L27.913 0.25ZM33.8061 1.09375V2.24512H34.6938V2.87354H33.8061V5.82227C33.8061 6.0127 33.8456 6.15625 33.9247 6.25293C34.0038 6.34668 34.1386 6.39355 34.329 6.39355C34.4228 6.39355 34.5517 6.37598 34.7158 6.34082V7C34.5019 7.05859 34.2939 7.08789 34.0917 7.08789C33.7285 7.08789 33.4545 6.97803 33.27 6.7583C33.0854 6.53857 32.9931 6.22656 32.9931 5.82227V2.87354H32.1274V2.24512H32.9931V1.09375H33.8061ZM38.5829 6.52979C38.2665 6.90186 37.8022 7.08789 37.1899 7.08789C36.683 7.08789 36.2963 6.94141 36.0297 6.64844C35.7661 6.35254 35.6328 5.91602 35.6298 5.33887V2.24512H36.4428V5.31689C36.4428 6.0376 36.7358 6.39795 37.3217 6.39795C37.9428 6.39795 38.3559 6.1665 38.561 5.70361V2.24512H39.374V7H38.6005L38.5829 6.52979ZM44.7529 6.42432C45.0429 6.42432 45.2963 6.33643 45.5131 6.16064C45.7299 5.98486 45.85 5.76514 45.8735 5.50146H46.6425C46.6279 5.77393 46.5341 6.0332 46.3613 6.2793C46.1884 6.52539 45.957 6.72168 45.6669 6.86816C45.3798 7.01465 45.0751 7.08789 44.7529 7.08789C44.1054 7.08789 43.5898 6.87256 43.206 6.44189C42.8251 6.0083 42.6347 5.4165 42.6347 4.6665V4.53027C42.6347 4.06738 42.7197 3.65576 42.8896 3.29541C43.0595 2.93506 43.3027 2.65527 43.6191 2.45605C43.9384 2.25684 44.3149 2.15723 44.7485 2.15723C45.2817 2.15723 45.7241 2.31689 46.0756 2.63623C46.4301 2.95557 46.6191 3.37012 46.6425 3.87988H45.8735C45.85 3.57227 45.7328 3.32031 45.5219 3.12402C45.3139 2.9248 45.0561 2.8252 44.7485 2.8252C44.3354 2.8252 44.0146 2.97461 43.7861 3.27344C43.5605 3.56934 43.4477 3.99854 43.4477 4.56104V4.71484C43.4477 5.2627 43.5605 5.68457 43.7861 5.98047C44.0117 6.27637 44.3339 6.42432 44.7529 6.42432ZM47.3412 4.57861C47.3412 4.11279 47.4321 3.69385 47.6137 3.32178C47.7983 2.94971 48.0532 2.6626 48.3784 2.46045C48.7065 2.2583 49.08 2.15723 49.499 2.15723C50.1464 2.15723 50.6694 2.38135 51.0678 2.82959C51.4692 3.27783 51.6699 3.87402 51.6699 4.61816V4.67529C51.6699 5.13818 51.5805 5.5542 51.4018 5.92334C51.226 6.28955 50.9726 6.5752 50.6415 6.78027C50.3134 6.98535 49.9355 7.08789 49.5078 7.08789C48.8632 7.08789 48.3403 6.86377 47.9389 6.41553C47.5405 5.96729 47.3412 5.37402 47.3412 4.63574V4.57861ZM48.1586 4.67529C48.1586 5.20264 48.2802 5.62598 48.5234 5.94531C48.7695 6.26465 49.0976 6.42432 49.5078 6.42432C49.9208 6.42432 50.249 6.26318 50.4921 5.94092C50.7353 5.61572 50.8569 5.16162 50.8569 4.57861C50.8569 4.05713 50.7324 3.63525 50.4833 3.31299C50.2372 2.98779 49.9091 2.8252 49.499 2.8252C49.0976 2.8252 48.7739 2.98486 48.5278 3.3042C48.2817 3.62354 48.1586 4.08057 48.1586 4.67529ZM54.9877 2.97461C54.8647 2.9541 54.7314 2.94385 54.5878 2.94385C54.0546 2.94385 53.6928 3.1709 53.5024 3.625V7H52.6894V2.24512H53.4804L53.4936 2.79443C53.7602 2.36963 54.1381 2.15723 54.6274 2.15723C54.7856 2.15723 54.9057 2.17773 54.9877 2.21875V2.97461ZM58.0375 2.97461C57.9145 2.9541 57.7812 2.94385 57.6376 2.94385C57.1044 2.94385 56.7426 3.1709 56.5522 3.625V7H55.7392V2.24512H56.5302L56.5434 2.79443C56.81 2.36963 57.1879 2.15723 57.6772 2.15723C57.8354 2.15723 57.9555 2.17773 58.0375 2.21875V2.97461ZM60.6743 7.08789C60.0297 7.08789 59.5053 6.87695 59.101 6.45508C58.6967 6.03027 58.4946 5.46338 58.4946 4.75439V4.60498C58.4946 4.1333 58.5839 3.71289 58.7626 3.34375C58.9443 2.97168 59.1962 2.68164 59.5185 2.47363C59.8437 2.2627 60.1953 2.15723 60.5732 2.15723C61.1913 2.15723 61.6718 2.36084 62.0146 2.76807C62.3574 3.17529 62.5287 3.7583 62.5287 4.51709V4.85547H59.3076C59.3193 5.32422 59.4555 5.70361 59.7162 5.99365C59.9799 6.28076 60.3139 6.42432 60.7182 6.42432C61.0053 6.42432 61.2485 6.36572 61.4477 6.24854C61.6469 6.13135 61.8212 5.97607 61.9706 5.78271L62.4672 6.16943C62.0688 6.78174 61.4711 7.08789 60.6743 7.08789ZM60.5732 2.8252C60.2451 2.8252 59.9697 2.94531 59.747 3.18555C59.5244 3.42285 59.3867 3.75684 59.3339 4.1875H61.7158V4.12598C61.6923 3.71289 61.581 3.39355 61.3818 3.16797C61.1826 2.93945 60.913 2.8252 60.5732 2.8252ZM63.2582 4.57861C63.2582 4.11279 63.3491 3.69385 63.5307 3.32178C63.7153 2.94971 63.9702 2.6626 64.2953 2.46045C64.6235 2.2583 64.997 2.15723 65.416 2.15723C66.0634 2.15723 66.5864 2.38135 66.9848 2.82959C67.3862 3.27783 67.5869 3.87402 67.5869 4.61816V4.67529C67.5869 5.13818 67.4975 5.5542 67.3188 5.92334C67.143 6.28955 66.8896 6.5752 66.5585 6.78027C66.2304 6.98535 65.8525 7.08789 65.4247 7.08789C64.7802 7.08789 64.2573 6.86377 63.8559 6.41553C63.4575 5.96729 63.2582 5.37402 63.2582 4.63574V4.57861ZM64.0756 4.67529C64.0756 5.20264 64.1972 5.62598 64.4404 5.94531C64.6865 6.26465 65.0146 6.42432 65.4247 6.42432C65.8378 6.42432 66.166 6.26318 66.4091 5.94092C66.6523 5.61572 66.7739 5.16162 66.7739 4.57861C66.7739 4.05713 66.6494 3.63525 66.4003 3.31299C66.1542 2.98779 65.8261 2.8252 65.416 2.8252C65.0146 2.8252 64.6909 2.98486 64.4448 3.3042C64.1987 3.62354 64.0756 4.08057 64.0756 4.67529ZM72.812 7.08789C72.1674 7.08789 71.643 6.87695 71.2387 6.45508C70.8344 6.03027 70.6323 5.46338 70.6323 4.75439V4.60498C70.6323 4.1333 70.7216 3.71289 70.9003 3.34375C71.082 2.97168 71.3339 2.68164 71.6562 2.47363C71.9814 2.2627 72.3329 2.15723 72.7109 2.15723C73.329 2.15723 73.8095 2.36084 74.1523 2.76807C74.4951 3.17529 74.6664 3.7583 74.6664 4.51709V4.85547H71.4453C71.457 5.32422 71.5932 5.70361 71.8539 5.99365C72.1176 6.28076 72.4516 6.42432 72.8559 6.42432C73.143 6.42432 73.3862 6.36572 73.5854 6.24854C73.7846 6.13135 73.9589 5.97607 74.1083 5.78271L74.6049 6.16943C74.2065 6.78174 73.6088 7.08789 72.812 7.08789ZM72.7109 2.8252C72.3828 2.8252 72.1074 2.94531 71.8847 3.18555C71.662 3.42285 71.5244 3.75684 71.4716 4.1875H73.8535V4.12598C73.83 3.71289 73.7187 3.39355 73.5195 3.16797C73.3203 2.93945 73.0507 2.8252 72.7109 2.8252ZM76.4946 7H75.6816V0.25H76.4946V7ZM79.7729 7.08789C79.1284 7.08789 78.6039 6.87695 78.1996 6.45508C77.7953 6.03027 77.5932 5.46338 77.5932 4.75439V4.60498C77.5932 4.1333 77.6826 3.71289 77.8613 3.34375C78.0429 2.97168 78.2949 2.68164 78.6171 2.47363C78.9423 2.2627 79.2939 2.15723 79.6718 2.15723C80.29 2.15723 80.7704 2.36084 81.1132 2.76807C81.456 3.17529 81.6274 3.7583 81.6274 4.51709V4.85547H78.4062C78.4179 5.32422 78.5541 5.70361 78.8149 5.99365C79.0786 6.28076 79.4125 6.42432 79.8168 6.42432C80.1039 6.42432 80.3471 6.36572 80.5463 6.24854C80.7455 6.13135 80.9199 5.97607 81.0693 5.78271L81.5659 6.16943C81.1674 6.78174 80.5698 7.08789 79.7729 7.08789ZM79.6718 2.8252C79.3437 2.8252 79.0683 2.94531 78.8456 3.18555C78.623 3.42285 78.4853 3.75684 78.4326 4.1875H80.8144V4.12598C80.791 3.71289 80.6796 3.39355 80.4804 3.16797C80.2812 2.93945 80.0117 2.8252 79.6718 2.8252ZM84.4794 6.42432C84.7695 6.42432 85.0229 6.33643 85.2397 6.16064C85.4565 5.98486 85.5766 5.76514 85.6 5.50146H86.3691C86.3544 5.77393 86.2607 6.0332 86.0878 6.2793C85.915 6.52539 85.6835 6.72168 85.3935 6.86816C85.1064 7.01465 84.8017 7.08789 84.4794 7.08789C83.832 7.08789 83.3163 6.87256 82.9326 6.44189C82.5517 6.0083 82.3613 5.4165 82.3613 4.6665V4.53027C82.3613 4.06738 82.4462 3.65576 82.6161 3.29541C82.7861 2.93506 83.0292 2.65527 83.3456 2.45605C83.665 2.25684 84.0414 2.15723 84.475 2.15723C85.0082 2.15723 85.4506 2.31689 85.8022 2.63623C86.1567 2.95557 86.3456 3.37012 86.3691 3.87988H85.6C85.5766 3.57227 85.4594 3.32031 85.2485 3.12402C85.0405 2.9248 84.7827 2.8252 84.475 2.8252C84.062 2.8252 83.7411 2.97461 83.5126 3.27344C83.287 3.56934 83.1743 3.99854 83.1743 4.56104V4.71484C83.1743 5.2627 83.287 5.68457 83.5126 5.98047C83.7382 6.27637 84.0605 6.42432 84.4794 6.42432ZM88.3862 1.09375V2.24512H89.2739V2.87354H88.3862V5.82227C88.3862 6.0127 88.4257 6.15625 88.5048 6.25293C88.5839 6.34668 88.7187 6.39355 88.9091 6.39355C89.0029 6.39355 89.1318 6.37598 89.2958 6.34082V7C89.082 7.05859 88.874 7.08789 88.6718 7.08789C88.3085 7.08789 88.0346 6.97803 87.85 6.7583C87.6655 6.53857 87.5732 6.22656 87.5732 5.82227V2.87354H86.7075V2.24512H87.5732V1.09375H88.3862ZM92.5258 2.97461C92.4028 2.9541 92.2695 2.94385 92.1259 2.94385C91.5927 2.94385 91.2309 3.1709 91.0405 3.625V7H90.2275V2.24512H91.0185L91.0317 2.79443C91.2983 2.36963 91.6762 2.15723 92.1655 2.15723C92.3237 2.15723 92.4438 2.17773 92.5258 2.21875V2.97461ZM92.9741 4.57861C92.9741 4.11279 93.0649 3.69385 93.2465 3.32178C93.4311 2.94971 93.686 2.6626 94.0112 2.46045C94.3393 2.2583 94.7128 2.15723 95.1318 2.15723C95.7792 2.15723 96.3022 2.38135 96.7006 2.82959C97.102 3.27783 97.3027 3.87402 97.3027 4.61816V4.67529C97.3027 5.13818 97.2133 5.5542 97.0346 5.92334C96.8588 6.28955 96.6054 6.5752 96.2744 6.78027C95.9462 6.98535 95.5683 7.08789 95.1406 7.08789C94.496 7.08789 93.9731 6.86377 93.5717 6.41553C93.1733 5.96729 92.9741 5.37402 92.9741 4.63574V4.57861ZM93.7914 4.67529C93.7914 5.20264 93.913 5.62598 94.1562 5.94531C94.4023 6.26465 94.7304 6.42432 95.1406 6.42432C95.5536 6.42432 95.8818 6.26318 96.1249 5.94092C96.3681 5.61572 96.4897 5.16162 96.4897 4.57861C96.4897 4.05713 96.3652 3.63525 96.1161 3.31299C95.8701 2.98779 95.5419 2.8252 95.1318 2.8252C94.7304 2.8252 94.4067 2.98486 94.1606 3.3042C93.9145 3.62354 93.7914 4.08057 93.7914 4.67529ZM95.5009 0.25H96.4853L95.3076 1.54199H94.6528L95.5009 0.25ZM99.0912 2.24512L99.1176 2.84277C99.4809 2.38574 99.9555 2.15723 100.541 2.15723C101.546 2.15723 102.053 2.72412 102.062 3.85791V7H101.249V3.85352C101.246 3.51074 101.167 3.25732 101.012 3.09326C100.859 2.9292 100.621 2.84717 100.295 2.84717C100.032 2.84717 99.8002 2.91748 99.601 3.05811C99.4018 3.19873 99.2465 3.3833 99.1352 3.61182V7H98.3222V2.24512H99.0912ZM104.171 7H103.358V2.24512H104.171V7ZM103.292 0.983887C103.292 0.852051 103.332 0.740723 103.411 0.649902C103.493 0.559082 103.613 0.513672 103.771 0.513672C103.93 0.513672 104.05 0.559082 104.132 0.649902C104.214 0.740723 104.255 0.852051 104.255 0.983887C104.255 1.11572 104.214 1.22559 104.132 1.31348C104.05 1.40137 103.93 1.44531 103.771 1.44531C103.613 1.44531 103.493 1.40137 103.411 1.31348C103.332 1.22559 103.292 1.11572 103.292 0.983887ZM107.384 6.42432C107.674 6.42432 107.927 6.33643 108.144 6.16064C108.361 5.98486 108.481 5.76514 108.504 5.50146H109.273C109.259 5.77393 109.165 6.0332 108.992 6.2793C108.819 6.52539 108.588 6.72168 108.298 6.86816C108.011 7.01465 107.706 7.08789 107.384 7.08789C106.736 7.08789 106.221 6.87256 105.837 6.44189C105.456 6.0083 105.266 5.4165 105.266 4.6665V4.53027C105.266 4.06738 105.351 3.65576 105.52 3.29541C105.69 2.93506 105.934 2.65527 106.25 2.45605C106.569 2.25684 106.946 2.15723 107.379 2.15723C107.913 2.15723 108.355 2.31689 108.706 2.63623C109.061 2.95557 109.25 3.37012 109.273 3.87988H108.504C108.481 3.57227 108.364 3.32031 108.153 3.12402C107.945 2.9248 107.687 2.8252 107.379 2.8252C106.966 2.8252 106.645 2.97461 106.417 3.27344C106.191 3.56934 106.079 3.99854 106.079 4.56104V4.71484C106.079 5.2627 106.191 5.68457 106.417 5.98047C106.643 6.27637 106.965 6.42432 107.384 6.42432ZM109.972 4.57861C109.972 4.11279 110.063 3.69385 110.245 3.32178C110.429 2.94971 110.684 2.6626 111.009 2.46045C111.337 2.2583 111.711 2.15723 112.13 2.15723C112.777 2.15723 113.3 2.38135 113.699 2.82959C114.1 3.27783 114.301 3.87402 114.301 4.61816V4.67529C114.301 5.13818 114.211 5.5542 114.033 5.92334C113.857 6.28955 113.603 6.5752 113.272 6.78027C112.944 6.98535 112.566 7.08789 112.139 7.08789C111.494 7.08789 110.971 6.86377 110.57 6.41553C110.171 5.96729 109.972 5.37402 109.972 4.63574V4.57861ZM110.789 4.67529C110.789 5.20264 110.911 5.62598 111.154 5.94531C111.4 6.26465 111.728 6.42432 112.139 6.42432C112.552 6.42432 112.88 6.26318 113.123 5.94092C113.366 5.61572 113.488 5.16162 113.488 4.57861C113.488 4.05713 113.363 3.63525 113.114 3.31299C112.868 2.98779 112.54 2.8252 112.13 2.8252C111.728 2.8252 111.405 2.98486 111.159 3.3042C110.913 3.62354 110.789 4.08057 110.789 4.67529Z" fill="white"/>
</svg>
