<svg width="110" height="15" viewBox="0 0 110 15" fill="none" xmlns="http://www.w3.org/2000/svg">
<path d="M5.37756 1.19769H7.22327V8.67572C7.22327 9.69623 6.90344 10.5068 6.26379 11.1074C5.62903 11.7079 4.78918 12.0082 3.74426 12.0082C2.63098 12.0082 1.77161 11.7275 1.16614 11.166C0.560669 10.6044 0.257935 9.82318 0.257935 8.8222H2.10364C2.10364 9.38861 2.2428 9.81586 2.52112 10.1039C2.80432 10.3871 3.21204 10.5287 3.74426 10.5287C4.24231 10.5287 4.63782 10.3652 4.93079 10.038C5.22864 9.70599 5.37756 9.24945 5.37756 8.6684V1.19769ZM13.9762 11.0854C13.4537 11.7006 12.7115 12.0082 11.7496 12.0082C10.8903 12.0082 10.2384 11.7568 9.79407 11.2538C9.35461 10.7509 9.13489 10.0234 9.13489 9.07123V3.93695H10.9147V9.04926C10.9147 10.0551 11.3322 10.558 12.1671 10.558C13.0314 10.558 13.6149 10.248 13.9176 9.62787V3.93695H15.6974V11.8618H14.0201L13.9762 11.0854ZM17.1989 7.84076C17.1989 6.61029 17.4869 5.62885 18.0631 4.89642C18.6442 4.15912 19.4132 3.79047 20.3702 3.79047C21.2736 3.79047 21.984 4.10541 22.5016 4.73529L22.5822 3.93695H24.1862V11.6201C24.1862 12.6601 23.8615 13.4804 23.212 14.081C22.5675 14.6816 21.6959 14.9819 20.5973 14.9819C20.0162 14.9819 19.4474 14.8598 18.8907 14.6157C18.339 14.3764 17.9191 14.0615 17.631 13.6708L18.4733 12.6015C19.0201 13.2509 19.694 13.5756 20.4948 13.5756C21.0856 13.5756 21.5519 13.4145 21.8937 13.0922C22.2355 12.7748 22.4064 12.3061 22.4064 11.686V11.1513C21.8937 11.7226 21.2101 12.0082 20.3556 12.0082C19.4279 12.0082 18.6686 11.6396 18.0778 10.9023C17.4918 10.165 17.1989 9.14447 17.1989 7.84076ZM18.9713 7.99457C18.9713 8.79047 19.1324 9.41791 19.4547 9.87689C19.7819 10.331 20.2335 10.558 20.8097 10.558C21.5275 10.558 22.0597 10.2504 22.4064 9.63519V6.14886C22.0695 5.54828 21.5421 5.24799 20.8243 5.24799C20.2384 5.24799 19.7819 5.47992 19.4547 5.94379C19.1324 6.40765 18.9713 7.09125 18.9713 7.99457ZM30.8219 11.0854C30.2994 11.7006 29.5573 12.0082 28.5953 12.0082C27.736 12.0082 27.0841 11.7568 26.6398 11.2538C26.2003 10.7509 25.9806 10.0234 25.9806 9.07123V3.93695H27.7604V9.04926C27.7604 10.0551 28.1779 10.558 29.0128 10.558C29.8771 10.558 30.4606 10.248 30.7633 9.62787V3.93695H32.5431V11.8618H30.8658L30.8219 11.0854ZM37.8458 12.0082C36.7179 12.0082 35.8024 11.6542 35.0992 10.9462C34.401 10.2333 34.0519 9.28607 34.0519 8.10443V7.8847C34.0519 7.09369 34.2032 6.38812 34.506 5.76801C34.8136 5.14301 35.2433 4.65717 35.795 4.31049C36.3468 3.96381 36.962 3.79047 37.6407 3.79047C38.7198 3.79047 39.5524 4.1347 40.1383 4.82318C40.7291 5.51166 41.0245 6.48578 41.0245 7.74554V8.46332H35.8463C35.9 9.11761 36.1173 9.63519 36.4982 10.0161C36.8839 10.3969 37.3673 10.5873 37.9484 10.5873C38.7638 10.5873 39.4279 10.2578 39.9406 9.59857L40.9 10.5141C40.5826 10.9877 40.1578 11.3564 39.6256 11.6201C39.0983 11.8788 38.505 12.0082 37.8458 12.0082ZM37.6334 5.21869C37.1451 5.21869 36.7496 5.38959 36.4469 5.73138C36.149 6.07318 35.9586 6.54926 35.8756 7.15961H39.2667V7.02777C39.2277 6.43207 39.069 5.98285 38.7906 5.68011C38.5123 5.3725 38.1266 5.21869 37.6334 5.21869ZM44.6427 2.01068V3.93695H46.0416V5.25531H44.6427V9.67914C44.6427 9.98187 44.7013 10.2016 44.8185 10.3383C44.9406 10.4702 45.1554 10.5361 45.463 10.5361C45.6681 10.5361 45.8756 10.5117 46.0856 10.4628V11.8398C45.6803 11.9521 45.2897 12.0082 44.9137 12.0082C43.5465 12.0082 42.8629 11.2538 42.8629 9.74506V5.25531H41.5592V3.93695H42.8629V2.01068H44.6427ZM50.8976 12.0082C49.7697 12.0082 48.8541 11.6542 48.151 10.9462C47.4528 10.2333 47.1036 9.28607 47.1036 8.10443V7.8847C47.1036 7.09369 47.255 6.38812 47.5577 5.76801C47.8654 5.14301 48.295 4.65717 48.8468 4.31049C49.3986 3.96381 50.0138 3.79047 50.6925 3.79047C51.7716 3.79047 52.6041 4.1347 53.1901 4.82318C53.7809 5.51166 54.0763 6.48578 54.0763 7.74554V8.46332H48.8981C48.9518 9.11761 49.1691 9.63519 49.5499 10.0161C49.9357 10.3969 50.4191 10.5873 51.0001 10.5873C51.8156 10.5873 52.4796 10.2578 52.9923 9.59857L53.9518 10.5141C53.6344 10.9877 53.2096 11.3564 52.6774 11.6201C52.15 11.8788 51.5568 12.0082 50.8976 12.0082ZM50.6852 5.21869C50.1969 5.21869 49.8014 5.38959 49.4987 5.73138C49.2008 6.07318 49.0104 6.54926 48.9274 7.15961H52.3185V7.02777C52.2794 6.43207 52.1207 5.98285 51.8424 5.68011C51.5641 5.3725 51.1783 5.21869 50.6852 5.21869ZM67.8385 11.8618H65.9928V7.12299H61.2247V11.8618H59.3717V1.19769H61.2247V5.63617H65.9928V1.19769H67.8385V11.8618ZM74.6647 11.0854C74.1422 11.7006 73.4 12.0082 72.4381 12.0082C71.5787 12.0082 70.9269 11.7568 70.4825 11.2538C70.0431 10.7509 69.8234 10.0234 69.8234 9.07123V3.93695H71.6031V9.04926C71.6031 10.0551 72.0206 10.558 72.8556 10.558C73.7198 10.558 74.3033 10.248 74.6061 9.62787V3.93695H76.3859V11.8618H74.7086L74.6647 11.0854ZM81.6886 12.0082C80.5607 12.0082 79.6451 11.6542 78.942 10.9462C78.2438 10.2333 77.8947 9.28607 77.8947 8.10443V7.8847C77.8947 7.09369 78.046 6.38812 78.3488 5.76801C78.6564 5.14301 79.0861 4.65717 79.6378 4.31049C80.1896 3.96381 80.8048 3.79047 81.4835 3.79047C82.5626 3.79047 83.3951 4.1347 83.9811 4.82318C84.5719 5.51166 84.8673 6.48578 84.8673 7.74554V8.46332H79.6891C79.7428 9.11761 79.9601 9.63519 80.3409 10.0161C80.7267 10.3969 81.2101 10.5873 81.7911 10.5873C82.6066 10.5873 83.2706 10.2578 83.7833 9.59857L84.7428 10.5141C84.4254 10.9877 84.0006 11.3564 83.4684 11.6201C82.941 11.8788 82.3478 12.0082 81.6886 12.0082ZM81.4762 5.21869C80.9879 5.21869 80.5924 5.38959 80.2897 5.73138C79.9918 6.07318 79.8014 6.54926 79.7184 7.15961H83.1095V7.02777C83.0704 6.43207 82.9117 5.98285 82.6334 5.68011C82.3551 5.3725 81.9694 5.21869 81.4762 5.21869ZM90.6974 9.70844C90.6974 9.39105 90.5656 9.14935 90.3019 8.98334C90.0431 8.81732 89.611 8.67084 89.0055 8.54388C88.4 8.41693 87.8947 8.2558 87.4894 8.06049C86.6007 7.6308 86.1564 7.00824 86.1564 6.19281C86.1564 5.50922 86.4445 4.93793 87.0206 4.47894C87.5968 4.01996 88.3292 3.79047 89.2179 3.79047C90.1652 3.79047 90.9293 4.02484 91.5104 4.49359C92.0963 4.96234 92.3893 5.57025 92.3893 6.31732H90.6095C90.6095 5.97552 90.4825 5.69232 90.2286 5.46771C89.9747 5.23822 89.6378 5.12347 89.2179 5.12347C88.8273 5.12347 88.5074 5.21381 88.2584 5.39447C88.0143 5.57513 87.8922 5.81683 87.8922 6.11957C87.8922 6.39301 88.007 6.60541 88.2365 6.75677C88.4659 6.90814 88.9298 7.06195 89.6281 7.2182C90.3263 7.36957 90.8732 7.55267 91.2687 7.76752C91.6691 7.97748 91.9645 8.23138 92.1549 8.52924C92.3502 8.82709 92.4479 9.18842 92.4479 9.61322C92.4479 10.3261 92.1525 10.9047 91.5616 11.3491C90.9708 11.7885 90.1969 12.0082 89.2399 12.0082C88.5905 12.0082 88.0118 11.8911 87.504 11.6567C86.9962 11.4223 86.6007 11.1 86.3175 10.6899C86.0343 10.2797 85.8927 9.83783 85.8927 9.3642H87.6212C87.6456 9.78412 87.8043 10.1088 88.0973 10.3383C88.3903 10.5629 88.7784 10.6752 89.2618 10.6752C89.7306 10.6752 90.087 10.5873 90.3312 10.4116C90.5753 10.2309 90.6974 9.99652 90.6974 9.70844ZM95.8976 11.8618H94.1178V3.93695H95.8976V11.8618ZM94.0079 1.87885C94.0079 1.60541 94.0934 1.37836 94.2643 1.19769C94.4401 1.01703 94.6891 0.926697 95.0114 0.926697C95.3336 0.926697 95.5826 1.01703 95.7584 1.19769C95.9342 1.37836 96.0221 1.60541 96.0221 1.87885C96.0221 2.1474 95.9342 2.37201 95.7584 2.55267C95.5826 2.72845 95.3336 2.81635 95.0114 2.81635C94.6891 2.81635 94.4401 2.72845 94.2643 2.55267C94.0934 2.37201 94.0079 2.1474 94.0079 1.87885ZM100.072 2.01068V3.93695H101.471V5.25531H100.072V9.67914C100.072 9.98187 100.131 10.2016 100.248 10.3383C100.37 10.4702 100.585 10.5361 100.893 10.5361C101.098 10.5361 101.305 10.5117 101.515 10.4628V11.8398C101.11 11.9521 100.719 12.0082 100.343 12.0082C98.9762 12.0082 98.2926 11.2538 98.2926 9.74506V5.25531H96.9889V3.93695H98.2926V2.01068H100.072ZM102.284 7.82611C102.284 7.04974 102.438 6.3515 102.746 5.73138C103.053 5.10638 103.485 4.62787 104.042 4.29584C104.599 3.95892 105.238 3.79047 105.961 3.79047C107.03 3.79047 107.897 4.1347 108.561 4.82318C109.23 5.51166 109.591 6.42474 109.645 7.56244L109.652 7.97992C109.652 8.76117 109.501 9.45941 109.198 10.0746C108.901 10.6899 108.471 11.166 107.909 11.5029C107.353 11.8398 106.708 12.0082 105.976 12.0082C104.858 12.0082 103.962 11.6371 103.288 10.895C102.619 10.1479 102.284 9.15424 102.284 7.914V7.82611ZM104.064 7.97992C104.064 8.79535 104.233 9.435 104.569 9.89886C104.906 10.3578 105.375 10.5873 105.976 10.5873C106.576 10.5873 107.043 10.353 107.375 9.88422C107.712 9.41547 107.88 8.72943 107.88 7.82611C107.88 7.02533 107.707 6.39056 107.36 5.92181C107.018 5.45306 106.552 5.21869 105.961 5.21869C105.38 5.21869 104.919 5.45062 104.577 5.91449C104.235 6.37347 104.064 7.06195 104.064 7.97992Z" fill="#3C2313"/>
</svg>
