<svg width="145" height="15" viewBox="0 0 145 15" fill="none" xmlns="http://www.w3.org/2000/svg">
<path d="M5.12976 1.19763H6.97546V8.67566C6.97546 9.69617 6.65564 10.5067 6.01599 11.1073C5.38123 11.7079 4.54138 12.0082 3.49646 12.0082C2.38318 12.0082 1.5238 11.7274 0.918335 11.1659C0.312866 10.6044 0.0101318 9.82312 0.0101318 8.82214H1.85583C1.85583 9.38855 1.995 9.8158 2.27332 10.1039C2.55652 10.3871 2.96423 10.5287 3.49646 10.5287C3.99451 10.5287 4.39001 10.3651 4.68298 10.038C4.98083 9.70593 5.12976 9.24939 5.12976 8.66833V1.19763ZM13.7284 11.0853C13.2059 11.7006 12.4637 12.0082 11.5018 12.0082C10.6425 12.0082 9.9906 11.7567 9.54626 11.2538C9.10681 10.7509 8.88708 10.0233 8.88708 9.07117V3.93689H10.6669V9.04919C10.6669 10.0551 11.0844 10.558 11.9193 10.558C12.7836 10.558 13.3671 10.2479 13.6698 9.62781V3.93689H15.4496V11.8617H13.7723L13.7284 11.0853ZM16.951 7.8407C16.951 6.61023 17.2391 5.62878 17.8153 4.89636C18.3964 4.15906 19.1654 3.79041 20.1224 3.79041C21.0258 3.79041 21.7362 4.10535 22.2538 4.73523L22.3344 3.93689H23.9384V11.62C23.9384 12.66 23.6136 13.4803 22.9642 14.0809C22.3197 14.6815 21.4481 14.9818 20.3495 14.9818C19.7684 14.9818 19.1996 14.8597 18.6429 14.6156C18.0912 14.3763 17.6713 14.0614 17.3832 13.6708L18.2255 12.6014C18.7723 13.2509 19.4462 13.5756 20.2469 13.5756C20.8378 13.5756 21.3041 13.4144 21.6459 13.0922C21.9877 12.7748 22.1586 12.306 22.1586 11.6859V11.1512C21.6459 11.7225 20.9623 12.0082 20.1078 12.0082C19.1801 12.0082 18.4208 11.6395 17.83 10.9022C17.244 10.1649 16.951 9.14441 16.951 7.8407ZM18.7235 7.99451C18.7235 8.79041 18.8846 9.41785 19.2069 9.87683C19.5341 10.3309 19.9857 10.558 20.5619 10.558C21.2797 10.558 21.8119 10.2504 22.1586 9.63513V6.1488C21.8217 5.54822 21.2943 5.24792 20.5765 5.24792C19.9906 5.24792 19.5341 5.47986 19.2069 5.94373C18.8846 6.40759 18.7235 7.09119 18.7235 7.99451ZM30.5741 11.0853C30.0516 11.7006 29.3094 12.0082 28.3475 12.0082C27.4882 12.0082 26.8363 11.7567 26.392 11.2538C25.9525 10.7509 25.7328 10.0233 25.7328 9.07117V3.93689H27.5126V9.04919C27.5126 10.0551 27.9301 10.558 28.765 10.558C29.6293 10.558 30.2128 10.2479 30.5155 9.62781V3.93689H32.2953V11.8617H30.618L30.5741 11.0853ZM37.598 12.0082C36.4701 12.0082 35.5546 11.6542 34.8514 10.9462C34.1532 10.2333 33.8041 9.28601 33.8041 8.10437V7.88464C33.8041 7.09363 33.9554 6.38806 34.2582 5.76794C34.5658 5.14294 34.9955 4.6571 35.5472 4.31042C36.099 3.96375 36.7142 3.79041 37.3929 3.79041C38.472 3.79041 39.3046 4.13464 39.8905 4.82312C40.4813 5.5116 40.7767 6.48572 40.7767 7.74548V8.46326H35.5985C35.6522 9.11755 35.8695 9.63513 36.2504 10.016C36.6361 10.3969 37.1195 10.5873 37.7006 10.5873C38.516 10.5873 39.1801 10.2577 39.6927 9.59851L40.6522 10.514C40.3348 10.9877 39.91 11.3563 39.3778 11.62C38.8505 11.8788 38.2572 12.0082 37.598 12.0082ZM37.3856 5.21863C36.8973 5.21863 36.5018 5.38953 36.1991 5.73132C35.9012 6.07312 35.7108 6.54919 35.6278 7.15955H39.0189V7.02771C38.9799 6.43201 38.8212 5.98279 38.5428 5.68005C38.2645 5.37244 37.8788 5.21863 37.3856 5.21863ZM44.3949 2.01062V3.93689H45.7938V5.25525H44.3949V9.67908C44.3949 9.98181 44.4535 10.2015 44.5707 10.3383C44.6927 10.4701 44.9076 10.536 45.2152 10.536C45.4203 10.536 45.6278 10.5116 45.8378 10.4628V11.8397C45.4325 11.952 45.0419 12.0082 44.6659 12.0082C43.2987 12.0082 42.6151 11.2538 42.6151 9.745V5.25525H41.3114V3.93689H42.6151V2.01062H44.3949ZM50.6498 12.0082C49.5219 12.0082 48.6063 11.6542 47.9032 10.9462C47.205 10.2333 46.8558 9.28601 46.8558 8.10437V7.88464C46.8558 7.09363 47.0072 6.38806 47.3099 5.76794C47.6176 5.14294 48.0472 4.6571 48.599 4.31042C49.1508 3.96375 49.766 3.79041 50.4447 3.79041C51.5238 3.79041 52.3563 4.13464 52.9423 4.82312C53.5331 5.5116 53.8285 6.48572 53.8285 7.74548V8.46326H48.6503C48.704 9.11755 48.9213 9.63513 49.3021 10.016C49.6879 10.3969 50.1713 10.5873 50.7523 10.5873C51.5677 10.5873 52.2318 10.2577 52.7445 9.59851L53.704 10.514C53.3866 10.9877 52.9618 11.3563 52.4296 11.62C51.9022 11.8788 51.309 12.0082 50.6498 12.0082ZM50.4374 5.21863C49.9491 5.21863 49.5536 5.38953 49.2509 5.73132C48.953 6.07312 48.7626 6.54919 48.6796 7.15955H52.0707V7.02771C52.0316 6.43201 51.8729 5.98279 51.5946 5.68005C51.3163 5.37244 50.9305 5.21863 50.4374 5.21863ZM67.2611 8.39001C67.1537 9.52771 66.7338 10.4164 66.0013 11.056C65.2689 11.6908 64.2948 12.0082 63.079 12.0082C62.2294 12.0082 61.4799 11.808 60.8304 11.4076C60.1859 11.0023 59.6879 10.4286 59.3363 9.6864C58.9847 8.94421 58.8016 8.0824 58.787 7.10095V6.10486C58.787 5.099 58.9652 4.21277 59.3217 3.44617C59.6781 2.67957 60.1884 2.08875 60.8524 1.67371C61.5214 1.25867 62.2928 1.05115 63.1669 1.05115C64.3436 1.05115 65.2909 1.37097 66.0087 2.01062C66.7264 2.65027 67.1439 3.55359 67.2611 4.72058H65.4154C65.3275 3.95398 65.1029 3.40222 64.7416 3.06531C64.3851 2.72351 63.8602 2.55261 63.1669 2.55261C62.3612 2.55261 61.7411 2.84802 61.3065 3.43884C60.8768 4.02478 60.6571 4.8866 60.6473 6.02429V6.96912C60.6473 8.12146 60.8524 9.00037 61.2626 9.60583C61.6776 10.2113 62.2831 10.514 63.079 10.514C63.8065 10.514 64.3534 10.3505 64.7196 10.0233C65.0858 9.69617 65.3177 9.15173 65.4154 8.39001H67.2611ZM70.5057 4.80115C71.0868 4.12732 71.8217 3.79041 72.7103 3.79041C74.3998 3.79041 75.2567 4.75476 75.2811 6.68347V11.8617H73.5013V6.74939C73.5013 6.20251 73.3817 5.81677 73.1425 5.59216C72.9081 5.36267 72.5614 5.24792 72.1024 5.24792C71.3895 5.24792 70.8573 5.56531 70.5057 6.20007V11.8617H68.726V0.611694H70.5057V4.80115ZM81.8876 11.0853C81.3651 11.7006 80.6229 12.0082 79.661 12.0082C78.8016 12.0082 78.1498 11.7567 77.7054 11.2538C77.266 10.7509 77.0463 10.0233 77.0463 9.07117V3.93689H78.826V9.04919C78.826 10.0551 79.2435 10.558 80.0785 10.558C80.9427 10.558 81.5262 10.2479 81.829 9.62781V3.93689H83.6088V11.8617H81.9315L81.8876 11.0853ZM89.5707 5.56287C89.3363 5.5238 89.0946 5.50427 88.8456 5.50427C88.0302 5.50427 87.4808 5.81677 87.1976 6.44177V11.8617H85.4178V3.93689H87.1171L87.161 4.82312C87.5907 4.13464 88.1864 3.79041 88.9481 3.79041C89.202 3.79041 89.412 3.82458 89.578 3.89294L89.5707 5.56287ZM94.8441 5.56287C94.6097 5.5238 94.368 5.50427 94.119 5.50427C93.3036 5.50427 92.7543 5.81677 92.4711 6.44177V11.8617H90.6913V3.93689H92.3905L92.4344 4.82312C92.8641 4.13464 93.4598 3.79041 94.2216 3.79041C94.4755 3.79041 94.6854 3.82458 94.8514 3.89294L94.8441 5.56287ZM100.484 11.8617C100.406 11.7103 100.337 11.4637 100.279 11.1219C99.7123 11.7128 99.0189 12.0082 98.1986 12.0082C97.4027 12.0082 96.7533 11.7811 96.2504 11.327C95.7474 10.8729 95.496 10.3114 95.496 9.64246C95.496 8.79773 95.8085 8.15076 96.4335 7.70154C97.0634 7.24744 97.9618 7.02039 99.1288 7.02039H100.22V6.50037C100.22 6.09021 100.105 5.76306 99.8759 5.51892C99.6464 5.2699 99.2972 5.14539 98.8285 5.14539C98.4232 5.14539 98.0912 5.24792 97.8324 5.453C97.5736 5.6532 97.4442 5.90955 97.4442 6.22205H95.6644C95.6644 5.78748 95.8085 5.3822 96.0966 5.00623C96.3846 4.62537 96.7753 4.32751 97.2684 4.11267C97.7665 3.89783 98.3207 3.79041 98.931 3.79041C99.8588 3.79041 100.599 4.02478 101.15 4.49353C101.702 4.9574 101.985 5.61169 102 6.45642V10.0306C102 10.7435 102.1 11.3124 102.3 11.7372V11.8617H100.484ZM98.5282 10.58C98.8798 10.58 99.2094 10.4945 99.517 10.3236C99.8295 10.1527 100.064 9.92322 100.22 9.63513V8.14099H99.2606C98.6014 8.14099 98.1058 8.25574 97.7738 8.48523C97.4418 8.71472 97.2758 9.03943 97.2758 9.45935C97.2758 9.80115 97.3881 10.0746 97.6127 10.2797C97.8422 10.4799 98.1473 10.58 98.5282 10.58ZM108.306 9.70837C108.306 9.39099 108.174 9.14929 107.911 8.98328C107.652 8.81726 107.22 8.67078 106.614 8.54382C106.009 8.41687 105.503 8.25574 105.098 8.06042C104.209 7.63074 103.765 7.00818 103.765 6.19275C103.765 5.50916 104.053 4.93787 104.629 4.47888C105.205 4.0199 105.938 3.79041 106.827 3.79041C107.774 3.79041 108.538 4.02478 109.119 4.49353C109.705 4.96228 109.998 5.57019 109.998 6.31726H108.218C108.218 5.97546 108.091 5.69226 107.837 5.46765C107.583 5.23816 107.246 5.12341 106.827 5.12341C106.436 5.12341 106.116 5.21375 105.867 5.39441C105.623 5.57507 105.501 5.81677 105.501 6.11951C105.501 6.39294 105.616 6.60535 105.845 6.75671C106.075 6.90808 106.538 7.06189 107.237 7.21814C107.935 7.36951 108.482 7.55261 108.877 7.76746C109.278 7.97742 109.573 8.23132 109.764 8.52917C109.959 8.82703 110.057 9.18835 110.057 9.61316C110.057 10.326 109.761 10.9047 109.17 11.349C108.579 11.7885 107.806 12.0082 106.849 12.0082C106.199 12.0082 105.62 11.891 105.113 11.6566C104.605 11.4222 104.209 11.1 103.926 10.6898C103.643 10.2797 103.501 9.83777 103.501 9.36414H105.23C105.254 9.78406 105.413 10.1088 105.706 10.3383C105.999 10.5629 106.387 10.6752 106.87 10.6752C107.339 10.6752 107.696 10.5873 107.94 10.4115C108.184 10.2308 108.306 9.99646 108.306 9.70837ZM111.28 7.83337C111.28 6.59314 111.563 5.60925 112.129 4.88171C112.696 4.15417 113.462 3.79041 114.429 3.79041C115.313 3.79041 116.014 4.10046 116.531 4.72058L116.634 3.93689H118.216V14.9086H116.436V11.1879C115.918 11.7347 115.245 12.0082 114.414 12.0082C113.467 12.0082 112.708 11.6395 112.137 10.9022C111.565 10.16 111.28 9.13708 111.28 7.83337ZM113.059 7.98718C113.059 8.79773 113.218 9.43494 113.536 9.8988C113.858 10.3578 114.302 10.5873 114.869 10.5873C115.572 10.5873 116.094 10.287 116.436 9.6864V6.08289C116.094 5.50671 115.577 5.21863 114.883 5.21863C114.317 5.21863 113.87 5.44568 113.543 5.89978C113.221 6.35388 113.059 7.04968 113.059 7.98718ZM124.939 11.0853C124.417 11.7006 123.675 12.0082 122.713 12.0082C121.853 12.0082 121.202 11.7567 120.757 11.2538C120.318 10.7509 120.098 10.0233 120.098 9.07117V3.93689H121.878V9.04919C121.878 10.0551 122.295 10.558 123.13 10.558C123.995 10.558 124.578 10.2479 124.881 9.62781V3.93689H126.661V11.8617H124.983L124.939 11.0853ZM130.367 11.8617H128.587V3.93689H130.367V11.8617ZM128.477 1.87878C128.477 1.60535 128.562 1.3783 128.733 1.19763C128.909 1.01697 129.158 0.926636 129.48 0.926636C129.803 0.926636 130.052 1.01697 130.227 1.19763C130.403 1.3783 130.491 1.60535 130.491 1.87878C130.491 2.14734 130.403 2.37195 130.227 2.55261C130.052 2.72839 129.803 2.81628 129.48 2.81628C129.158 2.81628 128.909 2.72839 128.733 2.55261C128.562 2.37195 128.477 2.14734 128.477 1.87878ZM134.541 2.01062V3.93689H135.94V5.25525H134.541V9.67908C134.541 9.98181 134.6 10.2015 134.717 10.3383C134.839 10.4701 135.054 10.536 135.362 10.536C135.567 10.536 135.774 10.5116 135.984 10.4628V11.8397C135.579 11.952 135.188 12.0082 134.812 12.0082C133.445 12.0082 132.762 11.2538 132.762 9.745V5.25525H131.458V3.93689H132.762V2.01062H134.541ZM136.753 7.82605C136.753 7.04968 136.907 6.35144 137.215 5.73132C137.522 5.10632 137.954 4.62781 138.511 4.29578C139.068 3.95886 139.707 3.79041 140.43 3.79041C141.499 3.79041 142.366 4.13464 143.03 4.82312C143.699 5.5116 144.06 6.42468 144.114 7.56238L144.121 7.97986C144.121 8.76111 143.97 9.45935 143.667 10.0746C143.37 10.6898 142.94 11.1659 142.378 11.5028C141.822 11.8397 141.177 12.0082 140.445 12.0082C139.327 12.0082 138.431 11.6371 137.757 10.8949C137.088 10.1478 136.753 9.15417 136.753 7.91394V7.82605ZM138.533 7.97986C138.533 8.79529 138.702 9.43494 139.038 9.8988C139.375 10.3578 139.844 10.5873 140.445 10.5873C141.045 10.5873 141.512 10.3529 141.844 9.88416C142.181 9.41541 142.349 8.72937 142.349 7.82605C142.349 7.02527 142.176 6.3905 141.829 5.92175C141.487 5.453 141.021 5.21863 140.43 5.21863C139.849 5.21863 139.388 5.45056 139.046 5.91443C138.704 6.37341 138.533 7.06189 138.533 7.97986Z" fill="#3C2313"/>
</svg>
