<svg width="86" height="16" viewBox="0 0 86 16" fill="none" xmlns="http://www.w3.org/2000/svg">
<path d="M3.19922 12.6465H9.41992V15H0.269531V0.78125H3.19922V12.6465ZM10.4844 9.61914C10.4844 8.57096 10.6862 7.63672 11.0898 6.81641C11.4935 5.99609 12.0729 5.36133 12.8281 4.91211C13.5898 4.46289 14.472 4.23828 15.4746 4.23828C16.9004 4.23828 18.0625 4.67448 18.9609 5.54688C19.8659 6.41927 20.3704 7.60417 20.4746 9.10156L20.4941 9.82422C20.4941 11.4453 20.0417 12.7474 19.1367 13.7305C18.2318 14.707 17.0176 15.1953 15.4941 15.1953C13.9707 15.1953 12.7533 14.707 11.8418 13.7305C10.9368 12.7539 10.4844 11.4258 10.4844 9.74609V9.61914ZM13.3066 9.82422C13.3066 10.8268 13.4954 11.5951 13.873 12.1289C14.2507 12.6562 14.791 12.9199 15.4941 12.9199C16.1777 12.9199 16.7116 12.6595 17.0957 12.1387C17.4798 11.6113 17.6719 10.7715 17.6719 9.61914C17.6719 8.63607 17.4798 7.87435 17.0957 7.33398C16.7116 6.79362 16.1712 6.52344 15.4746 6.52344C14.7845 6.52344 14.2507 6.79362 13.873 7.33398C13.4954 7.86784 13.3066 8.69792 13.3066 9.82422ZM26.627 12.9199C27.1478 12.9199 27.571 12.7767 27.8965 12.4902C28.222 12.2038 28.3913 11.8229 28.4043 11.3477H31.0508C31.0443 12.0638 30.849 12.7214 30.4648 13.3203C30.0807 13.9128 29.5534 14.375 28.8828 14.707C28.2188 15.0326 27.4831 15.1953 26.6758 15.1953C25.1654 15.1953 23.974 14.7168 23.1016 13.7598C22.2292 12.7962 21.793 11.4681 21.793 9.77539V9.58984C21.793 7.96224 22.2259 6.66341 23.0918 5.69336C23.9577 4.72331 25.1458 4.23828 26.6562 4.23828C27.9779 4.23828 29.0358 4.61589 29.8301 5.37109C30.6309 6.11979 31.0378 7.11914 31.0508 8.36914H28.4043C28.3913 7.82227 28.222 7.37956 27.8965 7.04102C27.571 6.69596 27.1413 6.52344 26.6074 6.52344C25.9499 6.52344 25.4518 6.76432 25.1133 7.24609C24.7812 7.72135 24.6152 8.49609 24.6152 9.57031V9.86328C24.6152 10.9505 24.7812 11.7318 25.1133 12.207C25.4453 12.6823 25.9499 12.9199 26.627 12.9199ZM38.7852 15C38.6549 14.7461 38.5605 14.4303 38.502 14.0527C37.8184 14.8145 36.9297 15.1953 35.8359 15.1953C34.8008 15.1953 33.9414 14.8958 33.2578 14.2969C32.5807 13.6979 32.2422 12.9427 32.2422 12.0312C32.2422 10.9115 32.6556 10.0521 33.4824 9.45312C34.3158 8.85417 35.5169 8.55143 37.0859 8.54492H38.3848V7.93945C38.3848 7.45117 38.2578 7.06055 38.0039 6.76758C37.7565 6.47461 37.3626 6.32812 36.8223 6.32812C36.347 6.32812 35.9727 6.44206 35.6992 6.66992C35.4323 6.89779 35.2988 7.21029 35.2988 7.60742H32.4766C32.4766 6.99544 32.6654 6.42904 33.043 5.9082C33.4206 5.38737 33.9544 4.98047 34.6445 4.6875C35.3346 4.38802 36.1094 4.23828 36.9688 4.23828C38.2708 4.23828 39.3027 4.56706 40.0645 5.22461C40.8327 5.87565 41.2168 6.79362 41.2168 7.97852V12.5586C41.2233 13.5612 41.3633 14.3197 41.6367 14.834V15H38.7852ZM36.4512 13.0371C36.8678 13.0371 37.252 12.946 37.6035 12.7637C37.9551 12.5749 38.2155 12.3242 38.3848 12.0117V10.1953H37.3301C35.9173 10.1953 35.1654 10.6836 35.0742 11.6602L35.0645 11.8262C35.0645 12.1777 35.1882 12.4674 35.4355 12.6953C35.6829 12.9232 36.0215 13.0371 36.4512 13.0371ZM46.3633 15H43.5312V0H46.3633V15ZM51.6758 15H48.8438V4.43359H51.6758V15ZM48.6777 1.69922C48.6777 1.27604 48.8177 0.927734 49.0977 0.654297C49.3841 0.380859 49.7715 0.244141 50.2598 0.244141C50.7415 0.244141 51.1257 0.380859 51.4121 0.654297C51.6986 0.927734 51.8418 1.27604 51.8418 1.69922C51.8418 2.12891 51.6953 2.48047 51.4023 2.75391C51.1159 3.02734 50.735 3.16406 50.2598 3.16406C49.7845 3.16406 49.4004 3.02734 49.1074 2.75391C48.821 2.48047 48.6777 2.12891 48.6777 1.69922ZM53.5703 9.63867C53.5703 7.99154 53.9382 6.67969 54.6738 5.70312C55.416 4.72656 56.4284 4.23828 57.7109 4.23828C58.7396 4.23828 59.5892 4.6224 60.2598 5.39062V0H63.0918V15H60.543L60.4062 13.877C59.7031 14.7559 58.7982 15.1953 57.6914 15.1953C56.4479 15.1953 55.4486 14.707 54.6934 13.7305C53.9447 12.7474 53.5703 11.3835 53.5703 9.63867ZM56.3926 9.84375C56.3926 10.8333 56.5651 11.5918 56.9102 12.1191C57.2552 12.6465 57.7565 12.9102 58.4141 12.9102C59.2865 12.9102 59.9017 12.5423 60.2598 11.8066V7.63672C59.9082 6.90104 59.2995 6.5332 58.4336 6.5332C57.0729 6.5332 56.3926 7.63672 56.3926 9.84375ZM71.4023 15C71.2721 14.7461 71.1777 14.4303 71.1191 14.0527C70.4355 14.8145 69.5469 15.1953 68.4531 15.1953C67.418 15.1953 66.5586 14.8958 65.875 14.2969C65.1979 13.6979 64.8594 12.9427 64.8594 12.0312C64.8594 10.9115 65.2728 10.0521 66.0996 9.45312C66.9329 8.85417 68.1341 8.55143 69.7031 8.54492H71.002V7.93945C71.002 7.45117 70.875 7.06055 70.6211 6.76758C70.3737 6.47461 69.9798 6.32812 69.4395 6.32812C68.9642 6.32812 68.5898 6.44206 68.3164 6.66992C68.0495 6.89779 67.916 7.21029 67.916 7.60742H65.0938C65.0938 6.99544 65.2826 6.42904 65.6602 5.9082C66.0378 5.38737 66.5716 4.98047 67.2617 4.6875C67.9518 4.38802 68.7266 4.23828 69.5859 4.23828C70.888 4.23828 71.9199 4.56706 72.6816 5.22461C73.4499 5.87565 73.834 6.79362 73.834 7.97852V12.5586C73.8405 13.5612 73.9805 14.3197 74.2539 14.834V15H71.4023ZM69.0684 13.0371C69.485 13.0371 69.8691 12.946 70.2207 12.7637C70.5723 12.5749 70.8327 12.3242 71.002 12.0117V10.1953H69.9473C68.5345 10.1953 67.7826 10.6836 67.6914 11.6602L67.6816 11.8262C67.6816 12.1777 67.8053 12.4674 68.0527 12.6953C68.3001 12.9232 68.6387 13.0371 69.0684 13.0371ZM75.5625 9.63867C75.5625 7.99154 75.9303 6.67969 76.666 5.70312C77.4082 4.72656 78.4206 4.23828 79.7031 4.23828C80.7318 4.23828 81.5814 4.6224 82.252 5.39062V0H85.084V15H82.5352L82.3984 13.877C81.6953 14.7559 80.7904 15.1953 79.6836 15.1953C78.4401 15.1953 77.4408 14.707 76.6855 13.7305C75.9368 12.7474 75.5625 11.3835 75.5625 9.63867ZM78.3848 9.84375C78.3848 10.8333 78.5573 11.5918 78.9023 12.1191C79.2474 12.6465 79.7487 12.9102 80.4062 12.9102C81.2786 12.9102 81.8939 12.5423 82.252 11.8066V7.63672C81.9004 6.90104 81.2917 6.5332 80.4258 6.5332C79.0651 6.5332 78.3848 7.63672 78.3848 9.84375Z" fill="white"/>
</svg>
