<svg width="74" height="9" viewBox="0 0 74 9" fill="none" xmlns="http://www.w3.org/2000/svg">
<path d="M5.77338 7H4.92523L1.70404 2.06934V7H0.855896V0.601562H1.70404L4.93402 5.5542V0.601562H5.77338V7ZM6.92914 4.57861C6.92914 4.11279 7.01996 3.69385 7.2016 3.32178C7.38617 2.94971 7.64105 2.6626 7.96625 2.46045C8.29437 2.2583 8.66791 2.15723 9.08685 2.15723C9.73431 2.15723 10.2573 2.38135 10.6557 2.82959C11.0571 3.27783 11.2578 3.87402 11.2578 4.61816V4.67529C11.2578 5.13818 11.1684 5.5542 10.9897 5.92334C10.8139 6.28955 10.5605 6.5752 10.2294 6.78027C9.90131 6.98535 9.52338 7.08789 9.09564 7.08789C8.45111 7.08789 7.92816 6.86377 7.52679 6.41553C7.12836 5.96729 6.92914 5.37402 6.92914 4.63574V4.57861ZM7.74652 4.67529C7.74652 5.20264 7.8681 5.62598 8.11127 5.94531C8.35736 6.26465 8.68549 6.42432 9.09564 6.42432C9.50873 6.42432 9.83685 6.26318 10.08 5.94092C10.3232 5.61572 10.4448 5.16162 10.4448 4.57861C10.4448 4.05713 10.3203 3.63525 10.0712 3.31299C9.82513 2.98779 9.49701 2.8252 9.08685 2.8252C8.68549 2.8252 8.36176 2.98486 8.11566 3.3042C7.86957 3.62354 7.74652 4.08057 7.74652 4.67529ZM13.0419 2.24512L13.0639 2.77246C13.4125 2.3623 13.8828 2.15723 14.4745 2.15723C15.1396 2.15723 15.5922 2.41211 15.8325 2.92188C15.9907 2.69336 16.1957 2.50879 16.4477 2.36816C16.7026 2.22754 17.0029 2.15723 17.3486 2.15723C18.3915 2.15723 18.9218 2.70947 18.9394 3.81396V7H18.1264V3.8623C18.1264 3.52246 18.0488 3.26904 17.8935 3.10205C17.7382 2.93213 17.4775 2.84717 17.1113 2.84717C16.8095 2.84717 16.559 2.93799 16.3598 3.11963C16.1606 3.29834 16.0449 3.54004 16.0126 3.84473V7H15.1953V3.88428C15.1953 3.19287 14.8569 2.84717 14.1801 2.84717C13.6469 2.84717 13.2822 3.07422 13.0859 3.52832V7H12.2729V2.24512H13.0419ZM24.1953 4.67529C24.1953 5.40186 24.0283 5.98633 23.6943 6.42871C23.3603 6.86816 22.912 7.08789 22.3495 7.08789C21.749 7.08789 21.2846 6.87549 20.9565 6.45068L20.9169 7H20.1699V0.25H20.9828V2.76807C21.311 2.36084 21.7636 2.15723 22.3408 2.15723C22.9179 2.15723 23.3705 2.37549 23.6987 2.81201C24.0297 3.24854 24.1953 3.84619 24.1953 4.60498V4.67529ZM23.3823 4.58301C23.3823 4.0293 23.2753 3.60156 23.0615 3.2998C22.8476 2.99805 22.54 2.84717 22.1386 2.84717C21.6025 2.84717 21.2172 3.09619 20.9828 3.59424V5.65088C21.2319 6.14893 21.6201 6.39795 22.1474 6.39795C22.537 6.39795 22.8403 6.24707 23.0571 5.94531C23.2739 5.64355 23.3823 5.18945 23.3823 4.58301ZM27.5219 2.97461C27.3989 2.9541 27.2656 2.94385 27.122 2.94385C26.5888 2.94385 26.227 3.1709 26.0366 3.625V7H25.2236V2.24512H26.0146L26.0278 2.79443C26.2944 2.36963 26.6723 2.15723 27.1616 2.15723C27.3198 2.15723 27.4399 2.17773 27.5219 2.21875V2.97461ZM30.1586 7.08789C29.5141 7.08789 28.9897 6.87695 28.5854 6.45508C28.1811 6.03027 27.9789 5.46338 27.9789 4.75439V4.60498C27.9789 4.1333 28.0683 3.71289 28.247 3.34375C28.4286 2.97168 28.6806 2.68164 29.0029 2.47363C29.3281 2.2627 29.6796 2.15723 30.0576 2.15723C30.6757 2.15723 31.1562 2.36084 31.499 2.76807C31.8417 3.17529 32.0131 3.7583 32.0131 4.51709V4.85547H28.7919C28.8036 5.32422 28.9399 5.70361 29.2006 5.99365C29.4643 6.28076 29.7983 6.42432 30.2026 6.42432C30.4897 6.42432 30.7328 6.36572 30.9321 6.24854C31.1313 6.13135 31.3056 5.97607 31.455 5.78271L31.9516 6.16943C31.5532 6.78174 30.9555 7.08789 30.1586 7.08789ZM30.0576 2.8252C29.7294 2.8252 29.454 2.94531 29.2314 3.18555C29.0087 3.42285 28.871 3.75684 28.8183 4.1875H31.2001V4.12598C31.1767 3.71289 31.0654 3.39355 30.8661 3.16797C30.6669 2.93945 30.3974 2.8252 30.0576 2.8252ZM36.746 5.80908L37.8535 2.24512H38.7236L36.812 7.73389C36.5161 8.5249 36.0458 8.92041 35.4013 8.92041L35.2475 8.90723L34.9443 8.8501V8.19092L35.164 8.2085C35.4394 8.2085 35.6533 8.15283 35.8056 8.0415C35.9609 7.93018 36.0883 7.72656 36.1879 7.43066L36.3681 6.94727L34.6718 2.24512H35.5595L36.746 5.80908ZM45.3461 5.33008H42.6655L42.0634 7H41.1933L43.6367 0.601562H44.3749L46.8227 7H45.957L45.3461 5.33008ZM42.9203 4.63574H45.0956L44.0058 1.64307L42.9203 4.63574ZM51.5732 4.67529C51.5732 5.39893 51.4077 5.98193 51.0766 6.42432C50.7455 6.8667 50.2973 7.08789 49.7319 7.08789C49.1547 7.08789 48.7006 6.90479 48.3696 6.53857V8.82812H47.5566V2.24512H48.2993L48.3388 2.77246C48.6699 2.3623 49.1298 2.15723 49.7187 2.15723C50.29 2.15723 50.7411 2.37256 51.0722 2.80322C51.4062 3.23389 51.5732 3.83301 51.5732 4.60059V4.67529ZM50.7602 4.58301C50.7602 4.04688 50.6459 3.62354 50.4174 3.31299C50.1889 3.00244 49.8754 2.84717 49.477 2.84717C48.9848 2.84717 48.6157 3.06543 48.3696 3.50195V5.77393C48.6127 6.20752 48.9848 6.42432 49.4858 6.42432C49.8754 6.42432 50.1845 6.27051 50.413 5.96289C50.6445 5.65234 50.7602 5.19238 50.7602 4.58301ZM54.5834 7.08789C53.9389 7.08789 53.4145 6.87695 53.0102 6.45508C52.6059 6.03027 52.4037 5.46338 52.4037 4.75439V4.60498C52.4037 4.1333 52.4931 3.71289 52.6718 3.34375C52.8535 2.97168 53.1054 2.68164 53.4277 2.47363C53.7529 2.2627 54.1044 2.15723 54.4824 2.15723C55.1005 2.15723 55.581 2.36084 55.9238 2.76807C56.2665 3.17529 56.4379 3.7583 56.4379 4.51709V4.85547H53.2167C53.2285 5.32422 53.3647 5.70361 53.6254 5.99365C53.8891 6.28076 54.2231 6.42432 54.6274 6.42432C54.9145 6.42432 55.1577 6.36572 55.3569 6.24854C55.5561 6.13135 55.7304 5.97607 55.8798 5.78271L56.3764 6.16943C55.978 6.78174 55.3803 7.08789 54.5834 7.08789ZM54.4824 2.8252C54.1542 2.8252 53.8788 2.94531 53.6562 3.18555C53.4335 3.42285 53.2958 3.75684 53.2431 4.1875H55.6249V4.12598C55.6015 3.71289 55.4902 3.39355 55.291 3.16797C55.0917 2.93945 54.8222 2.8252 54.4824 2.8252ZM58.2661 7H57.4531V0.25H58.2661V7ZM60.4545 7H59.6415V0.25H60.4545V7ZM62.643 7H61.83V2.24512H62.643V7ZM61.7641 0.983887C61.7641 0.852051 61.8036 0.740723 61.8828 0.649902C61.9648 0.559082 62.0849 0.513672 62.2431 0.513672C62.4013 0.513672 62.5214 0.559082 62.6035 0.649902C62.6855 0.740723 62.7265 0.852051 62.7265 0.983887C62.7265 1.11572 62.6855 1.22559 62.6035 1.31348C62.5214 1.40137 62.4013 1.44531 62.2431 1.44531C62.0849 1.44531 61.9648 1.40137 61.8828 1.31348C61.8036 1.22559 61.7641 1.11572 61.7641 0.983887ZM63.7504 4.58301C63.7504 3.85352 63.9233 3.26758 64.269 2.8252C64.6147 2.37988 65.0673 2.15723 65.6269 2.15723C66.1835 2.15723 66.6245 2.34766 66.9496 2.72852V0.25H67.7626V7H67.0156L66.976 6.49023C66.6508 6.88867 66.1982 7.08789 65.6181 7.08789C65.0673 7.08789 64.6176 6.8623 64.269 6.41113C63.9233 5.95996 63.7504 5.37109 63.7504 4.64453V4.58301ZM64.5634 4.67529C64.5634 5.21436 64.6747 5.63623 64.8974 5.94092C65.1201 6.24561 65.4277 6.39795 65.8203 6.39795C66.3359 6.39795 66.7123 6.1665 66.9496 5.70361V3.51953C66.7065 3.07129 66.3329 2.84717 65.829 2.84717C65.4306 2.84717 65.1201 3.00098 64.8974 3.30859C64.6747 3.61621 64.5634 4.07178 64.5634 4.67529ZM68.8129 4.57861C68.8129 4.11279 68.9037 3.69385 69.0854 3.32178C69.27 2.94971 69.5248 2.6626 69.85 2.46045C70.1782 2.2583 70.5517 2.15723 70.9706 2.15723C71.6181 2.15723 72.1411 2.38135 72.5395 2.82959C72.9409 3.27783 73.1415 3.87402 73.1415 4.61816V4.67529C73.1415 5.13818 73.0522 5.5542 72.8735 5.92334C72.6977 6.28955 72.4443 6.5752 72.1132 6.78027C71.7851 6.98535 71.4072 7.08789 70.9794 7.08789C70.3349 7.08789 69.812 6.86377 69.4106 6.41553C69.0121 5.96729 68.8129 5.37402 68.8129 4.63574V4.57861ZM69.6303 4.67529C69.6303 5.20264 69.7519 5.62598 69.9951 5.94531C70.2411 6.26465 70.5693 6.42432 70.9794 6.42432C71.3925 6.42432 71.7206 6.26318 71.9638 5.94092C72.207 5.61572 72.3286 5.16162 72.3286 4.57861C72.3286 4.05713 72.204 3.63525 71.955 3.31299C71.7089 2.98779 71.3808 2.8252 70.9706 2.8252C70.5693 2.8252 70.2455 2.98486 69.9995 3.3042C69.7534 3.62354 69.6303 4.08057 69.6303 4.67529Z" fill="white"/>
</svg>
