<svg width="402" height="31" viewBox="0 0 402 31" fill="none" xmlns="http://www.w3.org/2000/svg">
<path d="M6.39844 19.9805V30H0.539062V1.5625H11.6328C13.7682 1.5625 15.6432 1.95312 17.2578 2.73438C18.8854 3.51562 20.1354 4.62891 21.0078 6.07422C21.8802 7.50651 22.3164 9.14062 22.3164 10.9766C22.3164 13.763 21.3594 15.9635 19.4453 17.5781C17.5443 19.1797 14.9076 19.9805 11.5352 19.9805H6.39844ZM6.39844 15.2344H11.6328C13.1823 15.2344 14.3607 14.8698 15.168 14.1406C15.9883 13.4115 16.3984 12.3698 16.3984 11.0156C16.3984 9.6224 15.9883 8.49609 15.168 7.63672C14.3477 6.77734 13.2148 6.33464 11.7695 6.30859H6.39844V15.2344ZM37.8633 14.1602C37.0951 14.056 36.418 14.0039 35.832 14.0039C33.6966 14.0039 32.2969 14.7266 31.6328 16.1719V30H25.9883V8.86719H31.3203L31.4766 11.3867C32.6094 9.44661 34.1784 8.47656 36.1836 8.47656C36.8086 8.47656 37.3945 8.5612 37.9414 8.73047L37.8633 14.1602ZM39.0156 19.2383C39.0156 17.1419 39.4193 15.2734 40.2266 13.6328C41.0339 11.9922 42.1927 10.7227 43.7031 9.82422C45.2266 8.92578 46.9909 8.47656 48.9961 8.47656C51.8477 8.47656 54.1719 9.34896 55.9688 11.0938C57.7786 12.8385 58.7878 15.2083 58.9961 18.2031L59.0352 19.6484C59.0352 22.8906 58.1302 25.4948 56.3203 27.4609C54.5104 29.4141 52.082 30.3906 49.0352 30.3906C45.9883 30.3906 43.5534 29.4141 41.7305 27.4609C39.9206 25.5078 39.0156 22.8516 39.0156 19.4922V19.2383ZM44.6602 19.6484C44.6602 21.6536 45.0378 23.1901 45.793 24.2578C46.5482 25.3125 47.6289 25.8398 49.0352 25.8398C50.4023 25.8398 51.4701 25.319 52.2383 24.2773C53.0065 23.2227 53.3906 21.543 53.3906 19.2383C53.3906 17.2721 53.0065 15.7487 52.2383 14.668C51.4701 13.5872 50.3893 13.0469 48.9961 13.0469C47.6159 13.0469 46.5482 13.5872 45.793 14.668C45.0378 15.7357 44.6602 17.3958 44.6602 19.6484ZM61.6328 19.2773C61.6328 15.9831 62.3685 13.3594 63.8398 11.4062C65.3242 9.45312 67.349 8.47656 69.9141 8.47656C71.9714 8.47656 73.6706 9.24479 75.0117 10.7812V0H80.6758V30H75.5781L75.3047 27.7539C73.8984 29.5117 72.0885 30.3906 69.875 30.3906C67.388 30.3906 65.3893 29.4141 63.8789 27.4609C62.3815 25.4948 61.6328 22.7669 61.6328 19.2773ZM67.2773 19.6875C67.2773 21.6667 67.6224 23.1836 68.3125 24.2383C69.0026 25.293 70.0052 25.8203 71.3203 25.8203C73.0651 25.8203 74.2956 25.0846 75.0117 23.6133V15.2734C74.3086 13.8021 73.0911 13.0664 71.3594 13.0664C68.638 13.0664 67.2773 15.2734 67.2773 19.6875ZM97.707 27.8516C96.3138 29.5443 94.3867 30.3906 91.9258 30.3906C89.6602 30.3906 87.9284 29.7396 86.7305 28.4375C85.5456 27.1354 84.9401 25.2279 84.9141 22.7148V8.86719H90.5586V22.5195C90.5586 24.7201 91.5612 25.8203 93.5664 25.8203C95.4805 25.8203 96.7956 25.1562 97.5117 23.8281V8.86719H103.176V30H97.8633L97.707 27.8516ZM116.223 25.8398C117.264 25.8398 118.111 25.5534 118.762 24.9805C119.413 24.4076 119.751 23.6458 119.777 22.6953H125.07C125.057 24.1276 124.667 25.4427 123.898 26.6406C123.13 27.8255 122.076 28.75 120.734 29.4141C119.406 30.0651 117.935 30.3906 116.32 30.3906C113.299 30.3906 110.917 29.4336 109.172 27.5195C107.427 25.5924 106.555 22.9362 106.555 19.5508V19.1797C106.555 15.9245 107.421 13.3268 109.152 11.3867C110.884 9.44661 113.26 8.47656 116.281 8.47656C118.924 8.47656 121.04 9.23177 122.629 10.7422C124.23 12.2396 125.044 14.2383 125.07 16.7383H119.777C119.751 15.6445 119.413 14.7591 118.762 14.082C118.111 13.3919 117.251 13.0469 116.184 13.0469C114.868 13.0469 113.872 13.5286 113.195 14.4922C112.531 15.4427 112.199 16.9922 112.199 19.1406V19.7266C112.199 21.901 112.531 23.4635 113.195 24.4141C113.859 25.3646 114.868 25.8398 116.223 25.8398ZM135.051 3.67188V8.86719H138.664V13.0078H135.051V23.5547C135.051 24.3359 135.201 24.8958 135.5 25.2344C135.799 25.5729 136.372 25.7422 137.219 25.7422C137.844 25.7422 138.397 25.6966 138.879 25.6055V29.8828C137.772 30.2214 136.633 30.3906 135.461 30.3906C131.503 30.3906 129.484 28.3919 129.406 24.3945V13.0078H126.32V8.86719H129.406V3.67188H135.051ZM140.344 19.2383C140.344 17.1419 140.747 15.2734 141.555 13.6328C142.362 11.9922 143.521 10.7227 145.031 9.82422C146.555 8.92578 148.319 8.47656 150.324 8.47656C153.176 8.47656 155.5 9.34896 157.297 11.0938C159.107 12.8385 160.116 15.2083 160.324 18.2031L160.363 19.6484C160.363 22.8906 159.458 25.4948 157.648 27.4609C155.839 29.4141 153.41 30.3906 150.363 30.3906C147.316 30.3906 144.882 29.4141 143.059 27.4609C141.249 25.5078 140.344 22.8516 140.344 19.4922V19.2383ZM145.988 19.6484C145.988 21.6536 146.366 23.1901 147.121 24.2578C147.876 25.3125 148.957 25.8398 150.363 25.8398C151.73 25.8398 152.798 25.319 153.566 24.2773C154.335 23.2227 154.719 21.543 154.719 19.2383C154.719 17.2721 154.335 15.7487 153.566 14.668C152.798 13.5872 151.717 13.0469 150.324 13.0469C148.944 13.0469 147.876 13.5872 147.121 14.668C146.366 15.7357 145.988 17.3958 145.988 19.6484ZM175.285 24.1602C175.285 23.4701 174.94 22.9297 174.25 22.5391C173.573 22.1354 172.479 21.7773 170.969 21.4648C165.943 20.4102 163.43 18.2747 163.43 15.0586C163.43 13.1836 164.204 11.6211 165.754 10.3711C167.316 9.10807 169.354 8.47656 171.867 8.47656C174.549 8.47656 176.691 9.10807 178.293 10.3711C179.908 11.6341 180.715 13.2747 180.715 15.293H175.07C175.07 14.4857 174.81 13.8216 174.289 13.3008C173.768 12.7669 172.954 12.5 171.848 12.5C170.897 12.5 170.161 12.7148 169.641 13.1445C169.12 13.5742 168.859 14.1211 168.859 14.7852C168.859 15.4102 169.152 15.918 169.738 16.3086C170.337 16.6862 171.34 17.0182 172.746 17.3047C174.152 17.5781 175.337 17.8906 176.301 18.2422C179.283 19.3359 180.773 21.2305 180.773 23.9258C180.773 25.8529 179.947 27.4154 178.293 28.6133C176.639 29.7982 174.504 30.3906 171.887 30.3906C170.116 30.3906 168.54 30.0781 167.16 29.4531C165.793 28.8151 164.719 27.9492 163.938 26.8555C163.156 25.7487 162.766 24.5573 162.766 23.2812H168.117C168.169 24.2839 168.54 25.0521 169.23 25.5859C169.921 26.1198 170.845 26.3867 172.004 26.3867C173.085 26.3867 173.898 26.1849 174.445 25.7812C175.005 25.3646 175.285 24.8242 175.285 24.1602ZM194.758 30V1.5625H203.508C206.008 1.5625 208.241 2.12891 210.207 3.26172C212.186 4.38151 213.729 5.98307 214.836 8.06641C215.943 10.1367 216.496 12.4935 216.496 15.1367V16.4453C216.496 19.0885 215.949 21.4388 214.855 23.4961C213.775 25.5534 212.245 27.1484 210.266 28.2812C208.286 29.4141 206.053 29.987 203.566 30H194.758ZM200.617 6.30859V25.293H203.449C205.741 25.293 207.492 24.5443 208.703 23.0469C209.914 21.5495 210.533 19.4076 210.559 16.6211V15.1172C210.559 12.2266 209.96 10.0391 208.762 8.55469C207.564 7.05729 205.812 6.30859 203.508 6.30859H200.617ZM230.129 30.3906C227.03 30.3906 224.504 29.4401 222.551 27.5391C220.611 25.638 219.641 23.1055 219.641 19.9414V19.3945C219.641 17.2721 220.051 15.3776 220.871 13.7109C221.691 12.0312 222.85 10.7422 224.348 9.84375C225.858 8.93229 227.577 8.47656 229.504 8.47656C232.395 8.47656 234.667 9.38802 236.32 11.2109C237.987 13.0339 238.82 15.6185 238.82 18.9648V21.2695H225.363C225.546 22.6497 226.092 23.7565 227.004 24.5898C227.928 25.4232 229.094 25.8398 230.5 25.8398C232.674 25.8398 234.374 25.0521 235.598 23.4766L238.371 26.582C237.525 27.7799 236.379 28.7174 234.934 29.3945C233.488 30.0586 231.887 30.3906 230.129 30.3906ZM229.484 13.0469C228.365 13.0469 227.453 13.4245 226.75 14.1797C226.06 14.9349 225.617 16.0156 225.422 17.4219H233.273V16.9727C233.247 15.7227 232.909 14.7591 232.258 14.082C231.607 13.3919 230.682 13.0469 229.484 13.0469ZM253.488 24.1602C253.488 23.4701 253.143 22.9297 252.453 22.5391C251.776 22.1354 250.682 21.7773 249.172 21.4648C244.146 20.4102 241.633 18.2747 241.633 15.0586C241.633 13.1836 242.408 11.6211 243.957 10.3711C245.52 9.10807 247.557 8.47656 250.07 8.47656C252.753 8.47656 254.895 9.10807 256.496 10.3711C258.111 11.6341 258.918 13.2747 258.918 15.293H253.273C253.273 14.4857 253.013 13.8216 252.492 13.3008C251.971 12.7669 251.158 12.5 250.051 12.5C249.1 12.5 248.365 12.7148 247.844 13.1445C247.323 13.5742 247.062 14.1211 247.062 14.7852C247.062 15.4102 247.355 15.918 247.941 16.3086C248.54 16.6862 249.543 17.0182 250.949 17.3047C252.355 17.5781 253.54 17.8906 254.504 18.2422C257.486 19.3359 258.977 21.2305 258.977 23.9258C258.977 25.8529 258.15 27.4154 256.496 28.6133C254.842 29.7982 252.707 30.3906 250.09 30.3906C248.319 30.3906 246.743 30.0781 245.363 29.4531C243.996 28.8151 242.922 27.9492 242.141 26.8555C241.359 25.7487 240.969 24.5573 240.969 23.2812H246.32C246.372 24.2839 246.743 25.0521 247.434 25.5859C248.124 26.1198 249.048 26.3867 250.207 26.3867C251.288 26.3867 252.102 26.1849 252.648 25.7812C253.208 25.3646 253.488 24.8242 253.488 24.1602ZM269.387 3.67188V8.86719H273V13.0078H269.387V23.5547C269.387 24.3359 269.536 24.8958 269.836 25.2344C270.135 25.5729 270.708 25.7422 271.555 25.7422C272.18 25.7422 272.733 25.6966 273.215 25.6055V29.8828C272.108 30.2214 270.969 30.3906 269.797 30.3906C265.839 30.3906 263.82 28.3919 263.742 24.3945V13.0078H260.656V8.86719H263.742V3.67188H269.387ZM288.391 30C288.13 29.4922 287.941 28.8607 287.824 28.1055C286.457 29.6289 284.68 30.3906 282.492 30.3906C280.422 30.3906 278.703 29.7917 277.336 28.5938C275.982 27.3958 275.305 25.8854 275.305 24.0625C275.305 21.8229 276.132 20.1042 277.785 18.9062C279.452 17.7083 281.854 17.1029 284.992 17.0898H287.59V15.8789C287.59 14.9023 287.336 14.1211 286.828 13.5352C286.333 12.9492 285.546 12.6562 284.465 12.6562C283.514 12.6562 282.766 12.8841 282.219 13.3398C281.685 13.7956 281.418 14.4206 281.418 15.2148H275.773C275.773 13.9909 276.151 12.8581 276.906 11.8164C277.661 10.7747 278.729 9.96094 280.109 9.375C281.49 8.77604 283.039 8.47656 284.758 8.47656C287.362 8.47656 289.426 9.13411 290.949 10.4492C292.486 11.7513 293.254 13.5872 293.254 15.957V25.1172C293.267 27.1224 293.547 28.6393 294.094 29.668V30H288.391ZM283.723 26.0742C284.556 26.0742 285.324 25.8919 286.027 25.5273C286.73 25.1497 287.251 24.6484 287.59 24.0234V20.3906H285.48C282.655 20.3906 281.151 21.3672 280.969 23.3203L280.949 23.6523C280.949 24.3555 281.197 24.9349 281.691 25.3906C282.186 25.8464 282.863 26.0742 283.723 26.0742ZM306.379 25.8398C307.421 25.8398 308.267 25.5534 308.918 24.9805C309.569 24.4076 309.908 23.6458 309.934 22.6953H315.227C315.214 24.1276 314.823 25.4427 314.055 26.6406C313.286 27.8255 312.232 28.75 310.891 29.4141C309.562 30.0651 308.091 30.3906 306.477 30.3906C303.456 30.3906 301.073 29.4336 299.328 27.5195C297.583 25.5924 296.711 22.9362 296.711 19.5508V19.1797C296.711 15.9245 297.577 13.3268 299.309 11.3867C301.04 9.44661 303.417 8.47656 306.438 8.47656C309.081 8.47656 311.197 9.23177 312.785 10.7422C314.387 12.2396 315.201 14.2383 315.227 16.7383H309.934C309.908 15.6445 309.569 14.7591 308.918 14.082C308.267 13.3919 307.408 13.0469 306.34 13.0469C305.025 13.0469 304.029 13.5286 303.352 14.4922C302.688 15.4427 302.355 16.9922 302.355 19.1406V19.7266C302.355 21.901 302.688 23.4635 303.352 24.4141C304.016 25.3646 305.025 25.8398 306.379 25.8398ZM330.695 30C330.435 29.4922 330.246 28.8607 330.129 28.1055C328.762 29.6289 326.984 30.3906 324.797 30.3906C322.727 30.3906 321.008 29.7917 319.641 28.5938C318.286 27.3958 317.609 25.8854 317.609 24.0625C317.609 21.8229 318.436 20.1042 320.09 18.9062C321.757 17.7083 324.159 17.1029 327.297 17.0898H329.895V15.8789C329.895 14.9023 329.641 14.1211 329.133 13.5352C328.638 12.9492 327.85 12.6562 326.77 12.6562C325.819 12.6562 325.07 12.8841 324.523 13.3398C323.99 13.7956 323.723 14.4206 323.723 15.2148H318.078C318.078 13.9909 318.456 12.8581 319.211 11.8164C319.966 10.7747 321.034 9.96094 322.414 9.375C323.794 8.77604 325.344 8.47656 327.062 8.47656C329.667 8.47656 331.73 9.13411 333.254 10.4492C334.79 11.7513 335.559 13.5872 335.559 15.957V25.1172C335.572 27.1224 335.852 28.6393 336.398 29.668V30H330.695ZM326.027 26.0742C326.861 26.0742 327.629 25.8919 328.332 25.5273C329.035 25.1497 329.556 24.6484 329.895 24.0234V20.3906H327.785C324.96 20.3906 323.456 21.3672 323.273 23.3203L323.254 23.6523C323.254 24.3555 323.501 24.9349 323.996 25.3906C324.491 25.8464 325.168 26.0742 326.027 26.0742ZM339.016 19.2773C339.016 15.9831 339.751 13.3594 341.223 11.4062C342.707 9.45312 344.732 8.47656 347.297 8.47656C349.354 8.47656 351.053 9.24479 352.395 10.7812V0H358.059V30H352.961L352.688 27.7539C351.281 29.5117 349.471 30.3906 347.258 30.3906C344.771 30.3906 342.772 29.4141 341.262 27.4609C339.764 25.4948 339.016 22.7669 339.016 19.2773ZM344.66 19.6875C344.66 21.6667 345.005 23.1836 345.695 24.2383C346.385 25.293 347.388 25.8203 348.703 25.8203C350.448 25.8203 351.678 25.0846 352.395 23.6133V15.2734C351.691 13.8021 350.474 13.0664 348.742 13.0664C346.021 13.0664 344.66 15.2734 344.66 19.6875ZM361.555 19.2383C361.555 17.1419 361.958 15.2734 362.766 13.6328C363.573 11.9922 364.732 10.7227 366.242 9.82422C367.766 8.92578 369.53 8.47656 371.535 8.47656C374.387 8.47656 376.711 9.34896 378.508 11.0938C380.318 12.8385 381.327 15.2083 381.535 18.2031L381.574 19.6484C381.574 22.8906 380.669 25.4948 378.859 27.4609C377.049 29.4141 374.621 30.3906 371.574 30.3906C368.527 30.3906 366.092 29.4141 364.27 27.4609C362.46 25.5078 361.555 22.8516 361.555 19.4922V19.2383ZM367.199 19.6484C367.199 21.6536 367.577 23.1901 368.332 24.2578C369.087 25.3125 370.168 25.8398 371.574 25.8398C372.941 25.8398 374.009 25.319 374.777 24.2773C375.546 23.2227 375.93 21.543 375.93 19.2383C375.93 17.2721 375.546 15.7487 374.777 14.668C374.009 13.5872 372.928 13.0469 371.535 13.0469C370.155 13.0469 369.087 13.5872 368.332 14.668C367.577 15.7357 367.199 17.3958 367.199 19.6484ZM396.496 24.1602C396.496 23.4701 396.151 22.9297 395.461 22.5391C394.784 22.1354 393.69 21.7773 392.18 21.4648C387.154 20.4102 384.641 18.2747 384.641 15.0586C384.641 13.1836 385.415 11.6211 386.965 10.3711C388.527 9.10807 390.565 8.47656 393.078 8.47656C395.76 8.47656 397.902 9.10807 399.504 10.3711C401.118 11.6341 401.926 13.2747 401.926 15.293H396.281C396.281 14.4857 396.021 13.8216 395.5 13.3008C394.979 12.7669 394.165 12.5 393.059 12.5C392.108 12.5 391.372 12.7148 390.852 13.1445C390.331 13.5742 390.07 14.1211 390.07 14.7852C390.07 15.4102 390.363 15.918 390.949 16.3086C391.548 16.6862 392.551 17.0182 393.957 17.3047C395.363 17.5781 396.548 17.8906 397.512 18.2422C400.493 19.3359 401.984 21.2305 401.984 23.9258C401.984 25.8529 401.158 27.4154 399.504 28.6133C397.85 29.7982 395.715 30.3906 393.098 30.3906C391.327 30.3906 389.751 30.0781 388.371 29.4531C387.004 28.8151 385.93 27.9492 385.148 26.8555C384.367 25.7487 383.977 24.5573 383.977 23.2812H389.328C389.38 24.2839 389.751 25.0521 390.441 25.5859C391.132 26.1198 392.056 26.3867 393.215 26.3867C394.296 26.3867 395.109 26.1849 395.656 25.7812C396.216 25.3646 396.496 24.8242 396.496 24.1602Z" fill="#3C2313"/>
</svg>
