<svg width="62" height="13" viewBox="0 0 62 13" fill="none" xmlns="http://www.w3.org/2000/svg">
<path d="M4.49219 7.39844H1.82031V12H0.3125V0.625H4.07812C5.35938 0.625 6.34375 0.916667 7.03125 1.5C7.72396 2.08333 8.07031 2.93229 8.07031 4.04688C8.07031 4.75521 7.8776 5.3724 7.49219 5.89844C7.11198 6.42448 6.58073 6.81771 5.89844 7.07812L8.57031 11.9062V12H6.96094L4.49219 7.39844ZM1.82031 6.17188H4.125C4.86979 6.17188 5.46094 5.97917 5.89844 5.59375C6.34115 5.20833 6.5625 4.69271 6.5625 4.04688C6.5625 3.34375 6.35156 2.80469 5.92969 2.42969C5.51302 2.05469 4.90885 1.86458 4.11719 1.85938H1.82031V6.17188ZM13.4609 12.1562C12.3151 12.1562 11.3828 11.7812 10.6641 11.0312C9.94531 10.276 9.58594 9.26823 9.58594 8.00781V7.74219C9.58594 6.90365 9.74479 6.15625 10.0625 5.5C10.3854 4.83854 10.8333 4.32292 11.4062 3.95312C11.9844 3.57812 12.6094 3.39062 13.2812 3.39062C14.3802 3.39062 15.2344 3.7526 15.8438 4.47656C16.4531 5.20052 16.7578 6.23698 16.7578 7.58594V8.1875H11.0312C11.0521 9.02083 11.2943 9.69531 11.7578 10.2109C12.2266 10.7214 12.8203 10.9766 13.5391 10.9766C14.0495 10.9766 14.4818 10.8724 14.8359 10.6641C15.1901 10.4557 15.5 10.1797 15.7656 9.83594L16.6484 10.5234C15.9401 11.612 14.8776 12.1562 13.4609 12.1562ZM13.2812 4.57812C12.6979 4.57812 12.2083 4.79167 11.8125 5.21875C11.4167 5.64062 11.1719 6.23438 11.0781 7H15.3125V6.89062C15.2708 6.15625 15.0729 5.58854 14.7188 5.1875C14.3646 4.78125 13.8854 4.57812 13.2812 4.57812ZM23.3594 9.75781C23.3594 9.36719 23.2109 9.0651 22.9141 8.85156C22.6224 8.63281 22.1094 8.44531 21.375 8.28906C20.6458 8.13281 20.0651 7.94531 19.6328 7.72656C19.2057 7.50781 18.888 7.2474 18.6797 6.94531C18.4766 6.64323 18.375 6.28385 18.375 5.86719C18.375 5.17448 18.6667 4.58854 19.25 4.10938C19.8385 3.63021 20.5885 3.39062 21.5 3.39062C22.4583 3.39062 23.2344 3.63802 23.8281 4.13281C24.4271 4.6276 24.7266 5.26042 24.7266 6.03125H23.2734C23.2734 5.63542 23.1042 5.29427 22.7656 5.00781C22.4323 4.72135 22.0104 4.57812 21.5 4.57812C20.974 4.57812 20.5625 4.69271 20.2656 4.92188C19.9688 5.15104 19.8203 5.45052 19.8203 5.82031C19.8203 6.16927 19.9583 6.43229 20.2344 6.60938C20.5104 6.78646 21.0078 6.95573 21.7266 7.11719C22.4505 7.27865 23.0365 7.47135 23.4844 7.69531C23.9323 7.91927 24.263 8.1901 24.4766 8.50781C24.6953 8.82031 24.8047 9.20312 24.8047 9.65625C24.8047 10.4115 24.5026 11.0182 23.8984 11.4766C23.2943 11.9297 22.5104 12.1562 21.5469 12.1562C20.8698 12.1562 20.2708 12.0365 19.75 11.7969C19.2292 11.5573 18.8203 11.224 18.5234 10.7969C18.2318 10.3646 18.0859 9.89844 18.0859 9.39844H19.5312C19.5573 9.88281 19.75 10.2682 20.1094 10.5547C20.474 10.8359 20.9531 10.9766 21.5469 10.9766C22.0938 10.9766 22.5312 10.8672 22.8594 10.6484C23.1927 10.4245 23.3594 10.1276 23.3594 9.75781ZM30.1953 12.1562C29.0495 12.1562 28.1172 11.7812 27.3984 11.0312C26.6797 10.276 26.3203 9.26823 26.3203 8.00781V7.74219C26.3203 6.90365 26.4792 6.15625 26.7969 5.5C27.1198 4.83854 27.5677 4.32292 28.1406 3.95312C28.7188 3.57812 29.3438 3.39062 30.0156 3.39062C31.1146 3.39062 31.9688 3.7526 32.5781 4.47656C33.1875 5.20052 33.4922 6.23698 33.4922 7.58594V8.1875H27.7656C27.7865 9.02083 28.0286 9.69531 28.4922 10.2109C28.9609 10.7214 29.5547 10.9766 30.2734 10.9766C30.7839 10.9766 31.2161 10.8724 31.5703 10.6641C31.9245 10.4557 32.2344 10.1797 32.5 9.83594L33.3828 10.5234C32.6745 11.612 31.612 12.1562 30.1953 12.1562ZM30.0156 4.57812C29.4323 4.57812 28.9427 4.79167 28.5469 5.21875C28.151 5.64062 27.9062 6.23438 27.8125 7H32.0469V6.89062C32.0052 6.15625 31.8073 5.58854 31.4531 5.1875C31.099 4.78125 30.6198 4.57812 30.0156 4.57812ZM37.1328 1.5V3.54688H38.7109V4.66406H37.1328V9.90625C37.1328 10.2448 37.2031 10.5 37.3438 10.6719C37.4844 10.8385 37.724 10.9219 38.0625 10.9219C38.2292 10.9219 38.4583 10.8906 38.75 10.8281V12C38.3698 12.1042 38 12.1562 37.6406 12.1562C36.9948 12.1562 36.5078 11.9609 36.1797 11.5703C35.8516 11.1797 35.6875 10.625 35.6875 9.90625V4.66406H34.1484V3.54688H35.6875V1.5H37.1328ZM43.9141 12.1562C42.7682 12.1562 41.8359 11.7812 41.1172 11.0312C40.3984 10.276 40.0391 9.26823 40.0391 8.00781V7.74219C40.0391 6.90365 40.1979 6.15625 40.5156 5.5C40.8385 4.83854 41.2865 4.32292 41.8594 3.95312C42.4375 3.57812 43.0625 3.39062 43.7344 3.39062C44.8333 3.39062 45.6875 3.7526 46.2969 4.47656C46.9062 5.20052 47.2109 6.23698 47.2109 7.58594V8.1875H41.4844C41.5052 9.02083 41.7474 9.69531 42.2109 10.2109C42.6797 10.7214 43.2734 10.9766 43.9922 10.9766C44.5026 10.9766 44.9349 10.8724 45.2891 10.6641C45.6432 10.4557 45.9531 10.1797 46.2188 9.83594L47.1016 10.5234C46.3932 11.612 45.3307 12.1562 43.9141 12.1562ZM43.7344 4.57812C43.151 4.57812 42.6615 4.79167 42.2656 5.21875C41.8698 5.64062 41.625 6.23438 41.5312 7H45.7656V6.89062C45.724 6.15625 45.526 5.58854 45.1719 5.1875C44.8177 4.78125 44.3385 4.57812 43.7344 4.57812ZM54.1094 12C54.026 11.8333 53.9583 11.5365 53.9062 11.1094C53.2344 11.8073 52.4323 12.1562 51.5 12.1562C50.6667 12.1562 49.9818 11.9219 49.4453 11.4531C48.9141 10.9792 48.6484 10.3802 48.6484 9.65625C48.6484 8.77604 48.9818 8.09375 49.6484 7.60938C50.3203 7.11979 51.263 6.875 52.4766 6.875H53.8828V6.21094C53.8828 5.70573 53.7318 5.30469 53.4297 5.00781C53.1276 4.70573 52.6823 4.55469 52.0938 4.55469C51.5781 4.55469 51.1458 4.6849 50.7969 4.94531C50.4479 5.20573 50.2734 5.52083 50.2734 5.89062H48.8203C48.8203 5.46875 48.9688 5.0625 49.2656 4.67188C49.5677 4.27604 49.974 3.96354 50.4844 3.73438C51 3.50521 51.5651 3.39062 52.1797 3.39062C53.1536 3.39062 53.9167 3.63542 54.4688 4.125C55.0208 4.60938 55.3073 5.27865 55.3281 6.13281V10.0234C55.3281 10.7995 55.4271 11.4167 55.625 11.875V12H54.1094ZM51.7109 10.8984C52.1641 10.8984 52.5938 10.7812 53 10.5469C53.4062 10.3125 53.7005 10.0078 53.8828 9.63281V7.89844H52.75C50.9792 7.89844 50.0938 8.41667 50.0938 9.45312C50.0938 9.90625 50.2448 10.2604 50.5469 10.5156C50.849 10.7708 51.237 10.8984 51.7109 10.8984ZM61.6797 4.84375C61.4609 4.80729 61.224 4.78906 60.9688 4.78906C60.0208 4.78906 59.3776 5.19271 59.0391 6V12H57.5938V3.54688H59L59.0234 4.52344C59.4974 3.76823 60.1693 3.39062 61.0391 3.39062C61.3203 3.39062 61.5339 3.42708 61.6797 3.5V4.84375Z" fill="white"/>
</svg>
