<svg width="287" height="20" viewBox="0 0 287 20" fill="none" xmlns="http://www.w3.org/2000/svg">
<path d="M8.64258 11.2695C8.64258 10.7161 8.44727 10.293 8.05664 10C7.66602 9.70052 6.96289 9.38802 5.94727 9.0625C4.93164 8.73047 4.1276 8.40495 3.53516 8.08594C1.92057 7.21354 1.11328 6.03841 1.11328 4.56055C1.11328 3.79232 1.32812 3.10872 1.75781 2.50977C2.19401 1.9043 2.81576 1.43229 3.62305 1.09375C4.43685 0.755208 5.34831 0.585938 6.35742 0.585938C7.37305 0.585938 8.27799 0.771484 9.07227 1.14258C9.86654 1.50716 10.4818 2.02474 10.918 2.69531C11.3607 3.36589 11.582 4.1276 11.582 4.98047H8.65234C8.65234 4.32943 8.44727 3.82487 8.03711 3.4668C7.62695 3.10221 7.05078 2.91992 6.30859 2.91992C5.59245 2.91992 5.03581 3.07292 4.63867 3.37891C4.24154 3.67839 4.04297 4.07552 4.04297 4.57031C4.04297 5.03255 4.27409 5.41992 4.73633 5.73242C5.20508 6.04492 5.89193 6.33789 6.79688 6.61133C8.46354 7.11263 9.67773 7.73438 10.4395 8.47656C11.2012 9.21875 11.582 10.1432 11.582 11.25C11.582 12.4805 11.1165 13.4473 10.1855 14.1504C9.25456 14.847 8.0013 15.1953 6.42578 15.1953C5.33203 15.1953 4.33594 14.9967 3.4375 14.5996C2.53906 14.196 1.85221 13.6458 1.37695 12.9492C0.908203 12.2526 0.673828 11.4453 0.673828 10.5273H3.61328C3.61328 12.0964 4.55078 12.8809 6.42578 12.8809C7.1224 12.8809 7.66602 12.7409 8.05664 12.4609C8.44727 12.1745 8.64258 11.7773 8.64258 11.2695ZM19.7168 13.9258C19.0202 14.7721 18.0566 15.1953 16.8262 15.1953C15.6934 15.1953 14.8275 14.8698 14.2285 14.2188C13.6361 13.5677 13.3333 12.6139 13.3203 11.3574V4.43359H16.1426V11.2598C16.1426 12.36 16.6439 12.9102 17.6465 12.9102C18.6035 12.9102 19.2611 12.5781 19.6191 11.9141V4.43359H22.4512V15H19.7949L19.7168 13.9258ZM30.3027 12.0801C30.3027 11.735 30.1302 11.4648 29.7852 11.2695C29.4466 11.0677 28.8997 10.8887 28.1445 10.7324C25.6315 10.2051 24.375 9.13737 24.375 7.5293C24.375 6.5918 24.7624 5.81055 25.5371 5.18555C26.3184 4.55404 27.3372 4.23828 28.5938 4.23828C29.9349 4.23828 31.0059 4.55404 31.8066 5.18555C32.6139 5.81706 33.0176 6.63737 33.0176 7.64648H30.1953C30.1953 7.24284 30.0651 6.91081 29.8047 6.65039C29.5443 6.38346 29.1374 6.25 28.584 6.25C28.1087 6.25 27.7409 6.35742 27.4805 6.57227C27.2201 6.78711 27.0898 7.06055 27.0898 7.39258C27.0898 7.70508 27.2363 7.95898 27.5293 8.1543C27.8288 8.3431 28.3301 8.50911 29.0332 8.65234C29.7363 8.78906 30.3288 8.94531 30.8105 9.12109C32.3014 9.66797 33.0469 10.6152 33.0469 11.9629C33.0469 12.9264 32.6335 13.7077 31.8066 14.3066C30.9798 14.8991 29.9121 15.1953 28.6035 15.1953C27.7181 15.1953 26.9303 15.0391 26.2402 14.7266C25.5566 14.4076 25.0195 13.9746 24.6289 13.4277C24.2383 12.8743 24.043 12.2786 24.043 11.6406H26.7188C26.7448 12.1419 26.9303 12.526 27.2754 12.793C27.6204 13.0599 28.0827 13.1934 28.6621 13.1934C29.2025 13.1934 29.6094 13.0924 29.8828 12.8906C30.1628 12.6823 30.3027 12.4121 30.3027 12.0801ZM39.2676 12.9199C39.7884 12.9199 40.2116 12.7767 40.5371 12.4902C40.8626 12.2038 41.0319 11.8229 41.0449 11.3477H43.6914C43.6849 12.0638 43.4896 12.7214 43.1055 13.3203C42.7214 13.9128 42.194 14.375 41.5234 14.707C40.8594 15.0326 40.1237 15.1953 39.3164 15.1953C37.806 15.1953 36.6146 14.7168 35.7422 13.7598C34.8698 12.7962 34.4336 11.4681 34.4336 9.77539V9.58984C34.4336 7.96224 34.8665 6.66341 35.7324 5.69336C36.5983 4.72331 37.7865 4.23828 39.2969 4.23828C40.6185 4.23828 41.6764 4.61589 42.4707 5.37109C43.2715 6.11979 43.6784 7.11914 43.6914 8.36914H41.0449C41.0319 7.82227 40.8626 7.37956 40.5371 7.04102C40.2116 6.69596 39.7819 6.52344 39.248 6.52344C38.5905 6.52344 38.0924 6.76432 37.7539 7.24609C37.4219 7.72135 37.2559 8.49609 37.2559 9.57031V9.86328C37.2559 10.9505 37.4219 11.7318 37.7539 12.207C38.0859 12.6823 38.5905 12.9199 39.2676 12.9199ZM51.2402 7.08008C50.8561 7.02799 50.5176 7.00195 50.2246 7.00195C49.1569 7.00195 48.457 7.36328 48.125 8.08594V15H45.3027V4.43359H47.9688L48.0469 5.69336C48.6133 4.72331 49.3978 4.23828 50.4004 4.23828C50.7129 4.23828 51.0059 4.2806 51.2793 4.36523L51.2402 7.08008ZM55.6543 15H52.832V4.43359H55.6543V15ZM54.8242 0.146484H57.9004L55.1953 3.17383H52.9004L54.8242 0.146484ZM67.6172 9.81445C67.6172 11.5072 67.2559 12.8288 66.5332 13.7793C65.8105 14.7233 64.8014 15.1953 63.5059 15.1953C62.36 15.1953 61.4453 14.7559 60.7617 13.877L60.6348 15H58.0957V0H60.918V5.38086C61.569 4.61914 62.4251 4.23828 63.4863 4.23828C64.7754 4.23828 65.7845 4.71354 66.5137 5.66406C67.2493 6.60807 67.6172 7.93945 67.6172 9.6582V9.81445ZM64.7949 9.60938C64.7949 8.54167 64.6257 7.76367 64.2871 7.27539C63.9486 6.7806 63.444 6.5332 62.7734 6.5332C61.875 6.5332 61.2565 6.90104 60.918 7.63672V11.8066C61.263 12.5488 61.888 12.9199 62.793 12.9199C63.7044 12.9199 64.3034 12.4707 64.5898 11.5723C64.7266 11.1426 64.7949 10.4883 64.7949 9.60938ZM74.2285 15.1953C72.679 15.1953 71.416 14.7201 70.4395 13.7695C69.4694 12.819 68.9844 11.5527 68.9844 9.9707V9.69727C68.9844 8.63607 69.1895 7.6888 69.5996 6.85547C70.0098 6.01562 70.5892 5.37109 71.3379 4.92188C72.0931 4.46615 72.9525 4.23828 73.916 4.23828C75.3613 4.23828 76.4974 4.69401 77.3242 5.60547C78.1576 6.51693 78.5742 7.80924 78.5742 9.48242V10.6348H71.8457C71.9368 11.3249 72.2103 11.8783 72.666 12.2949C73.1283 12.7116 73.7109 12.9199 74.4141 12.9199C75.5013 12.9199 76.3509 12.526 76.9629 11.7383L78.3496 13.291C77.9264 13.89 77.3535 14.3587 76.6309 14.6973C75.9082 15.0293 75.1074 15.1953 74.2285 15.1953ZM73.9062 6.52344C73.3464 6.52344 72.8906 6.71224 72.5391 7.08984C72.194 7.46745 71.9727 8.00781 71.875 8.71094H75.8008V8.48633C75.7878 7.86133 75.6185 7.37956 75.293 7.04102C74.9674 6.69596 74.5052 6.52344 73.9062 6.52344ZM83.5645 1.83594V4.43359H85.3711V6.50391H83.5645V11.7773C83.5645 12.168 83.6393 12.4479 83.7891 12.6172C83.9388 12.7865 84.2253 12.8711 84.6484 12.8711C84.9609 12.8711 85.2376 12.8483 85.4785 12.8027V14.9414C84.9251 15.1107 84.3555 15.1953 83.7695 15.1953C81.7904 15.1953 80.7812 14.196 80.7422 12.1973V6.50391H79.1992V4.43359H80.7422V1.83594H83.5645ZM91.8066 15.1953C90.2572 15.1953 88.9941 14.7201 88.0176 13.7695C87.0475 12.819 86.5625 11.5527 86.5625 9.9707V9.69727C86.5625 8.63607 86.7676 7.6888 87.1777 6.85547C87.5879 6.01562 88.1673 5.37109 88.916 4.92188C89.6712 4.46615 90.5306 4.23828 91.4941 4.23828C92.9395 4.23828 94.0755 4.69401 94.9023 5.60547C95.7357 6.51693 96.1523 7.80924 96.1523 9.48242V10.6348H89.4238C89.515 11.3249 89.7884 11.8783 90.2441 12.2949C90.7064 12.7116 91.2891 12.9199 91.9922 12.9199C93.0794 12.9199 93.929 12.526 94.541 11.7383L95.9277 13.291C95.5046 13.89 94.9316 14.3587 94.209 14.6973C93.4863 15.0293 92.6855 15.1953 91.8066 15.1953ZM91.4844 6.52344C90.9245 6.52344 90.4688 6.71224 90.1172 7.08984C89.7721 7.46745 89.5508 8.00781 89.4531 8.71094H93.3789V8.48633C93.3659 7.86133 93.1966 7.37956 92.8711 7.04102C92.5456 6.69596 92.0833 6.52344 91.4844 6.52344ZM112.256 9.81445C112.256 11.4421 111.885 12.7474 111.143 13.7305C110.407 14.707 109.411 15.1953 108.154 15.1953C107.087 15.1953 106.224 14.8242 105.566 14.082V19.0625H102.744V4.43359H105.361L105.459 5.46875C106.143 4.64844 107.035 4.23828 108.135 4.23828C109.437 4.23828 110.449 4.72005 111.172 5.68359C111.895 6.64714 112.256 7.97526 112.256 9.66797V9.81445ZM109.434 9.60938C109.434 8.6263 109.258 7.86784 108.906 7.33398C108.561 6.80013 108.057 6.5332 107.393 6.5332C106.507 6.5332 105.898 6.87174 105.566 7.54883V11.875C105.911 12.5716 106.527 12.9199 107.412 12.9199C108.76 12.9199 109.434 11.8164 109.434 9.60938ZM120.137 15C120.007 14.7461 119.912 14.4303 119.854 14.0527C119.17 14.8145 118.281 15.1953 117.188 15.1953C116.152 15.1953 115.293 14.8958 114.609 14.2969C113.932 13.6979 113.594 12.9427 113.594 12.0312C113.594 10.9115 114.007 10.0521 114.834 9.45312C115.667 8.85417 116.868 8.55143 118.438 8.54492H119.736V7.93945C119.736 7.45117 119.609 7.06055 119.355 6.76758C119.108 6.47461 118.714 6.32812 118.174 6.32812C117.699 6.32812 117.324 6.44206 117.051 6.66992C116.784 6.89779 116.65 7.21029 116.65 7.60742H113.828C113.828 6.99544 114.017 6.42904 114.395 5.9082C114.772 5.38737 115.306 4.98047 115.996 4.6875C116.686 4.38802 117.461 4.23828 118.32 4.23828C119.622 4.23828 120.654 4.56706 121.416 5.22461C122.184 5.87565 122.568 6.79362 122.568 7.97852V12.5586C122.575 13.5612 122.715 14.3197 122.988 14.834V15H120.137ZM117.803 13.0371C118.219 13.0371 118.604 12.946 118.955 12.7637C119.307 12.5749 119.567 12.3242 119.736 12.0117V10.1953H118.682C117.269 10.1953 116.517 10.6836 116.426 11.6602L116.416 11.8262C116.416 12.1777 116.54 12.4674 116.787 12.6953C117.035 12.9232 117.373 13.0371 117.803 13.0371ZM130.674 7.08008C130.29 7.02799 129.951 7.00195 129.658 7.00195C128.59 7.00195 127.891 7.36328 127.559 8.08594V15H124.736V4.43359H127.402L127.48 5.69336C128.047 4.72331 128.831 4.23828 129.834 4.23828C130.146 4.23828 130.439 4.2806 130.713 4.36523L130.674 7.08008ZM137.871 15C137.741 14.7461 137.646 14.4303 137.588 14.0527C136.904 14.8145 136.016 15.1953 134.922 15.1953C133.887 15.1953 133.027 14.8958 132.344 14.2969C131.667 13.6979 131.328 12.9427 131.328 12.0312C131.328 10.9115 131.742 10.0521 132.568 9.45312C133.402 8.85417 134.603 8.55143 136.172 8.54492H137.471V7.93945C137.471 7.45117 137.344 7.06055 137.09 6.76758C136.842 6.47461 136.449 6.32812 135.908 6.32812C135.433 6.32812 135.059 6.44206 134.785 6.66992C134.518 6.89779 134.385 7.21029 134.385 7.60742H131.562C131.562 6.99544 131.751 6.42904 132.129 5.9082C132.507 5.38737 133.04 4.98047 133.73 4.6875C134.421 4.38802 135.195 4.23828 136.055 4.23828C137.357 4.23828 138.389 4.56706 139.15 5.22461C139.919 5.87565 140.303 6.79362 140.303 7.97852V12.5586C140.309 13.5612 140.449 14.3197 140.723 14.834V15H137.871ZM135.537 13.0371C135.954 13.0371 136.338 12.946 136.689 12.7637C137.041 12.5749 137.301 12.3242 137.471 12.0117V10.1953H136.416C135.003 10.1953 134.251 10.6836 134.16 11.6602L134.15 11.8262C134.15 12.1777 134.274 12.4674 134.521 12.6953C134.769 12.9232 135.107 13.0371 135.537 13.0371ZM150.098 4.43359L150.186 5.61523C150.934 4.69727 151.947 4.23828 153.223 4.23828C154.583 4.23828 155.518 4.77539 156.025 5.84961C156.768 4.77539 157.826 4.23828 159.199 4.23828C160.345 4.23828 161.198 4.57357 161.758 5.24414C162.318 5.9082 162.598 6.91081 162.598 8.25195V15H159.766V8.26172C159.766 7.66276 159.648 7.22656 159.414 6.95312C159.18 6.67318 158.766 6.5332 158.174 6.5332C157.327 6.5332 156.742 6.93685 156.416 7.74414L156.426 15H153.604V8.27148C153.604 7.65951 153.483 7.2168 153.242 6.94336C153.001 6.66992 152.591 6.5332 152.012 6.5332C151.211 6.5332 150.632 6.86523 150.273 7.5293V15H147.451V4.43359H150.098ZM170.898 15C170.768 14.7461 170.674 14.4303 170.615 14.0527C169.932 14.8145 169.043 15.1953 167.949 15.1953C166.914 15.1953 166.055 14.8958 165.371 14.2969C164.694 13.6979 164.355 12.9427 164.355 12.0312C164.355 10.9115 164.769 10.0521 165.596 9.45312C166.429 8.85417 167.63 8.55143 169.199 8.54492H170.498V7.93945C170.498 7.45117 170.371 7.06055 170.117 6.76758C169.87 6.47461 169.476 6.32812 168.936 6.32812C168.46 6.32812 168.086 6.44206 167.812 6.66992C167.546 6.89779 167.412 7.21029 167.412 7.60742H164.59C164.59 6.99544 164.779 6.42904 165.156 5.9082C165.534 5.38737 166.068 4.98047 166.758 4.6875C167.448 4.38802 168.223 4.23828 169.082 4.23828C170.384 4.23828 171.416 4.56706 172.178 5.22461C172.946 5.87565 173.33 6.79362 173.33 7.97852V12.5586C173.337 13.5612 173.477 14.3197 173.75 14.834V15H170.898ZM168.564 13.0371C168.981 13.0371 169.365 12.946 169.717 12.7637C170.068 12.5749 170.329 12.3242 170.498 12.0117V10.1953H169.443C168.031 10.1953 167.279 10.6836 167.188 11.6602L167.178 11.8262C167.178 12.1777 167.301 12.4674 167.549 12.6953C167.796 12.9232 168.135 13.0371 168.564 13.0371ZM169.639 0H172.715L170.01 3.02734H167.715L169.639 0ZM181.221 12.0801C181.221 11.735 181.048 11.4648 180.703 11.2695C180.365 11.0677 179.818 10.8887 179.062 10.7324C176.549 10.2051 175.293 9.13737 175.293 7.5293C175.293 6.5918 175.68 5.81055 176.455 5.18555C177.236 4.55404 178.255 4.23828 179.512 4.23828C180.853 4.23828 181.924 4.55404 182.725 5.18555C183.532 5.81706 183.936 6.63737 183.936 7.64648H181.113C181.113 7.24284 180.983 6.91081 180.723 6.65039C180.462 6.38346 180.055 6.25 179.502 6.25C179.027 6.25 178.659 6.35742 178.398 6.57227C178.138 6.78711 178.008 7.06055 178.008 7.39258C178.008 7.70508 178.154 7.95898 178.447 8.1543C178.747 8.3431 179.248 8.50911 179.951 8.65234C180.654 8.78906 181.247 8.94531 181.729 9.12109C183.219 9.66797 183.965 10.6152 183.965 11.9629C183.965 12.9264 183.551 13.7077 182.725 14.3066C181.898 14.8991 180.83 15.1953 179.521 15.1953C178.636 15.1953 177.848 15.0391 177.158 14.7266C176.475 14.4076 175.938 13.9746 175.547 13.4277C175.156 12.8743 174.961 12.2786 174.961 11.6406H177.637C177.663 12.1419 177.848 12.526 178.193 12.793C178.538 13.0599 179.001 13.1934 179.58 13.1934C180.12 13.1934 180.527 13.0924 180.801 12.8906C181.081 12.6823 181.221 12.4121 181.221 12.0801ZM193.369 4.43359L193.457 5.6543C194.212 4.71029 195.225 4.23828 196.494 4.23828C197.614 4.23828 198.447 4.56706 198.994 5.22461C199.541 5.88216 199.821 6.86523 199.834 8.17383V15H197.012V8.24219C197.012 7.64323 196.882 7.21029 196.621 6.94336C196.361 6.66992 195.928 6.5332 195.322 6.5332C194.528 6.5332 193.932 6.87174 193.535 7.54883V15H190.713V4.43359H193.369ZM201.543 9.61914C201.543 8.57096 201.745 7.63672 202.148 6.81641C202.552 5.99609 203.132 5.36133 203.887 4.91211C204.648 4.46289 205.531 4.23828 206.533 4.23828C207.959 4.23828 209.121 4.67448 210.02 5.54688C210.924 6.41927 211.429 7.60417 211.533 9.10156L211.553 9.82422C211.553 11.4453 211.1 12.7474 210.195 13.7305C209.29 14.707 208.076 15.1953 206.553 15.1953C205.029 15.1953 203.812 14.707 202.9 13.7305C201.995 12.7539 201.543 11.4258 201.543 9.74609V9.61914ZM204.365 9.82422C204.365 10.8268 204.554 11.5951 204.932 12.1289C205.309 12.6562 205.85 12.9199 206.553 12.9199C207.236 12.9199 207.77 12.6595 208.154 12.1387C208.538 11.6113 208.73 10.7715 208.73 9.61914C208.73 8.63607 208.538 7.87435 208.154 7.33398C207.77 6.79362 207.23 6.52344 206.533 6.52344C205.843 6.52344 205.309 6.79362 204.932 7.33398C204.554 7.86784 204.365 8.69792 204.365 9.82422ZM217.09 11.5527L219.053 4.43359H222.002L218.438 15H215.742L212.178 4.43359H215.127L217.09 11.5527ZM227.979 15.1953C226.429 15.1953 225.166 14.7201 224.189 13.7695C223.219 12.819 222.734 11.5527 222.734 9.9707V9.69727C222.734 8.63607 222.939 7.6888 223.35 6.85547C223.76 6.01562 224.339 5.37109 225.088 4.92188C225.843 4.46615 226.702 4.23828 227.666 4.23828C229.111 4.23828 230.247 4.69401 231.074 5.60547C231.908 6.51693 232.324 7.80924 232.324 9.48242V10.6348H225.596C225.687 11.3249 225.96 11.8783 226.416 12.2949C226.878 12.7116 227.461 12.9199 228.164 12.9199C229.251 12.9199 230.101 12.526 230.713 11.7383L232.1 13.291C231.676 13.89 231.104 14.3587 230.381 14.6973C229.658 15.0293 228.857 15.1953 227.979 15.1953ZM227.656 6.52344C227.096 6.52344 226.641 6.71224 226.289 7.08984C225.944 7.46745 225.723 8.00781 225.625 8.71094H229.551V8.48633C229.538 7.86133 229.368 7.37956 229.043 7.04102C228.717 6.69596 228.255 6.52344 227.656 6.52344ZM233.496 9.63867C233.496 7.99154 233.864 6.67969 234.6 5.70312C235.342 4.72656 236.354 4.23828 237.637 4.23828C238.665 4.23828 239.515 4.6224 240.186 5.39062V0H243.018V15H240.469L240.332 13.877C239.629 14.7559 238.724 15.1953 237.617 15.1953C236.374 15.1953 235.374 14.707 234.619 13.7305C233.87 12.7474 233.496 11.3835 233.496 9.63867ZM236.318 9.84375C236.318 10.8333 236.491 11.5918 236.836 12.1191C237.181 12.6465 237.682 12.9102 238.34 12.9102C239.212 12.9102 239.827 12.5423 240.186 11.8066V7.63672C239.834 6.90104 239.225 6.5332 238.359 6.5332C236.999 6.5332 236.318 7.63672 236.318 9.84375ZM251.328 15C251.198 14.7461 251.104 14.4303 251.045 14.0527C250.361 14.8145 249.473 15.1953 248.379 15.1953C247.344 15.1953 246.484 14.8958 245.801 14.2969C245.124 13.6979 244.785 12.9427 244.785 12.0312C244.785 10.9115 245.199 10.0521 246.025 9.45312C246.859 8.85417 248.06 8.55143 249.629 8.54492H250.928V7.93945C250.928 7.45117 250.801 7.06055 250.547 6.76758C250.299 6.47461 249.906 6.32812 249.365 6.32812C248.89 6.32812 248.516 6.44206 248.242 6.66992C247.975 6.89779 247.842 7.21029 247.842 7.60742H245.02C245.02 6.99544 245.208 6.42904 245.586 5.9082C245.964 5.38737 246.497 4.98047 247.188 4.6875C247.878 4.38802 248.652 4.23828 249.512 4.23828C250.814 4.23828 251.846 4.56706 252.607 5.22461C253.376 5.87565 253.76 6.79362 253.76 7.97852V12.5586C253.766 13.5612 253.906 14.3197 254.18 14.834V15H251.328ZM248.994 13.0371C249.411 13.0371 249.795 12.946 250.146 12.7637C250.498 12.5749 250.758 12.3242 250.928 12.0117V10.1953H249.873C248.46 10.1953 247.708 10.6836 247.617 11.6602L247.607 11.8262C247.607 12.1777 247.731 12.4674 247.979 12.6953C248.226 12.9232 248.564 13.0371 248.994 13.0371ZM255.488 9.63867C255.488 7.99154 255.856 6.67969 256.592 5.70312C257.334 4.72656 258.346 4.23828 259.629 4.23828C260.658 4.23828 261.507 4.6224 262.178 5.39062V0H265.01V15H262.461L262.324 13.877C261.621 14.7559 260.716 15.1953 259.609 15.1953C258.366 15.1953 257.367 14.707 256.611 13.7305C255.863 12.7474 255.488 11.3835 255.488 9.63867ZM258.311 9.84375C258.311 10.8333 258.483 11.5918 258.828 12.1191C259.173 12.6465 259.674 12.9102 260.332 12.9102C261.204 12.9102 261.82 12.5423 262.178 11.8066V7.63672C261.826 6.90104 261.217 6.5332 260.352 6.5332C258.991 6.5332 258.311 7.63672 258.311 9.84375ZM272.061 15.1953C270.511 15.1953 269.248 14.7201 268.271 13.7695C267.301 12.819 266.816 11.5527 266.816 9.9707V9.69727C266.816 8.63607 267.021 7.6888 267.432 6.85547C267.842 6.01562 268.421 5.37109 269.17 4.92188C269.925 4.46615 270.785 4.23828 271.748 4.23828C273.193 4.23828 274.329 4.69401 275.156 5.60547C275.99 6.51693 276.406 7.80924 276.406 9.48242V10.6348H269.678C269.769 11.3249 270.042 11.8783 270.498 12.2949C270.96 12.7116 271.543 12.9199 272.246 12.9199C273.333 12.9199 274.183 12.526 274.795 11.7383L276.182 13.291C275.758 13.89 275.186 14.3587 274.463 14.6973C273.74 15.0293 272.939 15.1953 272.061 15.1953ZM271.738 6.52344C271.178 6.52344 270.723 6.71224 270.371 7.08984C270.026 7.46745 269.805 8.00781 269.707 8.71094H273.633V8.48633C273.62 7.86133 273.451 7.37956 273.125 7.04102C272.799 6.69596 272.337 6.52344 271.738 6.52344ZM283.74 12.0801C283.74 11.735 283.568 11.4648 283.223 11.2695C282.884 11.0677 282.337 10.8887 281.582 10.7324C279.069 10.2051 277.812 9.13737 277.812 7.5293C277.812 6.5918 278.2 5.81055 278.975 5.18555C279.756 4.55404 280.775 4.23828 282.031 4.23828C283.372 4.23828 284.443 4.55404 285.244 5.18555C286.051 5.81706 286.455 6.63737 286.455 7.64648H283.633C283.633 7.24284 283.503 6.91081 283.242 6.65039C282.982 6.38346 282.575 6.25 282.021 6.25C281.546 6.25 281.178 6.35742 280.918 6.57227C280.658 6.78711 280.527 7.06055 280.527 7.39258C280.527 7.70508 280.674 7.95898 280.967 8.1543C281.266 8.3431 281.768 8.50911 282.471 8.65234C283.174 8.78906 283.766 8.94531 284.248 9.12109C285.739 9.66797 286.484 10.6152 286.484 11.9629C286.484 12.9264 286.071 13.7077 285.244 14.3066C284.417 14.8991 283.35 15.1953 282.041 15.1953C281.156 15.1953 280.368 15.0391 279.678 14.7266C278.994 14.4076 278.457 13.9746 278.066 13.4277C277.676 12.8743 277.48 12.2786 277.48 11.6406H280.156C280.182 12.1419 280.368 12.526 280.713 12.793C281.058 13.0599 281.52 13.1934 282.1 13.1934C282.64 13.1934 283.047 13.0924 283.32 12.8906C283.6 12.6823 283.74 12.4121 283.74 12.0801Z" fill="white"/>
</svg>
