<svg width="49" height="8" viewBox="0 0 49 8" fill="none" xmlns="http://www.w3.org/2000/svg">
<path d="M3.88916 5.32129C3.88916 5.07227 3.80127 4.88184 3.62549 4.75C3.44971 4.61523 3.1333 4.47461 2.67627 4.32812C2.21924 4.17871 1.85742 4.03223 1.59082 3.88867C0.864258 3.49609 0.500977 2.96729 0.500977 2.30225C0.500977 1.95654 0.597656 1.64893 0.791016 1.37939C0.987305 1.10693 1.26709 0.894531 1.63037 0.742188C1.99658 0.589844 2.40674 0.513672 2.86084 0.513672C3.31787 0.513672 3.7251 0.597168 4.08252 0.76416C4.43994 0.928223 4.7168 1.16113 4.91309 1.46289C5.1123 1.76465 5.21191 2.10742 5.21191 2.49121H3.89355C3.89355 2.19824 3.80127 1.97119 3.6167 1.81006C3.43213 1.646 3.17285 1.56396 2.83887 1.56396C2.5166 1.56396 2.26611 1.63281 2.0874 1.77051C1.90869 1.90527 1.81934 2.08398 1.81934 2.30664C1.81934 2.51465 1.92334 2.68896 2.13135 2.82959C2.34229 2.97021 2.65137 3.10205 3.05859 3.2251C3.80859 3.45068 4.35498 3.73047 4.69775 4.06445C5.04053 4.39844 5.21191 4.81445 5.21191 5.3125C5.21191 5.86621 5.00244 6.30127 4.5835 6.61768C4.16455 6.93115 3.60059 7.08789 2.8916 7.08789C2.39941 7.08789 1.95117 6.99854 1.54688 6.81982C1.14258 6.63818 0.833496 6.39062 0.619629 6.07715C0.408691 5.76367 0.303223 5.40039 0.303223 4.9873H1.62598C1.62598 5.69336 2.04785 6.04639 2.8916 6.04639C3.20508 6.04639 3.44971 5.9834 3.62549 5.85742C3.80127 5.72852 3.88916 5.5498 3.88916 5.32129ZM8.87256 6.5166C8.55908 6.89746 8.12549 7.08789 7.57178 7.08789C7.06201 7.08789 6.67236 6.94141 6.40283 6.64844C6.13623 6.35547 6 5.92627 5.99414 5.36084V2.24512H7.26416V5.31689C7.26416 5.81201 7.48975 6.05957 7.94092 6.05957C8.37158 6.05957 8.66748 5.91016 8.82861 5.61133V2.24512H10.103V7H8.90771L8.87256 6.5166ZM13.6362 5.68604C13.6362 5.53076 13.5586 5.40918 13.4033 5.32129C13.251 5.23047 13.0049 5.1499 12.665 5.07959C11.5342 4.84229 10.9688 4.36182 10.9688 3.63818C10.9688 3.21631 11.1431 2.86475 11.4917 2.5835C11.8433 2.29932 12.3018 2.15723 12.8672 2.15723C13.4707 2.15723 13.9526 2.29932 14.313 2.5835C14.6763 2.86768 14.8579 3.23682 14.8579 3.69092H13.5879C13.5879 3.50928 13.5293 3.35986 13.4121 3.24268C13.2949 3.12256 13.1118 3.0625 12.8628 3.0625C12.6489 3.0625 12.4834 3.11084 12.3662 3.20752C12.249 3.3042 12.1904 3.42725 12.1904 3.57666C12.1904 3.71729 12.2563 3.83154 12.3882 3.91943C12.5229 4.00439 12.7485 4.0791 13.0649 4.14355C13.3813 4.20508 13.6479 4.27539 13.8647 4.35449C14.5356 4.60059 14.8711 5.02686 14.8711 5.6333C14.8711 6.06689 14.6851 6.41846 14.313 6.68799C13.9409 6.95459 13.4604 7.08789 12.8716 7.08789C12.4731 7.08789 12.1187 7.01758 11.8081 6.87695C11.5005 6.7334 11.2588 6.53857 11.083 6.29248C10.9072 6.04346 10.8193 5.77539 10.8193 5.48828H12.0234C12.0352 5.71387 12.1187 5.88672 12.2739 6.00684C12.4292 6.12695 12.6372 6.18701 12.8979 6.18701C13.1411 6.18701 13.3242 6.1416 13.4473 6.05078C13.5732 5.95703 13.6362 5.83545 13.6362 5.68604ZM17.6704 6.06396C17.9048 6.06396 18.0952 5.99951 18.2417 5.87061C18.3882 5.7417 18.4644 5.57031 18.4702 5.35645H19.6611C19.6582 5.67871 19.5703 5.97461 19.3975 6.24414C19.2246 6.51074 18.9873 6.71875 18.6855 6.86816C18.3867 7.01465 18.0557 7.08789 17.6924 7.08789C17.0127 7.08789 16.4766 6.87256 16.084 6.44189C15.6914 6.0083 15.4951 5.41064 15.4951 4.64893V4.56543C15.4951 3.83301 15.6899 3.24854 16.0796 2.81201C16.4692 2.37549 17.0039 2.15723 17.6836 2.15723C18.2783 2.15723 18.7544 2.32715 19.1118 2.66699C19.4722 3.00391 19.6553 3.45361 19.6611 4.01611H18.4702C18.4644 3.77002 18.3882 3.5708 18.2417 3.41846C18.0952 3.26318 17.9019 3.18555 17.6616 3.18555C17.3657 3.18555 17.1416 3.29395 16.9893 3.51074C16.8398 3.72461 16.7651 4.07324 16.7651 4.55664V4.68848C16.7651 5.17773 16.8398 5.5293 16.9893 5.74316C17.1387 5.95703 17.3657 6.06396 17.6704 6.06396ZM23.0581 3.43604C22.8853 3.4126 22.7329 3.40088 22.6011 3.40088C22.1206 3.40088 21.8057 3.56348 21.6562 3.88867V7H20.3862V2.24512H21.5859L21.6211 2.81201C21.876 2.37549 22.229 2.15723 22.6802 2.15723C22.8208 2.15723 22.9526 2.17627 23.0757 2.21436L23.0581 3.43604ZM25.0137 7H23.7393V2.24512H25.0137V7ZM23.6646 1.01465C23.6646 0.824219 23.7275 0.66748 23.8535 0.544434C23.9824 0.421387 24.1567 0.359863 24.3765 0.359863C24.5933 0.359863 24.7661 0.421387 24.895 0.544434C25.0239 0.66748 25.0884 0.824219 25.0884 1.01465C25.0884 1.20801 25.0225 1.36621 24.8906 1.48926C24.7617 1.6123 24.5903 1.67383 24.3765 1.67383C24.1626 1.67383 23.9897 1.6123 23.8579 1.48926C23.729 1.36621 23.6646 1.20801 23.6646 1.01465ZM30.3486 4.6665C30.3486 5.42822 30.186 6.02295 29.8608 6.45068C29.5356 6.87549 29.0815 7.08789 28.4985 7.08789C27.9829 7.08789 27.5713 6.89014 27.2637 6.49463L27.2065 7H26.064V0.25H27.334V2.67139C27.627 2.32861 28.0122 2.15723 28.4897 2.15723C29.0698 2.15723 29.5239 2.37109 29.8521 2.79883C30.1831 3.22363 30.3486 3.82275 30.3486 4.59619V4.6665ZM29.0786 4.57422C29.0786 4.09375 29.0024 3.74365 28.8501 3.52393C28.6978 3.30127 28.4707 3.18994 28.1689 3.18994C27.7646 3.18994 27.4863 3.35547 27.334 3.68652V5.56299C27.4893 5.89697 27.7705 6.06396 28.1777 6.06396C28.5879 6.06396 28.8574 5.86182 28.9863 5.45752C29.0479 5.26416 29.0786 4.96973 29.0786 4.57422ZM32.4756 7H31.2012V2.24512H32.4756V7ZM31.1265 1.01465C31.1265 0.824219 31.1895 0.66748 31.3154 0.544434C31.4443 0.421387 31.6187 0.359863 31.8384 0.359863C32.0552 0.359863 32.228 0.421387 32.3569 0.544434C32.4858 0.66748 32.5503 0.824219 32.5503 1.01465C32.5503 1.20801 32.4844 1.36621 32.3525 1.48926C32.2236 1.6123 32.0522 1.67383 31.8384 1.67383C31.6245 1.67383 31.4517 1.6123 31.3198 1.48926C31.1909 1.36621 31.1265 1.20801 31.1265 1.01465ZM36.1978 3.43604C36.0249 3.4126 35.8726 3.40088 35.7407 3.40088C35.2603 3.40088 34.9453 3.56348 34.7959 3.88867V7H33.5259V2.24512H34.7256L34.7607 2.81201C35.0156 2.37549 35.3687 2.15723 35.8198 2.15723C35.9604 2.15723 36.0923 2.17627 36.2153 2.21436L36.1978 3.43604ZM38.0039 2.24512L38.0435 2.77686C38.3804 2.36377 38.8359 2.15723 39.4102 2.15723C40.0225 2.15723 40.4429 2.39893 40.6714 2.88232C41.0054 2.39893 41.4814 2.15723 42.0996 2.15723C42.6152 2.15723 42.999 2.30811 43.251 2.60986C43.5029 2.90869 43.6289 3.35986 43.6289 3.96338V7H42.3545V3.96777C42.3545 3.69824 42.3018 3.50195 42.1963 3.37891C42.0908 3.25293 41.9048 3.18994 41.6382 3.18994C41.2573 3.18994 40.9937 3.37158 40.8472 3.73486L40.8516 7H39.5815V3.97217C39.5815 3.69678 39.5273 3.49756 39.4189 3.37451C39.3105 3.25146 39.126 3.18994 38.8652 3.18994C38.5049 3.18994 38.2441 3.33936 38.083 3.63818V7H36.813V2.24512H38.0039ZM46.7974 7.08789C46.1001 7.08789 45.5317 6.87402 45.0923 6.44629C44.6558 6.01855 44.4375 5.44873 44.4375 4.73682V4.61377C44.4375 4.13623 44.5298 3.70996 44.7144 3.33496C44.8989 2.95703 45.1597 2.66699 45.4966 2.46484C45.8364 2.25977 46.2231 2.15723 46.6567 2.15723C47.3071 2.15723 47.8184 2.3623 48.1904 2.77246C48.5654 3.18262 48.7529 3.76416 48.7529 4.51709V5.03564H45.7251C45.7661 5.34619 45.8892 5.59521 46.0942 5.78271C46.3022 5.97021 46.5645 6.06396 46.8809 6.06396C47.3701 6.06396 47.7524 5.88672 48.0278 5.53223L48.6519 6.23096C48.4614 6.50049 48.2036 6.71143 47.8784 6.86377C47.5532 7.01318 47.1929 7.08789 46.7974 7.08789ZM46.6523 3.18555C46.4004 3.18555 46.1953 3.27051 46.0371 3.44043C45.8818 3.61035 45.7822 3.85352 45.7383 4.16992H47.5049V4.06885C47.499 3.7876 47.4229 3.5708 47.2764 3.41846C47.1299 3.26318 46.9219 3.18555 46.6523 3.18555Z" fill="white"/>
</svg>
