<svg width="35" height="8" viewBox="0 0 35 8" fill="none" xmlns="http://www.w3.org/2000/svg">
<path d="M5.27679 1.2959H3.22015V7H2.3808V1.2959H0.328552V0.601562H5.27679V1.2959ZM7.63226 7.08789C6.98773 7.08789 6.46332 6.87695 6.05902 6.45508C5.65472 6.03027 5.45258 5.46338 5.45258 4.75439V4.60498C5.45258 4.1333 5.54193 3.71289 5.72064 3.34375C5.90228 2.97168 6.15424 2.68164 6.4765 2.47363C6.8017 2.2627 7.15326 2.15723 7.53119 2.15723C8.14935 2.15723 8.62982 2.36084 8.9726 2.76807C9.31537 3.17529 9.48676 3.7583 9.48676 4.51709V4.85547H6.26556C6.27728 5.32422 6.41351 5.70361 6.67426 5.99365C6.93793 6.28076 7.27191 6.42432 7.67621 6.42432C7.96332 6.42432 8.20648 6.36572 8.4057 6.24854C8.60492 6.13135 8.77924 5.97607 8.92865 5.78271L9.42523 6.16943C9.02679 6.78174 8.42914 7.08789 7.63226 7.08789ZM7.53119 2.8252C7.20306 2.8252 6.92767 2.94531 6.70502 3.18555C6.48236 3.42285 6.34467 3.75684 6.29193 4.1875H8.67377V4.12598C8.65033 3.71289 8.539 3.39355 8.33978 3.16797C8.14056 2.93945 7.87103 2.8252 7.53119 2.8252ZM11.3149 7H10.5019V0.25H11.3149V7ZM14.5932 7.08789C13.9487 7.08789 13.4243 6.87695 13.02 6.45508C12.6157 6.03027 12.4135 5.46338 12.4135 4.75439V4.60498C12.4135 4.1333 12.5029 3.71289 12.6816 3.34375C12.8632 2.97168 13.1152 2.68164 13.4374 2.47363C13.7626 2.2627 14.1142 2.15723 14.4921 2.15723C15.1103 2.15723 15.5908 2.36084 15.9335 2.76807C16.2763 3.17529 16.4477 3.7583 16.4477 4.51709V4.85547H13.2265C13.2382 5.32422 13.3745 5.70361 13.6352 5.99365C13.8989 6.28076 14.2328 6.42432 14.6371 6.42432C14.9243 6.42432 15.1674 6.36572 15.3666 6.24854C15.5659 6.13135 15.7402 5.97607 15.8896 5.78271L16.3862 6.16943C15.9877 6.78174 15.3901 7.08789 14.5932 7.08789ZM14.4921 2.8252C14.164 2.8252 13.8886 2.94531 13.666 3.18555C13.4433 3.42285 13.3056 3.75684 13.2529 4.1875H15.6347V4.12598C15.6113 3.71289 15.4999 3.39355 15.3007 3.16797C15.1015 2.93945 14.832 2.8252 14.4921 2.8252ZM14.8876 0.25H15.872L14.6943 1.54199H14.0395L14.8876 0.25ZM17.7924 7V2.87354H17.041V2.24512H17.7924V1.75732C17.7924 1.24756 17.9286 0.853516 18.2011 0.575195C18.4736 0.296875 18.8588 0.157715 19.3569 0.157715C19.5444 0.157715 19.7304 0.182617 19.915 0.232422L19.871 0.891602C19.7333 0.865234 19.5869 0.852051 19.4316 0.852051C19.1679 0.852051 18.9643 0.929688 18.8207 1.08496C18.6772 1.2373 18.6054 1.45703 18.6054 1.74414V2.24512H19.6205V2.87354H18.6054V7H17.7924ZM20.3061 4.57861C20.3061 4.11279 20.3969 3.69385 20.5786 3.32178C20.7631 2.94971 21.018 2.6626 21.3432 2.46045C21.6713 2.2583 22.0449 2.15723 22.4638 2.15723C23.1113 2.15723 23.6342 2.38135 24.0327 2.82959C24.434 3.27783 24.6347 3.87402 24.6347 4.61816V4.67529C24.6347 5.13818 24.5453 5.5542 24.3666 5.92334C24.1909 6.28955 23.9374 6.5752 23.6064 6.78027C23.2783 6.98535 22.9003 7.08789 22.4726 7.08789C21.8281 7.08789 21.3051 6.86377 20.9037 6.41553C20.5053 5.96729 20.3061 5.37402 20.3061 4.63574V4.57861ZM21.1235 4.67529C21.1235 5.20264 21.2451 5.62598 21.4882 5.94531C21.7343 6.26465 22.0624 6.42432 22.4726 6.42432C22.8857 6.42432 23.2138 6.26318 23.457 5.94092C23.7001 5.61572 23.8217 5.16162 23.8217 4.57861C23.8217 4.05713 23.6972 3.63525 23.4482 3.31299C23.2021 2.98779 22.874 2.8252 22.4638 2.8252C22.0624 2.8252 21.7387 2.98486 21.4926 3.3042C21.2465 3.62354 21.1235 4.08057 21.1235 4.67529ZM26.4233 2.24512L26.4496 2.84277C26.8129 2.38574 27.2875 2.15723 27.8735 2.15723C28.8784 2.15723 29.3852 2.72412 29.394 3.85791V7H28.581V3.85352C28.5781 3.51074 28.499 3.25732 28.3437 3.09326C28.1913 2.9292 27.9526 2.84717 27.6274 2.84717C27.3637 2.84717 27.1323 2.91748 26.933 3.05811C26.7338 3.19873 26.5786 3.3833 26.4672 3.61182V7H25.6542V2.24512H26.4233ZM30.4047 4.57861C30.4047 4.11279 30.4955 3.69385 30.6772 3.32178C30.8618 2.94971 31.1166 2.6626 31.4418 2.46045C31.77 2.2583 32.1435 2.15723 32.5624 2.15723C33.2099 2.15723 33.7328 2.38135 34.1313 2.82959C34.5327 3.27783 34.7333 3.87402 34.7333 4.61816V4.67529C34.7333 5.13818 34.644 5.5542 34.4653 5.92334C34.2895 6.28955 34.0361 6.5752 33.705 6.78027C33.3769 6.98535 32.999 7.08789 32.5712 7.08789C31.9267 7.08789 31.4037 6.86377 31.0024 6.41553C30.6039 5.96729 30.4047 5.37402 30.4047 4.63574V4.57861ZM31.2221 4.67529C31.2221 5.20264 31.3437 5.62598 31.5869 5.94531C31.8329 6.26465 32.1611 6.42432 32.5712 6.42432C32.9843 6.42432 33.3124 6.26318 33.5556 5.94092C33.7988 5.61572 33.9203 5.16162 33.9203 4.57861C33.9203 4.05713 33.7958 3.63525 33.5468 3.31299C33.3007 2.98779 32.9726 2.8252 32.5624 2.8252C32.1611 2.8252 31.8373 2.98486 31.5912 3.3042C31.3452 3.62354 31.2221 4.08057 31.2221 4.67529Z" fill="white"/>
</svg>
