<svg width="18" height="20" viewBox="0 0 18 20" fill="none" xmlns="http://www.w3.org/2000/svg">
<path d="M14.8431 1.73649L14.8415 1.73486C11.0992 -1.19458 5.50244 0.0751364 2.36437 4.5668C-0.770641 9.06062 -0.280429 15.102 3.45623 18.0337C4.81901 19.1035 6.42919 19.6148 8.07721 19.6148C10.9495 19.6148 13.9378 18.0613 15.9349 15.2044C19.0699 10.7106 18.5802 4.66918 14.8431 1.73649ZM12.7784 12.7284C10.9254 15.3788 7.79249 16.258 5.7933 14.6887C3.79564 13.1216 3.67399 9.69061 5.52187 7.04176C6.75021 5.28345 8.54442 4.30516 10.1981 4.30516C11.0343 4.30516 11.8348 4.55542 12.5075 5.08248C14.5036 6.6512 14.6248 10.0812 12.7784 12.7284Z" fill="#F0A83E"/>
</svg>
