<svg width="19" height="22" viewBox="0 0 19 22" fill="none" xmlns="http://www.w3.org/2000/svg">
<path d="M6.11759 21.1233H6.1181C6.95284 21.4169 7.80445 21.5572 8.65248 21.5572C12.61 21.5572 16.4667 18.5048 17.9384 13.8138C18.7859 11.1135 18.7302 8.25823 17.7815 5.77459C16.7888 3.17504 14.9491 1.2878 12.6008 0.460102C10.2524 -0.366512 7.71142 -0.0219996 5.44745 1.43081C3.28469 2.81915 1.62748 5.0704 0.781496 7.77071C-1.00504 13.4671 1.38876 19.4571 6.11759 21.1233ZM4.50843 9.08322C5.06101 7.32003 6.11708 5.86722 7.48241 4.99077C8.74551 4.17987 10.1236 3.97348 11.3622 4.40954C12.6002 4.84614 13.5868 5.8851 14.1409 7.33574C14.7395 8.90338 14.765 10.7375 14.2114 12.5007C13.1078 16.0195 10.0326 18.1158 7.35667 17.1739C4.68274 16.2313 3.40482 12.602 4.50843 9.08322Z" fill="#F0A83E"/>
</svg>
