<svg width="46" height="38" viewBox="0 0 46 38" fill="none" xmlns="http://www.w3.org/2000/svg">
<path d="M36.8039 8.62885C33.7891 3.64479 28.6544 0.668762 23.0683 0.668762C17.4827 0.668762 12.3475 3.64479 9.33317 8.62885L2.06843 20.6386C0.863097 22.6315 0.306944 24.9331 0.459784 27.2943C0.612624 29.6561 1.46065 31.8553 2.91186 33.6553C4.3641 35.4548 6.28303 36.6845 8.46112 37.2121C10.6392 37.7391 12.872 37.5143 14.9177 36.5615L15.0511 36.4987C20.1991 34.1472 26.0832 34.1683 31.2184 36.5615C32.5428 37.1785 33.946 37.4905 35.3619 37.4905C36.1317 37.4905 36.9062 37.3979 37.6734 37.2126C39.8515 36.6855 41.7705 35.4559 43.2232 33.6564C44.6749 31.8569 45.5235 29.6571 45.6768 27.2954C45.8302 24.9331 45.274 22.6315 44.0687 20.6381L36.8039 8.62885ZM40.2385 30.9512C38.3906 33.2404 35.4013 33.9641 32.7994 32.7518C29.7069 31.3104 26.3873 30.5899 23.0668 30.5899C19.7493 30.5899 16.4303 31.3098 13.3397 32.7496L13.2518 32.7908C10.6699 33.9478 7.72452 33.2149 5.89709 30.9512C4.05126 28.6615 3.84117 25.4201 5.37468 22.8844L12.6399 10.8747C14.9289 7.09046 18.8271 4.83109 23.0683 4.83109C27.3095 4.83109 31.2082 7.09046 33.4977 10.8747L40.7619 22.8839C42.2959 25.4206 42.0853 28.6626 40.2385 30.9512Z" fill="#F0A83E"/>
</svg>
