<svg width="18" height="21" viewBox="0 0 18 21" fill="none" xmlns="http://www.w3.org/2000/svg">
<path d="M12.0253 19.6131C14.1865 18.7334 15.8284 16.8879 16.6488 14.4161C17.4289 12.0641 17.365 9.40877 16.4679 6.93868C15.5703 4.4702 13.9376 2.45513 11.8709 1.26395C9.69898 0.0131971 7.31336 -0.190477 5.15571 0.690849C0.814859 2.45946 -1.17717 8.14393 0.715692 13.3653C2.22773 17.5211 5.75429 20.1445 9.3197 20.1445C10.2301 20.1445 11.143 19.9733 12.0253 19.6131ZM4.38078 11.8702C3.26541 8.79342 4.24532 5.52054 6.56654 4.57475C6.9857 4.40358 7.42888 4.31853 7.88127 4.31853C8.57952 4.31853 9.30078 4.52058 9.99495 4.92089C11.2432 5.63971 12.2405 6.88776 12.8028 8.43428C13.3646 9.98188 13.4147 11.6156 12.9434 13.0354C12.5114 14.3365 11.6849 15.2931 10.6165 15.7281L10.6145 15.7292C8.29634 16.6761 5.49973 14.9443 4.38078 11.8702Z" fill="#F0A83E"/>
</svg>
