<svg width="188" height="15" viewBox="0 0 188 15" fill="none" xmlns="http://www.w3.org/2000/svg">
<path d="M0.335938 6.65625H1.64844L1.75 14.8125H0.234375L0.335938 6.65625ZM1.80469 4.21875C1.80469 4.45312 1.73177 4.65104 1.58594 4.8125C1.44531 4.97396 1.23438 5.05469 0.953125 5.05469C0.671875 5.05469 0.458333 4.97396 0.3125 4.8125C0.166667 4.65104 0.09375 4.45312 0.09375 4.21875C0.09375 3.98438 0.166667 3.78906 0.3125 3.63281C0.458333 3.47656 0.671875 3.39844 0.953125 3.39844C1.23438 3.39844 1.44531 3.47656 1.58594 3.63281C1.73177 3.78906 1.80469 3.98438 1.80469 4.21875ZM12.6016 8.39062C12.4609 9.59375 12.0156 10.5234 11.2656 11.1797C10.5208 11.8307 9.52865 12.1562 8.28906 12.1562C6.94531 12.1562 5.86719 11.6745 5.05469 10.7109C4.2474 9.7474 3.84375 8.45833 3.84375 6.84375V5.75C3.84375 4.69271 4.03125 3.76302 4.40625 2.96094C4.78646 2.15885 5.32292 1.54427 6.01562 1.11719C6.70833 0.684896 7.51042 0.46875 8.42188 0.46875C9.63021 0.46875 10.599 0.807292 11.3281 1.48438C12.0573 2.15625 12.4818 3.08854 12.6016 4.28125H11.0938C10.9635 3.375 10.6797 2.71875 10.2422 2.3125C9.8099 1.90625 9.20312 1.70312 8.42188 1.70312C7.46354 1.70312 6.71094 2.05729 6.16406 2.76562C5.6224 3.47396 5.35156 4.48177 5.35156 5.78906V6.89062C5.35156 8.125 5.60938 9.10677 6.125 9.83594C6.64062 10.5651 7.36198 10.9297 8.28906 10.9297C9.1224 10.9297 9.76042 10.7422 10.2031 10.3672C10.651 9.98698 10.9479 9.32812 11.0938 8.39062H12.6016ZM14.0469 7.69531C14.0469 6.86719 14.2083 6.1224 14.5312 5.46094C14.8594 4.79948 15.3125 4.28906 15.8906 3.92969C16.474 3.57031 17.138 3.39062 17.8828 3.39062C19.0339 3.39062 19.9635 3.78906 20.6719 4.58594C21.3854 5.38281 21.7422 6.44271 21.7422 7.76562V7.86719C21.7422 8.6901 21.5833 9.42969 21.2656 10.0859C20.9531 10.737 20.5026 11.2448 19.9141 11.6094C19.3307 11.974 18.6589 12.1562 17.8984 12.1562C16.7526 12.1562 15.8229 11.7578 15.1094 10.9609C14.401 10.1641 14.0469 9.10938 14.0469 7.79688V7.69531ZM15.5 7.86719C15.5 8.80469 15.7161 9.55729 16.1484 10.125C16.5859 10.6927 17.1693 10.9766 17.8984 10.9766C18.6328 10.9766 19.2161 10.6901 19.6484 10.1172C20.0807 9.53906 20.2969 8.73177 20.2969 7.69531C20.2969 6.76823 20.0755 6.01823 19.6328 5.44531C19.1953 4.86719 18.612 4.57812 17.8828 4.57812C17.1693 4.57812 16.5938 4.86198 16.1562 5.42969C15.7188 5.9974 15.5 6.8099 15.5 7.86719ZM24.9141 3.54688L24.9531 4.48438C25.5729 3.75521 26.4089 3.39062 27.4609 3.39062C28.6432 3.39062 29.4479 3.84375 29.875 4.75C30.1562 4.34375 30.5208 4.01562 30.9688 3.76562C31.4219 3.51562 31.9557 3.39062 32.5703 3.39062C34.4245 3.39062 35.3672 4.3724 35.3984 6.33594V12H33.9531V6.42188C33.9531 5.81771 33.8151 5.36719 33.5391 5.07031C33.263 4.76823 32.7995 4.61719 32.1484 4.61719C31.612 4.61719 31.1667 4.77865 30.8125 5.10156C30.4583 5.41927 30.2526 5.84896 30.1953 6.39062V12H28.7422V6.46094C28.7422 5.23177 28.1406 4.61719 26.9375 4.61719C25.9896 4.61719 25.3411 5.02083 24.9922 5.82812V12H23.5469V3.54688H24.9141ZM41.0938 12.1562C39.9479 12.1562 39.0156 11.7812 38.2969 11.0312C37.5781 10.276 37.2188 9.26823 37.2188 8.00781V7.74219C37.2188 6.90365 37.3776 6.15625 37.6953 5.5C38.0182 4.83854 38.4661 4.32292 39.0391 3.95312C39.6172 3.57812 40.2422 3.39062 40.9141 3.39062C42.013 3.39062 42.8672 3.7526 43.4766 4.47656C44.0859 5.20052 44.3906 6.23698 44.3906 7.58594V8.1875H38.6641C38.6849 9.02083 38.9271 9.69531 39.3906 10.2109C39.8594 10.7214 40.4531 10.9766 41.1719 10.9766C41.6823 10.9766 42.1146 10.8724 42.4688 10.6641C42.8229 10.4557 43.1328 10.1797 43.3984 9.83594L44.2812 10.5234C43.5729 11.612 42.5104 12.1562 41.0938 12.1562ZM40.9141 4.57812C40.3307 4.57812 39.8411 4.79167 39.4453 5.21875C39.0495 5.64062 38.8047 6.23438 38.7109 7H42.9453V6.89062C42.9036 6.15625 42.7057 5.58854 42.3516 5.1875C41.9974 4.78125 41.5182 4.57812 40.9141 4.57812ZM45.7188 7.70312C45.7188 6.40625 46.026 5.36458 46.6406 4.57812C47.2552 3.78646 48.0599 3.39062 49.0547 3.39062C50.0443 3.39062 50.8281 3.72917 51.4062 4.40625V0H52.8516V12H51.5234L51.4531 11.0938C50.875 11.8021 50.0703 12.1562 49.0391 12.1562C48.0599 12.1562 47.2604 11.7552 46.6406 10.9531C46.026 10.151 45.7188 9.10417 45.7188 7.8125V7.70312ZM47.1641 7.86719C47.1641 8.82552 47.362 9.57552 47.7578 10.1172C48.1536 10.6589 48.7005 10.9297 49.3984 10.9297C50.3151 10.9297 50.9844 10.5182 51.4062 9.69531V5.8125C50.974 5.01562 50.3099 4.61719 49.4141 4.61719C48.7057 4.61719 48.1536 4.89062 47.7578 5.4375C47.362 5.98438 47.1641 6.79427 47.1641 7.86719ZM58.6094 12.1562C57.4635 12.1562 56.5312 11.7812 55.8125 11.0312C55.0938 10.276 54.7344 9.26823 54.7344 8.00781V7.74219C54.7344 6.90365 54.8932 6.15625 55.2109 5.5C55.5339 4.83854 55.9818 4.32292 56.5547 3.95312C57.1328 3.57812 57.7578 3.39062 58.4297 3.39062C59.5286 3.39062 60.3828 3.7526 60.9922 4.47656C61.6016 5.20052 61.9062 6.23698 61.9062 7.58594V8.1875H56.1797C56.2005 9.02083 56.4427 9.69531 56.9062 10.2109C57.375 10.7214 57.9688 10.9766 58.6875 10.9766C59.1979 10.9766 59.6302 10.8724 59.9844 10.6641C60.3385 10.4557 60.6484 10.1797 60.9141 9.83594L61.7969 10.5234C61.0885 11.612 60.026 12.1562 58.6094 12.1562ZM58.4297 4.57812C57.8464 4.57812 57.3568 4.79167 56.9609 5.21875C56.5651 5.64062 56.3203 6.23438 56.2266 7H60.4609V6.89062C60.4193 6.15625 60.2214 5.58854 59.8672 5.1875C59.513 4.78125 59.0339 4.57812 58.4297 4.57812ZM67.6719 4.84375C67.4531 4.80729 67.2161 4.78906 66.9609 4.78906C66.013 4.78906 65.3698 5.19271 65.0312 6V12H63.5859V3.54688H64.9922L65.0156 4.52344C65.4896 3.76823 66.1615 3.39062 67.0312 3.39062C67.3125 3.39062 67.526 3.42708 67.6719 3.5V4.84375ZM68.4688 7.69531C68.4688 6.86719 68.6302 6.1224 68.9531 5.46094C69.2812 4.79948 69.7344 4.28906 70.3125 3.92969C70.8958 3.57031 71.5599 3.39062 72.3047 3.39062C73.4557 3.39062 74.3854 3.78906 75.0938 4.58594C75.8073 5.38281 76.1641 6.44271 76.1641 7.76562V7.86719C76.1641 8.6901 76.0052 9.42969 75.6875 10.0859C75.375 10.737 74.9245 11.2448 74.3359 11.6094C73.7526 11.974 73.0807 12.1562 72.3203 12.1562C71.1745 12.1562 70.2448 11.7578 69.5312 10.9609C68.8229 10.1641 68.4688 9.10938 68.4688 7.79688V7.69531ZM69.9219 7.86719C69.9219 8.80469 70.138 9.55729 70.5703 10.125C71.0078 10.6927 71.5911 10.9766 72.3203 10.9766C73.0547 10.9766 73.638 10.6901 74.0703 10.1172C74.5026 9.53906 74.7188 8.73177 74.7188 7.69531C74.7188 6.76823 74.4974 6.01823 74.0547 5.44531C73.6172 4.86719 73.0339 4.57812 72.3047 4.57812C71.5911 4.57812 71.0156 4.86198 70.5781 5.42969C70.1406 5.9974 69.9219 6.8099 69.9219 7.86719ZM82.8984 9.75781C82.8984 9.36719 82.75 9.0651 82.4531 8.85156C82.1615 8.63281 81.6484 8.44531 80.9141 8.28906C80.1849 8.13281 79.6042 7.94531 79.1719 7.72656C78.7448 7.50781 78.4271 7.2474 78.2188 6.94531C78.0156 6.64323 77.9141 6.28385 77.9141 5.86719C77.9141 5.17448 78.2057 4.58854 78.7891 4.10938C79.3776 3.63021 80.1276 3.39062 81.0391 3.39062C81.9974 3.39062 82.7734 3.63802 83.3672 4.13281C83.9661 4.6276 84.2656 5.26042 84.2656 6.03125H82.8125C82.8125 5.63542 82.6432 5.29427 82.3047 5.00781C81.9714 4.72135 81.5495 4.57812 81.0391 4.57812C80.513 4.57812 80.1016 4.69271 79.8047 4.92188C79.5078 5.15104 79.3594 5.45052 79.3594 5.82031C79.3594 6.16927 79.4974 6.43229 79.7734 6.60938C80.0495 6.78646 80.5469 6.95573 81.2656 7.11719C81.9896 7.27865 82.5755 7.47135 83.0234 7.69531C83.4714 7.91927 83.8021 8.1901 84.0156 8.50781C84.2344 8.82031 84.3438 9.20312 84.3438 9.65625C84.3438 10.4115 84.0417 11.0182 83.4375 11.4766C82.8333 11.9297 82.0495 12.1562 81.0859 12.1562C80.4089 12.1562 79.8099 12.0365 79.2891 11.7969C78.7682 11.5573 78.3594 11.224 78.0625 10.7969C77.7708 10.3646 77.625 9.89844 77.625 9.39844H79.0703C79.0964 9.88281 79.2891 10.2682 79.6484 10.5547C80.013 10.8359 80.4922 10.9766 81.0859 10.9766C81.6328 10.9766 82.0703 10.8672 82.3984 10.6484C82.7318 10.4245 82.8984 10.1276 82.8984 9.75781ZM93.7031 12.1562C92.5573 12.1562 91.625 11.7812 90.9062 11.0312C90.1875 10.276 89.8281 9.26823 89.8281 8.00781V7.74219C89.8281 6.90365 89.987 6.15625 90.3047 5.5C90.6276 4.83854 91.0755 4.32292 91.6484 3.95312C92.2266 3.57812 92.8516 3.39062 93.5234 3.39062C94.6224 3.39062 95.4766 3.7526 96.0859 4.47656C96.6953 5.20052 97 6.23698 97 7.58594V8.1875H91.2734C91.2943 9.02083 91.5365 9.69531 92 10.2109C92.4688 10.7214 93.0625 10.9766 93.7812 10.9766C94.2917 10.9766 94.724 10.8724 95.0781 10.6641C95.4323 10.4557 95.7422 10.1797 96.0078 9.83594L96.8906 10.5234C96.1823 11.612 95.1198 12.1562 93.7031 12.1562ZM93.5234 4.57812C92.9401 4.57812 92.4505 4.79167 92.0547 5.21875C91.6589 5.64062 91.4141 6.23438 91.3203 7H95.5547V6.89062C95.513 6.15625 95.3151 5.58854 94.9609 5.1875C94.6068 4.78125 94.1276 4.57812 93.5234 4.57812ZM100.047 3.54688L100.094 4.60938C100.74 3.79688 101.583 3.39062 102.625 3.39062C104.411 3.39062 105.312 4.39844 105.328 6.41406V12H103.883V6.40625C103.878 5.79688 103.737 5.34635 103.461 5.05469C103.19 4.76302 102.766 4.61719 102.188 4.61719C101.719 4.61719 101.307 4.74219 100.953 4.99219C100.599 5.24219 100.323 5.57031 100.125 5.97656V12H98.6797V3.54688H100.047ZM111.125 7.70312C111.125 6.40625 111.432 5.36458 112.047 4.57812C112.661 3.78646 113.466 3.39062 114.461 3.39062C115.451 3.39062 116.234 3.72917 116.812 4.40625V0H118.258V12H116.93L116.859 11.0938C116.281 11.8021 115.477 12.1562 114.445 12.1562C113.466 12.1562 112.667 11.7552 112.047 10.9531C111.432 10.151 111.125 9.10417 111.125 7.8125V7.70312ZM112.57 7.86719C112.57 8.82552 112.768 9.57552 113.164 10.1172C113.56 10.6589 114.107 10.9297 114.805 10.9297C115.721 10.9297 116.391 10.5182 116.812 9.69531V5.8125C116.38 5.01562 115.716 4.61719 114.82 4.61719C114.112 4.61719 113.56 4.89062 113.164 5.4375C112.768 5.98438 112.57 6.79427 112.57 7.86719ZM124.016 12.1562C122.87 12.1562 121.938 11.7812 121.219 11.0312C120.5 10.276 120.141 9.26823 120.141 8.00781V7.74219C120.141 6.90365 120.299 6.15625 120.617 5.5C120.94 4.83854 121.388 4.32292 121.961 3.95312C122.539 3.57812 123.164 3.39062 123.836 3.39062C124.935 3.39062 125.789 3.7526 126.398 4.47656C127.008 5.20052 127.312 6.23698 127.312 7.58594V8.1875H121.586C121.607 9.02083 121.849 9.69531 122.312 10.2109C122.781 10.7214 123.375 10.9766 124.094 10.9766C124.604 10.9766 125.036 10.8724 125.391 10.6641C125.745 10.4557 126.055 10.1797 126.32 9.83594L127.203 10.5234C126.495 11.612 125.432 12.1562 124.016 12.1562ZM123.836 4.57812C123.253 4.57812 122.763 4.79167 122.367 5.21875C121.971 5.64062 121.727 6.23438 121.633 7H125.867V6.89062C125.826 6.15625 125.628 5.58854 125.273 5.1875C124.919 4.78125 124.44 4.57812 123.836 4.57812ZM133.914 9.75781C133.914 9.36719 133.766 9.0651 133.469 8.85156C133.177 8.63281 132.664 8.44531 131.93 8.28906C131.201 8.13281 130.62 7.94531 130.188 7.72656C129.76 7.50781 129.443 7.2474 129.234 6.94531C129.031 6.64323 128.93 6.28385 128.93 5.86719C128.93 5.17448 129.221 4.58854 129.805 4.10938C130.393 3.63021 131.143 3.39062 132.055 3.39062C133.013 3.39062 133.789 3.63802 134.383 4.13281C134.982 4.6276 135.281 5.26042 135.281 6.03125H133.828C133.828 5.63542 133.659 5.29427 133.32 5.00781C132.987 4.72135 132.565 4.57812 132.055 4.57812C131.529 4.57812 131.117 4.69271 130.82 4.92188C130.523 5.15104 130.375 5.45052 130.375 5.82031C130.375 6.16927 130.513 6.43229 130.789 6.60938C131.065 6.78646 131.562 6.95573 132.281 7.11719C133.005 7.27865 133.591 7.47135 134.039 7.69531C134.487 7.91927 134.818 8.1901 135.031 8.50781C135.25 8.82031 135.359 9.20312 135.359 9.65625C135.359 10.4115 135.057 11.0182 134.453 11.4766C133.849 11.9297 133.065 12.1562 132.102 12.1562C131.424 12.1562 130.826 12.0365 130.305 11.7969C129.784 11.5573 129.375 11.224 129.078 10.7969C128.786 10.3646 128.641 9.89844 128.641 9.39844H130.086C130.112 9.88281 130.305 10.2682 130.664 10.5547C131.029 10.8359 131.508 10.9766 132.102 10.9766C132.648 10.9766 133.086 10.8672 133.414 10.6484C133.747 10.4245 133.914 10.1276 133.914 9.75781ZM140.633 10.9766C141.148 10.9766 141.599 10.8203 141.984 10.5078C142.37 10.1953 142.583 9.80469 142.625 9.33594H143.992C143.966 9.82031 143.799 10.2812 143.492 10.7188C143.185 11.1562 142.773 11.5052 142.258 11.7656C141.747 12.026 141.206 12.1562 140.633 12.1562C139.482 12.1562 138.565 11.7734 137.883 11.0078C137.206 10.237 136.867 9.1849 136.867 7.85156V7.60938C136.867 6.78646 137.018 6.05469 137.32 5.41406C137.622 4.77344 138.055 4.27604 138.617 3.92188C139.185 3.56771 139.854 3.39062 140.625 3.39062C141.573 3.39062 142.359 3.67448 142.984 4.24219C143.615 4.8099 143.951 5.54688 143.992 6.45312H142.625C142.583 5.90625 142.375 5.45833 142 5.10938C141.63 4.75521 141.172 4.57812 140.625 4.57812C139.891 4.57812 139.32 4.84375 138.914 5.375C138.513 5.90104 138.312 6.66406 138.312 7.66406V7.9375C138.312 8.91146 138.513 9.66146 138.914 10.1875C139.315 10.7135 139.888 10.9766 140.633 10.9766ZM150.836 11.1641C150.273 11.8255 149.448 12.1562 148.359 12.1562C147.458 12.1562 146.771 11.8958 146.297 11.375C145.828 10.849 145.591 10.0729 145.586 9.04688V3.54688H147.031V9.00781C147.031 10.2891 147.552 10.9297 148.594 10.9297C149.698 10.9297 150.432 10.5182 150.797 9.69531V3.54688H152.242V12H150.867L150.836 11.1641ZM157.953 12.1562C156.807 12.1562 155.875 11.7812 155.156 11.0312C154.438 10.276 154.078 9.26823 154.078 8.00781V7.74219C154.078 6.90365 154.237 6.15625 154.555 5.5C154.878 4.83854 155.326 4.32292 155.898 3.95312C156.477 3.57812 157.102 3.39062 157.773 3.39062C158.872 3.39062 159.727 3.7526 160.336 4.47656C160.945 5.20052 161.25 6.23698 161.25 7.58594V8.1875H155.523C155.544 9.02083 155.786 9.69531 156.25 10.2109C156.719 10.7214 157.312 10.9766 158.031 10.9766C158.542 10.9766 158.974 10.8724 159.328 10.6641C159.682 10.4557 159.992 10.1797 160.258 9.83594L161.141 10.5234C160.432 11.612 159.37 12.1562 157.953 12.1562ZM157.773 4.57812C157.19 4.57812 156.701 4.79167 156.305 5.21875C155.909 5.64062 155.664 6.23438 155.57 7H159.805V6.89062C159.763 6.15625 159.565 5.58854 159.211 5.1875C158.857 4.78125 158.378 4.57812 157.773 4.57812ZM164.297 3.54688L164.344 4.60938C164.99 3.79688 165.833 3.39062 166.875 3.39062C168.661 3.39062 169.562 4.39844 169.578 6.41406V12H168.133V6.40625C168.128 5.79688 167.987 5.34635 167.711 5.05469C167.44 4.76302 167.016 4.61719 166.438 4.61719C165.969 4.61719 165.557 4.74219 165.203 4.99219C164.849 5.24219 164.573 5.57031 164.375 5.97656V12H162.93V3.54688H164.297ZM173.719 1.5V3.54688H175.297V4.66406H173.719V9.90625C173.719 10.2448 173.789 10.5 173.93 10.6719C174.07 10.8385 174.31 10.9219 174.648 10.9219C174.815 10.9219 175.044 10.8906 175.336 10.8281V12C174.956 12.1042 174.586 12.1562 174.227 12.1562C173.581 12.1562 173.094 11.9609 172.766 11.5703C172.438 11.1797 172.273 10.625 172.273 9.90625V4.66406H170.734V3.54688H172.273V1.5H173.719ZM176.453 7.69531C176.453 6.86719 176.615 6.1224 176.938 5.46094C177.266 4.79948 177.719 4.28906 178.297 3.92969C178.88 3.57031 179.544 3.39062 180.289 3.39062C181.44 3.39062 182.37 3.78906 183.078 4.58594C183.792 5.38281 184.148 6.44271 184.148 7.76562V7.86719C184.148 8.6901 183.99 9.42969 183.672 10.0859C183.359 10.737 182.909 11.2448 182.32 11.6094C181.737 11.974 181.065 12.1562 180.305 12.1562C179.159 12.1562 178.229 11.7578 177.516 10.9609C176.807 10.1641 176.453 9.10938 176.453 7.79688V7.69531ZM177.906 7.86719C177.906 8.80469 178.122 9.55729 178.555 10.125C178.992 10.6927 179.576 10.9766 180.305 10.9766C181.039 10.9766 181.622 10.6901 182.055 10.1172C182.487 9.53906 182.703 8.73177 182.703 7.69531C182.703 6.76823 182.482 6.01823 182.039 5.44531C181.602 4.86719 181.018 4.57812 180.289 4.57812C179.576 4.57812 179 4.86198 178.562 5.42969C178.125 5.9974 177.906 6.8099 177.906 7.86719ZM187.578 8.78906H186.273L186.172 0.625H187.688L187.578 8.78906ZM186.117 11.2734C186.117 11.0391 186.188 10.8438 186.328 10.6875C186.474 10.526 186.688 10.4453 186.969 10.4453C187.25 10.4453 187.464 10.526 187.609 10.6875C187.755 10.8438 187.828 11.0391 187.828 11.2734C187.828 11.5078 187.755 11.7031 187.609 11.8594C187.464 12.0104 187.25 12.0859 186.969 12.0859C186.688 12.0859 186.474 12.0104 186.328 11.8594C186.188 11.7031 186.117 11.5078 186.117 11.2734Z" fill="#3C2313"/>
</svg>
