<svg width="341" height="30" viewBox="0 0 341 30" fill="none" xmlns="http://www.w3.org/2000/svg">
<path d="M0.578125 12.9805H3.03906L3.22949 28.2734H0.387695L0.578125 12.9805ZM3.33203 8.41016C3.33203 8.84961 3.19531 9.2207 2.92188 9.52344C2.6582 9.82617 2.2627 9.97754 1.73535 9.97754C1.20801 9.97754 0.807617 9.82617 0.53418 9.52344C0.260742 9.2207 0.124023 8.84961 0.124023 8.41016C0.124023 7.9707 0.260742 7.60449 0.53418 7.31152C0.807617 7.01855 1.20801 6.87207 1.73535 6.87207C2.2627 6.87207 2.6582 7.01855 2.92188 7.31152C3.19531 7.60449 3.33203 7.9707 3.33203 8.41016ZM19.9434 13.1416H10.7002V20.7002H21.4375V23H7.8877V1.67188H21.291V3.98633H10.7002V10.8418H19.9434V13.1416ZM33.7422 18.7959C33.7422 18.0635 33.4639 17.4971 32.9072 17.0967C32.3604 16.6865 31.3984 16.335 30.0215 16.042C28.6543 15.749 27.5654 15.3975 26.7549 14.9873C25.9541 14.5771 25.3584 14.0889 24.9678 13.5225C24.5869 12.9561 24.3965 12.2822 24.3965 11.501C24.3965 10.2021 24.9434 9.10352 26.0371 8.20508C27.1406 7.30664 28.5469 6.85742 30.2559 6.85742C32.0527 6.85742 33.5078 7.32129 34.6211 8.24902C35.7441 9.17676 36.3057 10.3633 36.3057 11.8086H33.5811C33.5811 11.0664 33.2637 10.4268 32.6289 9.88965C32.0039 9.35254 31.2129 9.08398 30.2559 9.08398C29.2695 9.08398 28.498 9.29883 27.9414 9.72852C27.3848 10.1582 27.1064 10.7197 27.1064 11.4131C27.1064 12.0674 27.3652 12.5605 27.8828 12.8926C28.4004 13.2246 29.333 13.542 30.6807 13.8447C32.0381 14.1475 33.1367 14.5088 33.9766 14.9287C34.8164 15.3486 35.4365 15.8564 35.8369 16.4521C36.2471 17.0381 36.4521 17.7559 36.4521 18.6055C36.4521 20.0215 35.8857 21.1592 34.7529 22.0186C33.6201 22.8682 32.1504 23.293 30.3438 23.293C29.0742 23.293 27.9512 23.0684 26.9746 22.6191C25.998 22.1699 25.2314 21.5449 24.6748 20.7441C24.1279 19.9336 23.8545 19.0596 23.8545 18.1221H26.5645C26.6133 19.0303 26.9746 19.7529 27.6484 20.29C28.332 20.8174 29.2305 21.0811 30.3438 21.0811C31.3691 21.0811 32.1895 20.876 32.8047 20.4658C33.4297 20.0459 33.7422 19.4893 33.7422 18.7959ZM57.209 21.4326C56.1543 22.6729 54.6064 23.293 52.5654 23.293C50.876 23.293 49.5869 22.8047 48.6982 21.8281C47.8193 20.8418 47.375 19.3867 47.3652 17.4629V7.15039H50.0752V17.3896C50.0752 19.792 51.0518 20.9932 53.0049 20.9932C55.0752 20.9932 56.4521 20.2217 57.1357 18.6787V7.15039H59.8457V23H57.2676L57.209 21.4326ZM66.54 7.15039L66.6279 9.14258C67.8389 7.61914 69.4209 6.85742 71.374 6.85742C74.7236 6.85742 76.4131 8.74707 76.4424 12.5264V23H73.7324V12.5117C73.7227 11.3691 73.459 10.5244 72.9414 9.97754C72.4336 9.43066 71.6377 9.15723 70.5537 9.15723C69.6748 9.15723 68.9033 9.3916 68.2393 9.86035C67.5752 10.3291 67.0576 10.9443 66.6865 11.7061V23H63.9766V7.15039H66.54ZM101.359 15.251C101.359 17.6631 100.808 19.6064 99.7041 21.0811C98.6006 22.5557 97.1064 23.293 95.2217 23.293C93.2979 23.293 91.7842 22.6826 90.6807 21.4619V29.0938H87.9707V7.15039H90.4463L90.5781 8.9082C91.6816 7.54102 93.2148 6.85742 95.1777 6.85742C97.082 6.85742 98.5859 7.5752 99.6895 9.01074C100.803 10.4463 101.359 12.4434 101.359 15.002V15.251ZM98.6494 14.9434C98.6494 13.1562 98.2686 11.7451 97.5068 10.71C96.7451 9.6748 95.7002 9.15723 94.3721 9.15723C92.7314 9.15723 91.501 9.88477 90.6807 11.3398V18.9131C91.4912 20.3584 92.7314 21.0811 94.4014 21.0811C95.7002 21.0811 96.7305 20.5684 97.4922 19.543C98.2637 18.5078 98.6494 16.9746 98.6494 14.9434ZM107.761 23H105.051V0.5H107.761V23ZM121.896 23C121.74 22.6875 121.613 22.1309 121.516 21.3301C120.256 22.6387 118.752 23.293 117.004 23.293C115.441 23.293 114.157 22.8535 113.151 21.9746C112.155 21.0859 111.657 19.9629 111.657 18.6055C111.657 16.9551 112.282 15.6758 113.532 14.7676C114.792 13.8496 116.56 13.3906 118.835 13.3906H121.472V12.1455C121.472 11.1982 121.188 10.4463 120.622 9.88965C120.056 9.32324 119.221 9.04004 118.117 9.04004C117.15 9.04004 116.34 9.28418 115.686 9.77246C115.031 10.2607 114.704 10.8516 114.704 11.5449H111.979C111.979 10.7539 112.258 9.99219 112.814 9.25977C113.381 8.51758 114.143 7.93164 115.1 7.50195C116.066 7.07227 117.126 6.85742 118.278 6.85742C120.104 6.85742 121.535 7.31641 122.57 8.23438C123.605 9.14258 124.143 10.3975 124.182 11.999V19.2939C124.182 20.749 124.367 21.9062 124.738 22.7656V23H121.896ZM117.399 20.9346C118.249 20.9346 119.055 20.7148 119.816 20.2754C120.578 19.8359 121.13 19.2646 121.472 18.5615V15.3096H119.348C116.027 15.3096 114.367 16.2812 114.367 18.2246C114.367 19.0742 114.65 19.7383 115.217 20.2168C115.783 20.6953 116.511 20.9346 117.399 20.9346ZM134.787 21.0811C135.754 21.0811 136.599 20.7881 137.321 20.2021C138.044 19.6162 138.444 18.8838 138.522 18.0049H141.086C141.037 18.9131 140.725 19.7773 140.148 20.5977C139.572 21.418 138.801 22.0723 137.834 22.5605C136.877 23.0488 135.861 23.293 134.787 23.293C132.629 23.293 130.91 22.5752 129.631 21.1396C128.361 19.6943 127.727 17.7217 127.727 15.2217V14.7676C127.727 13.2246 128.01 11.8525 128.576 10.6514C129.143 9.4502 129.953 8.51758 131.008 7.85352C132.072 7.18945 133.327 6.85742 134.772 6.85742C136.55 6.85742 138.024 7.38965 139.196 8.4541C140.378 9.51855 141.008 10.9004 141.086 12.5996H138.522C138.444 11.5742 138.054 10.7344 137.351 10.0801C136.657 9.41602 135.798 9.08398 134.772 9.08398C133.396 9.08398 132.326 9.58203 131.564 10.5781C130.812 11.5645 130.437 12.9951 130.437 14.8701V15.3828C130.437 17.209 130.812 18.6152 131.564 19.6016C132.316 20.5879 133.391 21.0811 134.787 21.0811ZM150.71 23.293C148.562 23.293 146.813 22.5898 145.466 21.1836C144.118 19.7676 143.444 17.8779 143.444 15.5146V15.0166C143.444 13.4443 143.742 12.043 144.338 10.8125C144.943 9.57227 145.783 8.60547 146.857 7.91211C147.941 7.20898 149.113 6.85742 150.373 6.85742C152.434 6.85742 154.035 7.53613 155.178 8.89355C156.32 10.251 156.892 12.1943 156.892 14.7236V15.8516H146.154C146.193 17.4141 146.647 18.6787 147.517 19.6455C148.396 20.6025 149.509 21.0811 150.856 21.0811C151.813 21.0811 152.624 20.8857 153.288 20.4951C153.952 20.1045 154.533 19.5869 155.031 18.9424L156.687 20.2314C155.358 22.2725 153.366 23.293 150.71 23.293ZM150.373 9.08398C149.279 9.08398 148.361 9.48438 147.619 10.2852C146.877 11.0762 146.418 12.1895 146.242 13.625H154.182V13.4199C154.104 12.043 153.732 10.9785 153.068 10.2266C152.404 9.46484 151.506 9.08398 150.373 9.08398ZM167.702 9.58203C167.292 9.51367 166.848 9.47949 166.369 9.47949C164.592 9.47949 163.386 10.2363 162.751 11.75V23H160.041V7.15039H162.678L162.722 8.98145C163.61 7.56543 164.87 6.85742 166.501 6.85742C167.028 6.85742 167.429 6.92578 167.702 7.0625V9.58203ZM181.325 3.3125V7.15039H184.284V9.24512H181.325V19.0742C181.325 19.709 181.457 20.1875 181.721 20.5098C181.984 20.8223 182.434 20.9785 183.068 20.9785C183.381 20.9785 183.811 20.9199 184.357 20.8027V23C183.645 23.1953 182.951 23.293 182.277 23.293C181.066 23.293 180.153 22.9268 179.538 22.1943C178.923 21.4619 178.615 20.4219 178.615 19.0742V9.24512H175.729V7.15039H178.615V3.3125H181.325ZM194.04 23.293C191.892 23.293 190.144 22.5898 188.796 21.1836C187.448 19.7676 186.774 17.8779 186.774 15.5146V15.0166C186.774 13.4443 187.072 12.043 187.668 10.8125C188.273 9.57227 189.113 8.60547 190.188 7.91211C191.271 7.20898 192.443 6.85742 193.703 6.85742C195.764 6.85742 197.365 7.53613 198.508 8.89355C199.65 10.251 200.222 12.1943 200.222 14.7236V15.8516H189.484C189.523 17.4141 189.978 18.6787 190.847 19.6455C191.726 20.6025 192.839 21.0811 194.187 21.0811C195.144 21.0811 195.954 20.8857 196.618 20.4951C197.282 20.1045 197.863 19.5869 198.361 18.9424L200.017 20.2314C198.688 22.2725 196.696 23.293 194.04 23.293ZM193.703 9.08398C192.609 9.08398 191.691 9.48438 190.949 10.2852C190.207 11.0762 189.748 12.1895 189.572 13.625H197.512V13.4199C197.434 12.043 197.062 10.9785 196.398 10.2266C195.734 9.46484 194.836 9.08398 193.703 9.08398ZM205.935 7.15039L206.022 9.14258C207.233 7.61914 208.815 6.85742 210.769 6.85742C214.118 6.85742 215.808 8.74707 215.837 12.5264V23H213.127V12.5117C213.117 11.3691 212.854 10.5244 212.336 9.97754C211.828 9.43066 211.032 9.15723 209.948 9.15723C209.069 9.15723 208.298 9.3916 207.634 9.86035C206.97 10.3291 206.452 10.9443 206.081 11.7061V23H203.371V7.15039H205.935ZM226.501 23.293C224.353 23.293 222.604 22.5898 221.257 21.1836C219.909 19.7676 219.235 17.8779 219.235 15.5146V15.0166C219.235 13.4443 219.533 12.043 220.129 10.8125C220.734 9.57227 221.574 8.60547 222.648 7.91211C223.732 7.20898 224.904 6.85742 226.164 6.85742C228.225 6.85742 229.826 7.53613 230.969 8.89355C232.111 10.251 232.683 12.1943 232.683 14.7236V15.8516H221.945C221.984 17.4141 222.438 18.6787 223.308 19.6455C224.187 20.6025 225.3 21.0811 226.647 21.0811C227.604 21.0811 228.415 20.8857 229.079 20.4951C229.743 20.1045 230.324 19.5869 230.822 18.9424L232.478 20.2314C231.149 22.2725 229.157 23.293 226.501 23.293ZM226.164 9.08398C225.07 9.08398 224.152 9.48438 223.41 10.2852C222.668 11.0762 222.209 12.1895 222.033 13.625H229.973V13.4199C229.895 12.043 229.523 10.9785 228.859 10.2266C228.195 9.46484 227.297 9.08398 226.164 9.08398ZM243.493 9.58203C243.083 9.51367 242.639 9.47949 242.16 9.47949C240.383 9.47949 239.177 10.2363 238.542 11.75V23H235.832V7.15039H238.469L238.513 8.98145C239.401 7.56543 240.661 6.85742 242.292 6.85742C242.819 6.85742 243.22 6.92578 243.493 7.0625V9.58203ZM250.407 3.3125V7.15039H253.366V9.24512H250.407V19.0742C250.407 19.709 250.539 20.1875 250.803 20.5098C251.066 20.8223 251.516 20.9785 252.15 20.9785C252.463 20.9785 252.893 20.9199 253.439 20.8027V23C252.727 23.1953 252.033 23.293 251.359 23.293C250.148 23.293 249.235 22.9268 248.62 22.1943C248.005 21.4619 247.697 20.4219 247.697 19.0742V9.24512H244.812V7.15039H247.697V3.3125H250.407ZM263.122 23.293C260.974 23.293 259.226 22.5898 257.878 21.1836C256.53 19.7676 255.856 17.8779 255.856 15.5146V15.0166C255.856 13.4443 256.154 12.043 256.75 10.8125C257.355 9.57227 258.195 8.60547 259.27 7.91211C260.354 7.20898 261.525 6.85742 262.785 6.85742C264.846 6.85742 266.447 7.53613 267.59 8.89355C268.732 10.251 269.304 12.1943 269.304 14.7236V15.8516H258.566C258.605 17.4141 259.06 18.6787 259.929 19.6455C260.808 20.6025 261.921 21.0811 263.269 21.0811C264.226 21.0811 265.036 20.8857 265.7 20.4951C266.364 20.1045 266.945 19.5869 267.443 18.9424L269.099 20.2314C267.771 22.2725 265.778 23.293 263.122 23.293ZM262.785 9.08398C261.691 9.08398 260.773 9.48438 260.031 10.2852C259.289 11.0762 258.83 12.1895 258.654 13.625H266.594V13.4199C266.516 12.043 266.145 10.9785 265.48 10.2266C264.816 9.46484 263.918 9.08398 262.785 9.08398ZM289.68 23C289.523 22.6875 289.396 22.1309 289.299 21.3301C288.039 22.6387 286.535 23.293 284.787 23.293C283.225 23.293 281.94 22.8535 280.935 21.9746C279.938 21.0859 279.44 19.9629 279.44 18.6055C279.44 16.9551 280.065 15.6758 281.315 14.7676C282.575 13.8496 284.343 13.3906 286.618 13.3906H289.255V12.1455C289.255 11.1982 288.972 10.4463 288.405 9.88965C287.839 9.32324 287.004 9.04004 285.9 9.04004C284.934 9.04004 284.123 9.28418 283.469 9.77246C282.814 10.2607 282.487 10.8516 282.487 11.5449H279.763C279.763 10.7539 280.041 9.99219 280.598 9.25977C281.164 8.51758 281.926 7.93164 282.883 7.50195C283.85 7.07227 284.909 6.85742 286.062 6.85742C287.888 6.85742 289.318 7.31641 290.354 8.23438C291.389 9.14258 291.926 10.3975 291.965 11.999V19.2939C291.965 20.749 292.15 21.9062 292.521 22.7656V23H289.68ZM285.183 20.9346C286.032 20.9346 286.838 20.7148 287.6 20.2754C288.361 19.8359 288.913 19.2646 289.255 18.5615V15.3096H287.131C283.811 15.3096 282.15 16.2812 282.15 18.2246C282.15 19.0742 282.434 19.7383 283 20.2168C283.566 20.6953 284.294 20.9346 285.183 20.9346ZM295.554 14.9434C295.554 12.4531 296.125 10.4854 297.268 9.04004C298.41 7.58496 299.943 6.85742 301.867 6.85742C303.742 6.85742 305.222 7.4873 306.306 8.74707L306.423 7.15039H308.913V29.0938H306.203V21.5352C305.109 22.707 303.654 23.293 301.838 23.293C299.924 23.293 298.396 22.5508 297.253 21.0664C296.12 19.5723 295.554 17.5947 295.554 15.1338V14.9434ZM298.264 15.251C298.264 17.0674 298.645 18.4932 299.406 19.5283C300.178 20.5635 301.213 21.0811 302.512 21.0811C304.123 21.0811 305.354 20.3682 306.203 18.9424V11.1787C305.344 9.78223 304.123 9.08398 302.541 9.08398C301.232 9.08398 300.192 9.60645 299.421 10.6514C298.649 11.6865 298.264 13.2197 298.264 15.251ZM323.049 21.4326C321.994 22.6729 320.446 23.293 318.405 23.293C316.716 23.293 315.427 22.8047 314.538 21.8281C313.659 20.8418 313.215 19.3867 313.205 17.4629V7.15039H315.915V17.3896C315.915 19.792 316.892 20.9932 318.845 20.9932C320.915 20.9932 322.292 20.2217 322.976 18.6787V7.15039H325.686V23H323.107L323.049 21.4326ZM332.761 23H330.036V7.15039H332.761V23ZM332.79 0.514648H336.071L332.146 4.82129H329.963L332.79 0.514648ZM340.261 16.9795H337.814L337.624 1.67188H340.466L340.261 16.9795ZM337.521 21.6377C337.521 21.1982 337.653 20.832 337.917 20.5391C338.19 20.2363 338.591 20.085 339.118 20.085C339.646 20.085 340.046 20.2363 340.319 20.5391C340.593 20.832 340.729 21.1982 340.729 21.6377C340.729 22.0771 340.593 22.4434 340.319 22.7363C340.046 23.0195 339.646 23.1611 339.118 23.1611C338.591 23.1611 338.19 23.0195 337.917 22.7363C337.653 22.4434 337.521 22.0771 337.521 21.6377Z" fill="#3C2313"/>
</svg>
